<?xml version="1.0" encoding="UTF-8" standalone="no"?>
<!DOCTYPE svg PUBLIC "-//W3C//DTD SVG 1.1//EN"
 "http://www.w3.org/Graphics/SVG/1.1/DTD/svg11.dtd">
<!-- Generated by graphviz version 2.47.0 (20210316.0004)
 -->
<!-- Title: dependencies Pages: 1 -->
<svg width="758pt" height="284pt"
 viewBox="0.00 0.00 758.00 284.00" xmlns="http://www.w3.org/2000/svg" xmlns:xlink="http://www.w3.org/1999/xlink">
<g id="graph0" class="graph" transform="scale(1 1) rotate(0) translate(4 280)">
<title>dependencies</title>
<polygon fill="white" stroke="transparent" points="-4,4 -4,-280 754,-280 754,4 -4,4"/>
<text text-anchor="start" x="354.01" y="-42.4" font-family="Times-12" font-weight="bold" font-size="14.00">Legend</text>
<polygon fill="#ffffb3" stroke="transparent" points="141,-10 141,-30 161,-30 161,-10 141,-10"/>
<text text-anchor="start" x="164.63" y="-15.4" font-family="Times-12" font-size="14.00"> &#160;Declarations</text>
<polygon fill="#8dd3c7" stroke="transparent" points="254,-10 254,-30 274,-30 274,-10 254,-10"/>
<text text-anchor="start" x="277.73" y="-15.4" font-family="Times-12" font-size="14.00"> &#160;Module</text>
<polygon fill="#80b1d3" stroke="transparent" points="340,-10 340,-30 360,-30 360,-10 340,-10"/>
<text text-anchor="start" x="363.78" y="-15.4" font-family="Times-12" font-size="14.00"> &#160;Bootstrap</text>
<polygon fill="#fdb462" stroke="transparent" points="437,-10 437,-30 457,-30 457,-10 437,-10"/>
<text text-anchor="start" x="460.67" y="-15.4" font-family="Times-12" font-size="14.00"> &#160;Providers</text>
<polygon fill="#fb8072" stroke="transparent" points="533,-10 533,-30 553,-30 553,-10 533,-10"/>
<text text-anchor="start" x="556.73" y="-15.4" font-family="Times-12" font-size="14.00"> &#160;Exports</text>
<g id="clust1" class="cluster">
<title>cluster_LandingModule</title>
<polygon fill="none" stroke="black" stroke-dasharray="1,5" points="8,-70 8,-268 742,-268 742,-70 8,-70"/>
</g>
<g id="clust2" class="cluster">
<title>cluster_LandingModule_declarations</title>
<polygon fill="none" stroke="black" points="25,-78 25,-130 727,-130 727,-78 25,-78"/>
</g>
<g id="clust8" class="cluster">
<title>cluster_LandingModule_exports</title>
<polygon fill="none" stroke="black" points="16,-208 16,-260 734,-260 734,-208 16,-208"/>
</g>
<!-- LandingInfo1Component -->
<g id="node1" class="node">
<title>LandingInfo1Component</title>
<polygon fill="#ffffb3" stroke="black" points="719.31,-122 560.69,-122 560.69,-86 719.31,-86 719.31,-122"/>
<text text-anchor="middle" x="640" y="-99.8" font-family="Times,serif" font-size="14.00">LandingInfo1Component</text>
</g>
<!-- LandingModule -->
<g id="node5" class="node">
<title>LandingModule</title>
<polygon fill="#8dd3c7" stroke="black" points="344.21,-187 341.21,-191 320.21,-191 317.21,-187 237.79,-187 237.79,-151 344.21,-151 344.21,-187"/>
<text text-anchor="middle" x="291" y="-164.8" font-family="Times,serif" font-size="14.00">LandingModule</text>
</g>
<!-- LandingInfo1Component&#45;&gt;LandingModule -->
<g id="edge1" class="edge">
<title>LandingInfo1Component&#45;&gt;LandingModule</title>
<path fill="none" stroke="black" d="M667.47,-122.27C667.47,-140.56 667.47,-166 667.47,-166 667.47,-166 354.14,-166 354.14,-166"/>
<polygon fill="black" stroke="black" points="354.14,-162.5 344.14,-166 354.14,-169.5 354.14,-162.5"/>
</g>
<!-- LandingInfo2Component -->
<g id="node2" class="node">
<title>LandingInfo2Component</title>
<polygon fill="#ffffb3" stroke="black" points="543.31,-122 384.69,-122 384.69,-86 543.31,-86 543.31,-122"/>
<text text-anchor="middle" x="464" y="-99.8" font-family="Times,serif" font-size="14.00">LandingInfo2Component</text>
</g>
<!-- LandingInfo2Component&#45;&gt;LandingModule -->
<g id="edge2" class="edge">
<title>LandingInfo2Component&#45;&gt;LandingModule</title>
<path fill="none" stroke="black" d="M490.39,-122.01C490.39,-138.05 490.39,-159 490.39,-159 490.39,-159 354.17,-159 354.17,-159"/>
<polygon fill="black" stroke="black" points="354.17,-155.5 344.17,-159 354.17,-162.5 354.17,-155.5"/>
</g>
<!-- LandingInfo3Component -->
<g id="node3" class="node">
<title>LandingInfo3Component</title>
<polygon fill="#ffffb3" stroke="black" points="367.31,-122 208.69,-122 208.69,-86 367.31,-86 367.31,-122"/>
<text text-anchor="middle" x="288" y="-99.8" font-family="Times,serif" font-size="14.00">LandingInfo3Component</text>
</g>
<!-- LandingInfo3Component&#45;&gt;LandingModule -->
<g id="edge3" class="edge">
<title>LandingInfo3Component&#45;&gt;LandingModule</title>
<path fill="none" stroke="black" d="M291,-122.11C291,-122.11 291,-140.99 291,-140.99"/>
<polygon fill="black" stroke="black" points="287.5,-140.99 291,-150.99 294.5,-140.99 287.5,-140.99"/>
</g>
<!-- LandingInfo4Component -->
<g id="node4" class="node">
<title>LandingInfo4Component</title>
<polygon fill="#ffffb3" stroke="black" points="191.31,-122 32.69,-122 32.69,-86 191.31,-86 191.31,-122"/>
<text text-anchor="middle" x="112" y="-99.8" font-family="Times,serif" font-size="14.00">LandingInfo4Component</text>
</g>
<!-- LandingInfo4Component&#45;&gt;LandingModule -->
<g id="edge4" class="edge">
<title>LandingInfo4Component&#45;&gt;LandingModule</title>
<path fill="none" stroke="black" d="M134.89,-122.02C134.89,-139.37 134.89,-163 134.89,-163 134.89,-163 227.71,-163 227.71,-163"/>
<polygon fill="black" stroke="black" points="227.71,-166.5 237.71,-163 227.71,-159.5 227.71,-166.5"/>
</g>
<!-- LandingInfo1Component  -->
<g id="node6" class="node">
<title>LandingInfo1Component </title>
<polygon fill="#fb8072" stroke="black" points="725.81,-252 564.19,-252 564.19,-216 725.81,-216 725.81,-252"/>
<text text-anchor="middle" x="645" y="-229.8" font-family="Times,serif" font-size="14.00">LandingInfo1Component </text>
</g>
<!-- LandingModule&#45;&gt;LandingInfo1Component  -->
<g id="edge5" class="edge">
<title>LandingModule&#45;&gt;LandingInfo1Component </title>
<path fill="none" stroke="black" stroke-dasharray="5,2" d="M344.27,-173C436.41,-173 615.78,-173 615.78,-173 615.78,-173 615.78,-205.7 615.78,-205.7"/>
<polygon fill="black" stroke="black" points="612.28,-205.7 615.78,-215.7 619.28,-205.7 612.28,-205.7"/>
</g>
<!-- LandingInfo2Component  -->
<g id="node7" class="node">
<title>LandingInfo2Component </title>
<polygon fill="#fb8072" stroke="black" points="545.81,-252 384.19,-252 384.19,-216 545.81,-216 545.81,-252"/>
<text text-anchor="middle" x="465" y="-229.8" font-family="Times,serif" font-size="14.00">LandingInfo2Component </text>
</g>
<!-- LandingModule&#45;&gt;LandingInfo2Component  -->
<g id="edge6" class="edge">
<title>LandingModule&#45;&gt;LandingInfo2Component </title>
<path fill="none" stroke="black" stroke-dasharray="5,2" d="M344.35,-180C386.27,-180 437.61,-180 437.61,-180 437.61,-180 437.61,-205.72 437.61,-205.72"/>
<polygon fill="black" stroke="black" points="434.11,-205.72 437.61,-215.72 441.11,-205.72 434.11,-205.72"/>
</g>
<!-- LandingInfo3Component  -->
<g id="node8" class="node">
<title>LandingInfo3Component </title>
<polygon fill="#fb8072" stroke="black" points="365.81,-252 204.19,-252 204.19,-216 365.81,-216 365.81,-252"/>
<text text-anchor="middle" x="285" y="-229.8" font-family="Times,serif" font-size="14.00">LandingInfo3Component </text>
</g>
<!-- LandingModule&#45;&gt;LandingInfo3Component  -->
<g id="edge7" class="edge">
<title>LandingModule&#45;&gt;LandingInfo3Component </title>
<path fill="none" stroke="black" stroke-dasharray="5,2" d="M291,-187.11C291,-187.11 291,-205.99 291,-205.99"/>
<polygon fill="black" stroke="black" points="287.5,-205.99 291,-215.99 294.5,-205.99 287.5,-205.99"/>
</g>
<!-- LandingInfo4Component  -->
<g id="node9" class="node">
<title>LandingInfo4Component </title>
<polygon fill="#fb8072" stroke="black" points="185.81,-252 24.19,-252 24.19,-216 185.81,-216 185.81,-252"/>
<text text-anchor="middle" x="105" y="-229.8" font-family="Times,serif" font-size="14.00">LandingInfo4Component </text>
</g>
<!-- LandingModule&#45;&gt;LandingInfo4Component  -->
<g id="edge8" class="edge">
<title>LandingModule&#45;&gt;LandingInfo4Component </title>
<path fill="none" stroke="black" stroke-dasharray="5,2" d="M237.66,-175C176.28,-175 83.86,-175 83.86,-175 83.86,-175 83.86,-205.98 83.86,-205.98"/>
<polygon fill="black" stroke="black" points="80.36,-205.98 83.86,-215.98 87.36,-205.98 80.36,-205.98"/>
</g>
</g>
</svg>
