<?xml version="1.0" encoding="UTF-8" standalone="no"?>
<!DOCTYPE svg PUBLIC "-//W3C//DTD SVG 1.1//EN"
 "http://www.w3.org/Graphics/SVG/1.1/DTD/svg11.dtd">
<!-- Generated by graphviz version 2.47.0 (20210316.0004)
 -->
<!-- Title: dependencies Pages: 1 -->
<svg width="504pt" height="284pt"
 viewBox="0.00 0.00 504.00 284.00" xmlns="http://www.w3.org/2000/svg" xmlns:xlink="http://www.w3.org/1999/xlink">
<g id="graph0" class="graph" transform="scale(1 1) rotate(0) translate(4 280)">
<title>dependencies</title>
<polygon fill="white" stroke="transparent" points="-4,4 -4,-280 500,-280 500,4 -4,4"/>
<text text-anchor="start" x="227.01" y="-42.4" font-family="Times-12" font-weight="bold" font-size="14.00">Legend</text>
<polygon fill="#ffffb3" stroke="transparent" points="14,-10 14,-30 34,-30 34,-10 14,-10"/>
<text text-anchor="start" x="37.63" y="-15.4" font-family="Times-12" font-size="14.00"> &#160;Declarations</text>
<polygon fill="#8dd3c7" stroke="transparent" points="127,-10 127,-30 147,-30 147,-10 127,-10"/>
<text text-anchor="start" x="150.73" y="-15.4" font-family="Times-12" font-size="14.00"> &#160;Module</text>
<polygon fill="#80b1d3" stroke="transparent" points="213,-10 213,-30 233,-30 233,-10 213,-10"/>
<text text-anchor="start" x="236.78" y="-15.4" font-family="Times-12" font-size="14.00"> &#160;Bootstrap</text>
<polygon fill="#fdb462" stroke="transparent" points="310,-10 310,-30 330,-30 330,-10 310,-10"/>
<text text-anchor="start" x="333.67" y="-15.4" font-family="Times-12" font-size="14.00"> &#160;Providers</text>
<polygon fill="#fb8072" stroke="transparent" points="406,-10 406,-30 426,-30 426,-10 406,-10"/>
<text text-anchor="start" x="429.73" y="-15.4" font-family="Times-12" font-size="14.00"> &#160;Exports</text>
<g id="clust1" class="cluster">
<title>cluster_HeaderModule</title>
<polygon fill="none" stroke="black" stroke-dasharray="1,5" points="22,-70 22,-268 474,-268 474,-70 22,-70"/>
</g>
<g id="clust2" class="cluster">
<title>cluster_HeaderModule_declarations</title>
<polygon fill="none" stroke="black" points="36,-78 36,-130 460,-130 460,-78 36,-78"/>
</g>
<g id="clust7" class="cluster">
<title>cluster_HeaderModule_exports</title>
<polygon fill="none" stroke="black" points="30,-208 30,-260 466,-260 466,-208 30,-208"/>
</g>
<!-- LogoComponent -->
<g id="node1" class="node">
<title>LogoComponent</title>
<polygon fill="#ffffb3" stroke="black" points="452.39,-122 341.61,-122 341.61,-86 452.39,-86 452.39,-122"/>
<text text-anchor="middle" x="397" y="-99.8" font-family="Times,serif" font-size="14.00">LogoComponent</text>
</g>
<!-- HeaderModule -->
<g id="node4" class="node">
<title>HeaderModule</title>
<polygon fill="#8dd3c7" stroke="black" points="316.96,-187 313.96,-191 292.96,-191 289.96,-187 217.04,-187 217.04,-151 316.96,-151 316.96,-187"/>
<text text-anchor="middle" x="267" y="-164.8" font-family="Times,serif" font-size="14.00">HeaderModule</text>
</g>
<!-- LogoComponent&#45;&gt;HeaderModule -->
<g id="edge1" class="edge">
<title>LogoComponent&#45;&gt;HeaderModule</title>
<path fill="none" stroke="black" d="M416.23,-122.02C416.23,-139.37 416.23,-163 416.23,-163 416.23,-163 327.11,-163 327.11,-163"/>
<polygon fill="black" stroke="black" points="327.11,-159.5 317.11,-163 327.11,-166.5 327.11,-159.5"/>
</g>
<!-- MenuComponent -->
<g id="node2" class="node">
<title>MenuComponent</title>
<polygon fill="#ffffb3" stroke="black" points="323.99,-122 210.01,-122 210.01,-86 323.99,-86 323.99,-122"/>
<text text-anchor="middle" x="267" y="-99.8" font-family="Times,serif" font-size="14.00">MenuComponent</text>
</g>
<!-- MenuComponent&#45;&gt;HeaderModule -->
<g id="edge2" class="edge">
<title>MenuComponent&#45;&gt;HeaderModule</title>
<path fill="none" stroke="black" d="M267,-122.11C267,-122.11 267,-140.99 267,-140.99"/>
<polygon fill="black" stroke="black" points="263.5,-140.99 267,-150.99 270.5,-140.99 263.5,-140.99"/>
</g>
<!-- NavegacionComponent -->
<g id="node3" class="node">
<title>NavegacionComponent</title>
<polygon fill="#ffffb3" stroke="black" points="192.19,-122 43.81,-122 43.81,-86 192.19,-86 192.19,-122"/>
<text text-anchor="middle" x="118" y="-99.8" font-family="Times,serif" font-size="14.00">NavegacionComponent</text>
</g>
<!-- NavegacionComponent&#45;&gt;HeaderModule -->
<g id="edge3" class="edge">
<title>NavegacionComponent&#45;&gt;HeaderModule</title>
<path fill="none" stroke="black" d="M141.2,-122.02C141.2,-139.37 141.2,-163 141.2,-163 141.2,-163 206.92,-163 206.92,-163"/>
<polygon fill="black" stroke="black" points="206.92,-166.5 216.92,-163 206.92,-159.5 206.92,-166.5"/>
</g>
<!-- LogoComponent  -->
<g id="node5" class="node">
<title>LogoComponent </title>
<polygon fill="#fb8072" stroke="black" points="458.39,-252 343.61,-252 343.61,-216 458.39,-216 458.39,-252"/>
<text text-anchor="middle" x="401" y="-229.8" font-family="Times,serif" font-size="14.00">LogoComponent </text>
</g>
<!-- HeaderModule&#45;&gt;LogoComponent  -->
<g id="edge4" class="edge">
<title>HeaderModule&#45;&gt;LogoComponent </title>
<path fill="none" stroke="black" stroke-dasharray="5,2" d="M317.23,-175C347.41,-175 380.02,-175 380.02,-175 380.02,-175 380.02,-205.98 380.02,-205.98"/>
<polygon fill="black" stroke="black" points="376.52,-205.98 380.02,-215.98 383.52,-205.98 376.52,-205.98"/>
</g>
<!-- MenuComponent  -->
<g id="node6" class="node">
<title>MenuComponent </title>
<polygon fill="#fb8072" stroke="black" points="325.99,-252 208.01,-252 208.01,-216 325.99,-216 325.99,-252"/>
<text text-anchor="middle" x="267" y="-229.8" font-family="Times,serif" font-size="14.00">MenuComponent </text>
</g>
<!-- HeaderModule&#45;&gt;MenuComponent  -->
<g id="edge5" class="edge">
<title>HeaderModule&#45;&gt;MenuComponent </title>
<path fill="none" stroke="black" stroke-dasharray="5,2" d="M267,-187.11C267,-187.11 267,-205.99 267,-205.99"/>
<polygon fill="black" stroke="black" points="263.5,-205.99 267,-215.99 270.5,-205.99 263.5,-205.99"/>
</g>
<!-- NavegacionComponent  -->
<g id="node7" class="node">
<title>NavegacionComponent </title>
<polygon fill="#fb8072" stroke="black" points="189.69,-252 38.31,-252 38.31,-216 189.69,-216 189.69,-252"/>
<text text-anchor="middle" x="114" y="-229.8" font-family="Times,serif" font-size="14.00">NavegacionComponent </text>
</g>
<!-- HeaderModule&#45;&gt;NavegacionComponent  -->
<g id="edge6" class="edge">
<title>HeaderModule&#45;&gt;NavegacionComponent </title>
<path fill="none" stroke="black" stroke-dasharray="5,2" d="M217.01,-175C165.46,-175 92.55,-175 92.55,-175 92.55,-175 92.55,-205.98 92.55,-205.98"/>
<polygon fill="black" stroke="black" points="89.05,-205.98 92.55,-215.98 96.05,-205.98 89.05,-205.98"/>
</g>
</g>
</svg>
