<?xml version="1.0" encoding="UTF-8"?>
<svg version="1.1" viewBox="0 0 1112 1140" width="278" height="285" xmlns="http://www.w3.org/2000/svg">
<path transform="translate(241,105)" d="m0 0h121l19 1 3 31 5 26 7 24 10 24 11 20 11 16 12 14 24 24 11 8 8 6 1-4 1-189 1-1h148l2 1v194l11-7 13-10 7-7 8-7 5-6h2l2-4 7-8 12-17 12-21 10-25 6-19 5-22 4-31 1-11h130l12 1v14l-3 47-4 28-5 25-8 29-9 24-9 20-8 16-17 28-8 12-11 14-13 15-26 26-14 11-15 12-12 8-6 3 4 1h165l1 1v150l-2 1h-168v2l6 2 10 6 14 10 14 12 8 7 12 11 13 14 11 14 13 17 14 22 12 21 9 19 7 18 9 28 7 29 5 31 3 36 1 20v13l-3 1h-139l-1-3-1-17-3-24-2-6-3-14-6-20-7-17-12-23-14-21-9-10-7-8-10-10-11-9-17-12-2-1v195l-108 1h-43l-1-3 1-192-12 7-13 11-8 7-3 1-2 4-7 7-11 14-12 18-10 17-10 23-7 23-6 31-1 7-1 23-3 1h-139l-1-1v-27l3-42 5-27 4-19 9-31 9-24 14-29 11-20 12-18 10-14 9-11 24-26 8-7 11-10 17-13 14-9 6-3 1-2h-166l-2-1-1-7v-143l2-1 168-1-11-6-16-12-16-13-8-7-7-7-8-7-12-13-11-13-12-17-13-20-9-16-13-26-10-26-8-27-7-29-3-20-1-4-3-43v-26z"/>
<path transform="translate(656,939)" d="m0 0h48l7 10 16 24 13 19 22 33 2 1v-86l1-1h47l1 1v161l-2 1h-46l-5-5-10-14-29-44-15-22-1-1-1 38v47l-2 1h-45l-1-1z"/>
<path transform="translate(314,939)" d="m0 0h49l1 1v86l1 20 4 9 4 5 9 4 4 1h11l10-4 5-5 4-8 1-5 1-104h50l1 1v97l-2 17-4 13-6 11-6 8-11 9-13 6-30 5-18-1-5-1-15-2-15-6-11-8-10-12-5-10-4-15-1-12v-99z"/>
<path transform="translate(486,939)" d="m0 0h152v41l-1 1-50 1v118l-4 2h-46v-121h-50l-1-1z"/>
</svg>
