<?xml version="1.0" encoding="UTF-8" standalone="no"?>
<!DOCTYPE svg PUBLIC "-//W3C//DTD SVG 1.1//EN"
 "http://www.w3.org/Graphics/SVG/1.1/DTD/svg11.dtd">
<!-- Generated by graphviz version 2.47.0 (20210316.0004)
 -->
<!-- Title: dependencies Pages: 1 -->
<svg width="504pt" height="284pt"
 viewBox="0.00 0.00 504.00 284.00" xmlns="http://www.w3.org/2000/svg" xmlns:xlink="http://www.w3.org/1999/xlink">
<g id="graph0" class="graph" transform="scale(1 1) rotate(0) translate(4 280)">
<title>dependencies</title>
<polygon fill="white" stroke="transparent" points="-4,4 -4,-280 500,-280 500,4 -4,4"/>
<text text-anchor="start" x="227.01" y="-42.4" font-family="Times-12" font-weight="bold" font-size="14.00">Legend</text>
<polygon fill="#ffffb3" stroke="transparent" points="14,-10 14,-30 34,-30 34,-10 14,-10"/>
<text text-anchor="start" x="37.63" y="-15.4" font-family="Times-12" font-size="14.00"> &#160;Declarations</text>
<polygon fill="#8dd3c7" stroke="transparent" points="127,-10 127,-30 147,-30 147,-10 127,-10"/>
<text text-anchor="start" x="150.73" y="-15.4" font-family="Times-12" font-size="14.00"> &#160;Module</text>
<polygon fill="#80b1d3" stroke="transparent" points="213,-10 213,-30 233,-30 233,-10 213,-10"/>
<text text-anchor="start" x="236.78" y="-15.4" font-family="Times-12" font-size="14.00"> &#160;Bootstrap</text>
<polygon fill="#fdb462" stroke="transparent" points="310,-10 310,-30 330,-30 330,-10 310,-10"/>
<text text-anchor="start" x="333.67" y="-15.4" font-family="Times-12" font-size="14.00"> &#160;Providers</text>
<polygon fill="#fb8072" stroke="transparent" points="406,-10 406,-30 426,-30 426,-10 406,-10"/>
<text text-anchor="start" x="429.73" y="-15.4" font-family="Times-12" font-size="14.00"> &#160;Exports</text>
<g id="clust1" class="cluster">
<title>cluster_HeaderLoggedModule</title>
<polygon fill="none" stroke="black" stroke-dasharray="1,5" points="22,-70 22,-268 474,-268 474,-70 22,-70"/>
</g>
<g id="clust7" class="cluster">
<title>cluster_HeaderLoggedModule_exports</title>
<polygon fill="none" stroke="black" points="30,-208 30,-260 466,-260 466,-208 30,-208"/>
</g>
<g id="clust2" class="cluster">
<title>cluster_HeaderLoggedModule_declarations</title>
<polygon fill="none" stroke="black" points="36,-78 36,-130 460,-130 460,-78 36,-78"/>
</g>
<!-- BuscadorComponent -->
<g id="node1" class="node">
<title>BuscadorComponent</title>
<polygon fill="#ffffb3" stroke="black" points="452.2,-122 317.8,-122 317.8,-86 452.2,-86 452.2,-122"/>
<text text-anchor="middle" x="385" y="-99.8" font-family="Times,serif" font-size="14.00">BuscadorComponent</text>
</g>
<!-- HeaderLoggedModule -->
<g id="node4" class="node">
<title>HeaderLoggedModule</title>
<polygon fill="#8dd3c7" stroke="black" points="304.23,-187 301.23,-191 280.23,-191 277.23,-187 161.77,-187 161.77,-151 304.23,-151 304.23,-187"/>
<text text-anchor="middle" x="233" y="-164.8" font-family="Times,serif" font-size="14.00">HeaderLoggedModule</text>
</g>
<!-- BuscadorComponent&#45;&gt;HeaderLoggedModule -->
<g id="edge1" class="edge">
<title>BuscadorComponent&#45;&gt;HeaderLoggedModule</title>
<path fill="none" stroke="black" d="M408.12,-122.02C408.12,-139.37 408.12,-163 408.12,-163 408.12,-163 314.48,-163 314.48,-163"/>
<polygon fill="black" stroke="black" points="314.48,-159.5 304.48,-163 314.48,-166.5 314.48,-159.5"/>
</g>
<!-- LogoNavComponent -->
<g id="node2" class="node">
<title>LogoNavComponent</title>
<polygon fill="#ffffb3" stroke="black" points="300.21,-122 165.79,-122 165.79,-86 300.21,-86 300.21,-122"/>
<text text-anchor="middle" x="233" y="-99.8" font-family="Times,serif" font-size="14.00">LogoNavComponent</text>
</g>
<!-- LogoNavComponent&#45;&gt;HeaderLoggedModule -->
<g id="edge2" class="edge">
<title>LogoNavComponent&#45;&gt;HeaderLoggedModule</title>
<path fill="none" stroke="black" d="M233,-122.11C233,-122.11 233,-140.99 233,-140.99"/>
<polygon fill="black" stroke="black" points="229.5,-140.99 233,-150.99 236.5,-140.99 229.5,-140.99"/>
</g>
<!-- NavComponent -->
<g id="node3" class="node">
<title>NavComponent</title>
<polygon fill="#ffffb3" stroke="black" points="148.15,-122 43.85,-122 43.85,-86 148.15,-86 148.15,-122"/>
<text text-anchor="middle" x="96" y="-99.8" font-family="Times,serif" font-size="14.00">NavComponent</text>
</g>
<!-- NavComponent&#45;&gt;HeaderLoggedModule -->
<g id="edge3" class="edge">
<title>NavComponent&#45;&gt;HeaderLoggedModule</title>
<path fill="none" stroke="black" d="M111.94,-122.02C111.94,-139.37 111.94,-163 111.94,-163 111.94,-163 151.53,-163 151.53,-163"/>
<polygon fill="black" stroke="black" points="151.53,-166.5 161.53,-163 151.53,-159.5 151.53,-166.5"/>
</g>
<!-- BuscadorComponent  -->
<g id="node5" class="node">
<title>BuscadorComponent </title>
<polygon fill="#fb8072" stroke="black" points="457.7,-252 320.3,-252 320.3,-216 457.7,-216 457.7,-252"/>
<text text-anchor="middle" x="389" y="-229.8" font-family="Times,serif" font-size="14.00">BuscadorComponent </text>
</g>
<!-- HeaderLoggedModule&#45;&gt;BuscadorComponent  -->
<g id="edge4" class="edge">
<title>HeaderLoggedModule&#45;&gt;BuscadorComponent </title>
<path fill="none" stroke="black" stroke-dasharray="5,2" d="M304.32,-175C335.08,-175 364.13,-175 364.13,-175 364.13,-175 364.13,-205.98 364.13,-205.98"/>
<polygon fill="black" stroke="black" points="360.63,-205.98 364.13,-215.98 367.63,-205.98 360.63,-205.98"/>
</g>
<!-- LogoNavComponent  -->
<g id="node6" class="node">
<title>LogoNavComponent </title>
<polygon fill="#fb8072" stroke="black" points="301.71,-252 164.29,-252 164.29,-216 301.71,-216 301.71,-252"/>
<text text-anchor="middle" x="233" y="-229.8" font-family="Times,serif" font-size="14.00">LogoNavComponent </text>
</g>
<!-- HeaderLoggedModule&#45;&gt;LogoNavComponent  -->
<g id="edge5" class="edge">
<title>HeaderLoggedModule&#45;&gt;LogoNavComponent </title>
<path fill="none" stroke="black" stroke-dasharray="5,2" d="M233,-187.11C233,-187.11 233,-205.99 233,-205.99"/>
<polygon fill="black" stroke="black" points="229.5,-205.99 233,-215.99 236.5,-205.99 229.5,-205.99"/>
</g>
<!-- NavComponent  -->
<g id="node7" class="node">
<title>NavComponent </title>
<polygon fill="#fb8072" stroke="black" points="146.15,-252 37.85,-252 37.85,-216 146.15,-216 146.15,-252"/>
<text text-anchor="middle" x="92" y="-229.8" font-family="Times,serif" font-size="14.00">NavComponent </text>
</g>
<!-- HeaderLoggedModule&#45;&gt;NavComponent  -->
<g id="edge6" class="edge">
<title>HeaderLoggedModule&#45;&gt;NavComponent </title>
<path fill="none" stroke="black" stroke-dasharray="5,2" d="M161.76,-175C120.97,-175 77.81,-175 77.81,-175 77.81,-175 77.81,-205.98 77.81,-205.98"/>
<polygon fill="black" stroke="black" points="74.31,-205.98 77.81,-215.98 81.31,-205.98 74.31,-205.98"/>
</g>
</g>
</svg>
