<?xml version="1.0" encoding="UTF-8" standalone="no"?>
<!DOCTYPE svg PUBLIC "-//W3C//DTD SVG 1.1//EN"
 "http://www.w3.org/Graphics/SVG/1.1/DTD/svg11.dtd">
<!-- Generated by graphviz version 2.47.0 (20210316.0004)
 -->
<!-- Title: dependencies Pages: 1 -->
<svg width="1540pt" height="284pt"
 viewBox="0.00 0.00 1540.00 284.00" xmlns="http://www.w3.org/2000/svg" xmlns:xlink="http://www.w3.org/1999/xlink">
<g id="graph0" class="graph" transform="scale(1 1) rotate(0) translate(4 280)">
<title>dependencies</title>
<polygon fill="white" stroke="transparent" points="-4,4 -4,-280 1536,-280 1536,4 -4,4"/>
<text text-anchor="start" x="745.01" y="-42.4" font-family="Times-12" font-weight="bold" font-size="14.00">Legend</text>
<polygon fill="#ffffb3" stroke="transparent" points="532,-10 532,-30 552,-30 552,-10 532,-10"/>
<text text-anchor="start" x="555.63" y="-15.4" font-family="Times-12" font-size="14.00"> &#160;Declarations</text>
<polygon fill="#8dd3c7" stroke="transparent" points="645,-10 645,-30 665,-30 665,-10 645,-10"/>
<text text-anchor="start" x="668.73" y="-15.4" font-family="Times-12" font-size="14.00"> &#160;Module</text>
<polygon fill="#80b1d3" stroke="transparent" points="731,-10 731,-30 751,-30 751,-10 731,-10"/>
<text text-anchor="start" x="754.78" y="-15.4" font-family="Times-12" font-size="14.00"> &#160;Bootstrap</text>
<polygon fill="#fdb462" stroke="transparent" points="828,-10 828,-30 848,-30 848,-10 828,-10"/>
<text text-anchor="start" x="851.67" y="-15.4" font-family="Times-12" font-size="14.00"> &#160;Providers</text>
<polygon fill="#fb8072" stroke="transparent" points="924,-10 924,-30 944,-30 944,-10 924,-10"/>
<text text-anchor="start" x="947.73" y="-15.4" font-family="Times-12" font-size="14.00"> &#160;Exports</text>
<g id="clust1" class="cluster">
<title>cluster_FormulariosModule</title>
<polygon fill="none" stroke="black" stroke-dasharray="1,5" points="8,-70 8,-268 1524,-268 1524,-70 8,-70"/>
</g>
<g id="clust13" class="cluster">
<title>cluster_FormulariosModule_exports</title>
<polygon fill="none" stroke="black" points="74,-208 74,-260 1459,-260 1459,-208 74,-208"/>
</g>
<g id="clust2" class="cluster">
<title>cluster_FormulariosModule_declarations</title>
<polygon fill="none" stroke="black" points="16,-78 16,-130 1516,-130 1516,-78 16,-78"/>
</g>
<!-- FormActivoComponent -->
<g id="node1" class="node">
<title>FormActivoComponent</title>
<polygon fill="#ffffb3" stroke="black" points="1507.77,-122 1358.23,-122 1358.23,-86 1507.77,-86 1507.77,-122"/>
<text text-anchor="middle" x="1433" y="-99.8" font-family="Times,serif" font-size="14.00">FormActivoComponent</text>
</g>
<!-- FormulariosModule -->
<g id="node10" class="node">
<title>FormulariosModule</title>
<polygon fill="#8dd3c7" stroke="black" points="854.98,-187 851.98,-191 830.98,-191 827.98,-187 727.02,-187 727.02,-151 854.98,-151 854.98,-187"/>
<text text-anchor="middle" x="791" y="-164.8" font-family="Times,serif" font-size="14.00">FormulariosModule</text>
</g>
<!-- FormActivoComponent&#45;&gt;FormulariosModule -->
<g id="edge1" class="edge">
<title>FormActivoComponent&#45;&gt;FormulariosModule</title>
<path fill="none" stroke="black" d="M1404.38,-122.11C1404.38,-141.34 1404.38,-169 1404.38,-169 1404.38,-169 865.19,-169 865.19,-169"/>
<polygon fill="black" stroke="black" points="865.19,-165.5 855.19,-169 865.19,-172.5 865.19,-165.5"/>
</g>
<!-- FormEdificioComponent -->
<g id="node2" class="node">
<title>FormEdificioComponent</title>
<polygon fill="#ffffb3" stroke="black" points="1340.27,-122 1183.73,-122 1183.73,-86 1340.27,-86 1340.27,-122"/>
<text text-anchor="middle" x="1262" y="-99.8" font-family="Times,serif" font-size="14.00">FormEdificioComponent</text>
</g>
<!-- FormEdificioComponent&#45;&gt;FormulariosModule -->
<g id="edge2" class="edge">
<title>FormEdificioComponent&#45;&gt;FormulariosModule</title>
<path fill="none" stroke="black" d="M1231.38,-122.3C1231.38,-140.27 1231.38,-165 1231.38,-165 1231.38,-165 865.03,-165 865.03,-165"/>
<polygon fill="black" stroke="black" points="865.03,-161.5 855.03,-165 865.03,-168.5 865.03,-161.5"/>
</g>
<!-- FormLaborComponent -->
<g id="node3" class="node">
<title>FormLaborComponent</title>
<polygon fill="#ffffb3" stroke="black" points="1165.59,-122 1020.41,-122 1020.41,-86 1165.59,-86 1165.59,-122"/>
<text text-anchor="middle" x="1093" y="-99.8" font-family="Times,serif" font-size="14.00">FormLaborComponent</text>
</g>
<!-- FormLaborComponent&#45;&gt;FormulariosModule -->
<g id="edge3" class="edge">
<title>FormLaborComponent&#45;&gt;FormulariosModule</title>
<path fill="none" stroke="black" d="M1060.88,-122.03C1060.88,-138.4 1060.88,-160 1060.88,-160 1060.88,-160 865.3,-160 865.3,-160"/>
<polygon fill="black" stroke="black" points="865.3,-156.5 855.3,-160 865.3,-163.5 865.3,-156.5"/>
</g>
<!-- FormOtComponent -->
<g id="node4" class="node">
<title>FormOtComponent</title>
<polygon fill="#ffffb3" stroke="black" points="1002.66,-122 877.34,-122 877.34,-86 1002.66,-86 1002.66,-122"/>
<text text-anchor="middle" x="940" y="-99.8" font-family="Times,serif" font-size="14.00">FormOtComponent</text>
</g>
<!-- FormOtComponent&#45;&gt;FormulariosModule -->
<g id="edge4" class="edge">
<title>FormOtComponent&#45;&gt;FormulariosModule</title>
<path fill="none" stroke="black" d="M905.91,-122.19C905.91,-137.18 905.91,-156 905.91,-156 905.91,-156 865.17,-156 865.17,-156"/>
<polygon fill="black" stroke="black" points="865.17,-152.5 855.17,-156 865.17,-159.5 865.17,-152.5"/>
</g>
<!-- FormPisoComponent -->
<g id="node5" class="node">
<title>FormPisoComponent</title>
<polygon fill="#ffffb3" stroke="black" points="858.78,-122 723.22,-122 723.22,-86 858.78,-86 858.78,-122"/>
<text text-anchor="middle" x="791" y="-99.8" font-family="Times,serif" font-size="14.00">FormPisoComponent</text>
</g>
<!-- FormPisoComponent&#45;&gt;FormulariosModule -->
<g id="edge5" class="edge">
<title>FormPisoComponent&#45;&gt;FormulariosModule</title>
<path fill="none" stroke="black" d="M791,-122.11C791,-122.11 791,-140.99 791,-140.99"/>
<polygon fill="black" stroke="black" points="787.5,-140.99 791,-150.99 794.5,-140.99 787.5,-140.99"/>
</g>
<!-- FormSectorComponent -->
<g id="node6" class="node">
<title>FormSectorComponent</title>
<polygon fill="#ffffb3" stroke="black" points="704.93,-122 557.07,-122 557.07,-86 704.93,-86 704.93,-122"/>
<text text-anchor="middle" x="631" y="-99.8" font-family="Times,serif" font-size="14.00">FormSectorComponent</text>
</g>
<!-- FormSectorComponent&#45;&gt;FormulariosModule -->
<g id="edge6" class="edge">
<title>FormSectorComponent&#45;&gt;FormulariosModule</title>
<path fill="none" stroke="black" d="M665.62,-122.19C665.62,-137.18 665.62,-156 665.62,-156 665.62,-156 716.84,-156 716.84,-156"/>
<polygon fill="black" stroke="black" points="716.84,-159.5 726.84,-156 716.84,-152.5 716.84,-159.5"/>
</g>
<!-- FormTareasComponent -->
<g id="node7" class="node">
<title>FormTareasComponent</title>
<polygon fill="#ffffb3" stroke="black" points="539.47,-122 390.53,-122 390.53,-86 539.47,-86 539.47,-122"/>
<text text-anchor="middle" x="465" y="-99.8" font-family="Times,serif" font-size="14.00">FormTareasComponent</text>
</g>
<!-- FormTareasComponent&#45;&gt;FormulariosModule -->
<g id="edge7" class="edge">
<title>FormTareasComponent&#45;&gt;FormulariosModule</title>
<path fill="none" stroke="black" d="M497.62,-122.03C497.62,-138.4 497.62,-160 497.62,-160 497.62,-160 716.98,-160 716.98,-160"/>
<polygon fill="black" stroke="black" points="716.98,-163.5 726.98,-160 716.98,-156.5 716.98,-163.5"/>
</g>
<!-- FormUbicacionComponent -->
<g id="node8" class="node">
<title>FormUbicacionComponent</title>
<polygon fill="#ffffb3" stroke="black" points="372.7,-122 203.3,-122 203.3,-86 372.7,-86 372.7,-122"/>
<text text-anchor="middle" x="288" y="-99.8" font-family="Times,serif" font-size="14.00">FormUbicacionComponent</text>
</g>
<!-- FormUbicacionComponent&#45;&gt;FormulariosModule -->
<g id="edge8" class="edge">
<title>FormUbicacionComponent&#45;&gt;FormulariosModule</title>
<path fill="none" stroke="black" d="M318.62,-122.3C318.62,-140.27 318.62,-165 318.62,-165 318.62,-165 716.8,-165 716.8,-165"/>
<polygon fill="black" stroke="black" points="716.8,-168.5 726.8,-165 716.8,-161.5 716.8,-168.5"/>
</g>
<!-- FormUsuariosComponent -->
<g id="node9" class="node">
<title>FormUsuariosComponent</title>
<polygon fill="#ffffb3" stroke="black" points="185.93,-122 24.07,-122 24.07,-86 185.93,-86 185.93,-122"/>
<text text-anchor="middle" x="105" y="-99.8" font-family="Times,serif" font-size="14.00">FormUsuariosComponent</text>
</g>
<!-- FormUsuariosComponent&#45;&gt;FormulariosModule -->
<g id="edge9" class="edge">
<title>FormUsuariosComponent&#45;&gt;FormulariosModule</title>
<path fill="none" stroke="black" d="M133.62,-122.11C133.62,-141.34 133.62,-169 133.62,-169 133.62,-169 716.77,-169 716.77,-169"/>
<polygon fill="black" stroke="black" points="716.77,-172.5 726.77,-169 716.77,-165.5 716.77,-172.5"/>
</g>
<!-- FormActivoComponent  -->
<g id="node11" class="node">
<title>FormActivoComponent </title>
<polygon fill="#fb8072" stroke="black" points="1450.77,-252 1297.23,-252 1297.23,-216 1450.77,-216 1450.77,-252"/>
<text text-anchor="middle" x="1374" y="-229.8" font-family="Times,serif" font-size="14.00">FormActivoComponent </text>
</g>
<!-- FormulariosModule&#45;&gt;FormActivoComponent  -->
<g id="edge10" class="edge">
<title>FormulariosModule&#45;&gt;FormActivoComponent </title>
<path fill="none" stroke="black" stroke-dasharray="5,2" d="M855.2,-174C995.88,-174 1318.87,-174 1318.87,-174 1318.87,-174 1318.87,-206 1318.87,-206"/>
<polygon fill="black" stroke="black" points="1315.37,-206 1318.87,-216 1322.37,-206 1315.37,-206"/>
</g>
<!-- FormEdificioComponent  -->
<g id="node12" class="node">
<title>FormEdificioComponent </title>
<polygon fill="#fb8072" stroke="black" points="1279.27,-252 1118.73,-252 1118.73,-216 1279.27,-216 1279.27,-252"/>
<text text-anchor="middle" x="1199" y="-229.8" font-family="Times,serif" font-size="14.00">FormEdificioComponent </text>
</g>
<!-- FormulariosModule&#45;&gt;FormEdificioComponent  -->
<g id="edge11" class="edge">
<title>FormulariosModule&#45;&gt;FormEdificioComponent </title>
<path fill="none" stroke="black" stroke-dasharray="5,2" d="M855.01,-178C956.31,-178 1142.21,-178 1142.21,-178 1142.21,-178 1142.21,-205.97 1142.21,-205.97"/>
<polygon fill="black" stroke="black" points="1138.71,-205.97 1142.21,-215.97 1145.71,-205.97 1138.71,-205.97"/>
</g>
<!-- FormLaborComponent  -->
<g id="node13" class="node">
<title>FormLaborComponent </title>
<polygon fill="#fb8072" stroke="black" points="1101.09,-252 952.91,-252 952.91,-216 1101.09,-216 1101.09,-252"/>
<text text-anchor="middle" x="1027" y="-229.8" font-family="Times,serif" font-size="14.00">FormLaborComponent </text>
</g>
<!-- FormulariosModule&#45;&gt;FormLaborComponent  -->
<g id="edge12" class="edge">
<title>FormulariosModule&#45;&gt;FormLaborComponent </title>
<path fill="none" stroke="black" stroke-dasharray="5,2" d="M855.01,-183C909.08,-183 977.77,-183 977.77,-183 977.77,-183 977.77,-205.88 977.77,-205.88"/>
<polygon fill="black" stroke="black" points="974.27,-205.88 977.77,-215.88 981.27,-205.88 974.27,-205.88"/>
</g>
<!-- FormPisoComponent  -->
<g id="node14" class="node">
<title>FormPisoComponent </title>
<polygon fill="#fb8072" stroke="black" points="934.78,-252 795.22,-252 795.22,-216 934.78,-216 934.78,-252"/>
<text text-anchor="middle" x="865" y="-229.8" font-family="Times,serif" font-size="14.00">FormPisoComponent </text>
</g>
<!-- FormulariosModule&#45;&gt;FormPisoComponent  -->
<g id="edge13" class="edge">
<title>FormulariosModule&#45;&gt;FormPisoComponent </title>
<path fill="none" stroke="black" stroke-dasharray="5,2" d="M825.18,-187.11C825.18,-187.11 825.18,-205.99 825.18,-205.99"/>
<polygon fill="black" stroke="black" points="821.68,-205.99 825.18,-215.99 828.68,-205.99 821.68,-205.99"/>
</g>
<!-- FormSectorComponent  -->
<g id="node15" class="node">
<title>FormSectorComponent </title>
<polygon fill="#fb8072" stroke="black" points="777.43,-252 626.57,-252 626.57,-216 777.43,-216 777.43,-252"/>
<text text-anchor="middle" x="702" y="-229.8" font-family="Times,serif" font-size="14.00">FormSectorComponent </text>
</g>
<!-- FormulariosModule&#45;&gt;FormSectorComponent  -->
<g id="edge14" class="edge">
<title>FormulariosModule&#45;&gt;FormSectorComponent </title>
<path fill="none" stroke="black" stroke-dasharray="5,2" d="M752.24,-187.11C752.24,-187.11 752.24,-205.99 752.24,-205.99"/>
<polygon fill="black" stroke="black" points="748.74,-205.99 752.24,-215.99 755.74,-205.99 748.74,-205.99"/>
</g>
<!-- FormTareasComponent  -->
<g id="node16" class="node">
<title>FormTareasComponent </title>
<polygon fill="#fb8072" stroke="black" points="608.47,-252 455.53,-252 455.53,-216 608.47,-216 608.47,-252"/>
<text text-anchor="middle" x="532" y="-229.8" font-family="Times,serif" font-size="14.00">FormTareasComponent </text>
</g>
<!-- FormulariosModule&#45;&gt;FormTareasComponent  -->
<g id="edge15" class="edge">
<title>FormulariosModule&#45;&gt;FormTareasComponent </title>
<path fill="none" stroke="black" stroke-dasharray="5,2" d="M726.82,-183C665.64,-183 582.76,-183 582.76,-183 582.76,-183 582.76,-205.88 582.76,-205.88"/>
<polygon fill="black" stroke="black" points="579.26,-205.88 582.76,-215.88 586.26,-205.88 579.26,-205.88"/>
</g>
<!-- FormUbicacionComponent  -->
<g id="node17" class="node">
<title>FormUbicacionComponent </title>
<polygon fill="#fb8072" stroke="black" points="437.2,-252 264.8,-252 264.8,-216 437.2,-216 437.2,-252"/>
<text text-anchor="middle" x="351" y="-229.8" font-family="Times,serif" font-size="14.00">FormUbicacionComponent </text>
</g>
<!-- FormulariosModule&#45;&gt;FormUbicacionComponent  -->
<g id="edge16" class="edge">
<title>FormulariosModule&#45;&gt;FormUbicacionComponent </title>
<path fill="none" stroke="black" stroke-dasharray="5,2" d="M726.61,-178C618.91,-178 413.93,-178 413.93,-178 413.93,-178 413.93,-205.97 413.93,-205.97"/>
<polygon fill="black" stroke="black" points="410.43,-205.97 413.93,-215.97 417.43,-205.97 410.43,-205.97"/>
</g>
<!-- FormUsuariosComponent  -->
<g id="node18" class="node">
<title>FormUsuariosComponent </title>
<polygon fill="#fb8072" stroke="black" points="246.43,-252 81.57,-252 81.57,-216 246.43,-216 246.43,-252"/>
<text text-anchor="middle" x="164" y="-229.8" font-family="Times,serif" font-size="14.00">FormUsuariosComponent </text>
</g>
<!-- FormulariosModule&#45;&gt;FormUsuariosComponent  -->
<g id="edge17" class="edge">
<title>FormulariosModule&#45;&gt;FormUsuariosComponent </title>
<path fill="none" stroke="black" stroke-dasharray="5,2" d="M726.89,-174C578.69,-174 224.93,-174 224.93,-174 224.93,-174 224.93,-206 224.93,-206"/>
<polygon fill="black" stroke="black" points="221.43,-206 224.93,-216 228.43,-206 221.43,-206"/>
</g>
</g>
</svg>
