<?xml version="1.0" encoding="UTF-8" standalone="no"?>
<!DOCTYPE svg PUBLIC "-//W3C//DTD SVG 1.1//EN"
 "http://www.w3.org/Graphics/SVG/1.1/DTD/svg11.dtd">
<!-- Generated by graphviz version 2.47.0 (20210316.0004)
 -->
<!-- Title: dependencies Pages: 1 -->
<svg width="624pt" height="284pt"
 viewBox="0.00 0.00 624.00 284.00" xmlns="http://www.w3.org/2000/svg" xmlns:xlink="http://www.w3.org/1999/xlink">
<g id="graph0" class="graph" transform="scale(1 1) rotate(0) translate(4 280)">
<title>dependencies</title>
<polygon fill="white" stroke="transparent" points="-4,4 -4,-280 620,-280 620,4 -4,4"/>
<text text-anchor="start" x="287.01" y="-42.4" font-family="Times-12" font-weight="bold" font-size="14.00">Legend</text>
<polygon fill="#ffffb3" stroke="transparent" points="74,-10 74,-30 94,-30 94,-10 74,-10"/>
<text text-anchor="start" x="97.63" y="-15.4" font-family="Times-12" font-size="14.00"> &#160;Declarations</text>
<polygon fill="#8dd3c7" stroke="transparent" points="187,-10 187,-30 207,-30 207,-10 187,-10"/>
<text text-anchor="start" x="210.73" y="-15.4" font-family="Times-12" font-size="14.00"> &#160;Module</text>
<polygon fill="#80b1d3" stroke="transparent" points="273,-10 273,-30 293,-30 293,-10 273,-10"/>
<text text-anchor="start" x="296.78" y="-15.4" font-family="Times-12" font-size="14.00"> &#160;Bootstrap</text>
<polygon fill="#fdb462" stroke="transparent" points="370,-10 370,-30 390,-30 390,-10 370,-10"/>
<text text-anchor="start" x="393.67" y="-15.4" font-family="Times-12" font-size="14.00"> &#160;Providers</text>
<polygon fill="#fb8072" stroke="transparent" points="466,-10 466,-30 486,-30 486,-10 466,-10"/>
<text text-anchor="start" x="489.73" y="-15.4" font-family="Times-12" font-size="14.00"> &#160;Exports</text>
<g id="clust1" class="cluster">
<title>cluster_OrdenTrabajoModule</title>
<polygon fill="none" stroke="black" stroke-dasharray="1,5" points="8,-70 8,-268 608,-268 608,-70 8,-70"/>
</g>
<g id="clust2" class="cluster">
<title>cluster_OrdenTrabajoModule_declarations</title>
<polygon fill="none" stroke="black" points="24,-78 24,-130 594,-130 594,-78 24,-78"/>
</g>
<g id="clust8" class="cluster">
<title>cluster_OrdenTrabajoModule_exports</title>
<polygon fill="none" stroke="black" points="16,-208 16,-260 600,-260 600,-208 16,-208"/>
</g>
<!-- CuerpoComponent -->
<g id="node1" class="node">
<title>CuerpoComponent</title>
<polygon fill="#ffffb3" stroke="black" points="586.05,-122 463.95,-122 463.95,-86 586.05,-86 586.05,-122"/>
<text text-anchor="middle" x="525" y="-99.8" font-family="Times,serif" font-size="14.00">CuerpoComponent</text>
</g>
<!-- OrdenTrabajoModule -->
<g id="node5" class="node">
<title>OrdenTrabajoModule</title>
<polygon fill="#8dd3c7" stroke="black" points="309.06,-187 306.06,-191 285.06,-191 282.06,-187 170.94,-187 170.94,-151 309.06,-151 309.06,-187"/>
<text text-anchor="middle" x="240" y="-164.8" font-family="Times,serif" font-size="14.00">OrdenTrabajoModule</text>
</g>
<!-- CuerpoComponent&#45;&gt;OrdenTrabajoModule -->
<g id="edge1" class="edge">
<title>CuerpoComponent&#45;&gt;OrdenTrabajoModule</title>
<path fill="none" stroke="black" d="M546.17,-122.27C546.17,-140.56 546.17,-166 546.17,-166 546.17,-166 319.09,-166 319.09,-166"/>
<polygon fill="black" stroke="black" points="319.09,-162.5 309.09,-166 319.09,-169.5 319.09,-162.5"/>
</g>
<!-- FechasComponent -->
<g id="node2" class="node">
<title>FechasComponent</title>
<polygon fill="#ffffb3" stroke="black" points="446.2,-122 325.8,-122 325.8,-86 446.2,-86 446.2,-122"/>
<text text-anchor="middle" x="386" y="-99.8" font-family="Times,serif" font-size="14.00">FechasComponent</text>
</g>
<!-- FechasComponent&#45;&gt;OrdenTrabajoModule -->
<g id="edge2" class="edge">
<title>FechasComponent&#45;&gt;OrdenTrabajoModule</title>
<path fill="none" stroke="black" d="M406.03,-122.01C406.03,-138.05 406.03,-159 406.03,-159 406.03,-159 319.45,-159 319.45,-159"/>
<polygon fill="black" stroke="black" points="319.45,-155.5 309.45,-159 319.45,-162.5 319.45,-155.5"/>
</g>
<!-- SelectoresComponent -->
<g id="node3" class="node">
<title>SelectoresComponent</title>
<polygon fill="#ffffb3" stroke="black" points="307.36,-122 168.64,-122 168.64,-86 307.36,-86 307.36,-122"/>
<text text-anchor="middle" x="238" y="-99.8" font-family="Times,serif" font-size="14.00">SelectoresComponent</text>
</g>
<!-- SelectoresComponent&#45;&gt;OrdenTrabajoModule -->
<g id="edge3" class="edge">
<title>SelectoresComponent&#45;&gt;OrdenTrabajoModule</title>
<path fill="none" stroke="black" d="M239.2,-122.11C239.2,-122.11 239.2,-140.99 239.2,-140.99"/>
<polygon fill="black" stroke="black" points="235.7,-140.99 239.2,-150.99 242.7,-140.99 235.7,-140.99"/>
</g>
<!-- TareasComponent -->
<g id="node4" class="node">
<title>TareasComponent</title>
<polygon fill="#ffffb3" stroke="black" points="150.13,-122 31.87,-122 31.87,-86 150.13,-86 150.13,-122"/>
<text text-anchor="middle" x="91" y="-99.8" font-family="Times,serif" font-size="14.00">TareasComponent</text>
</g>
<!-- TareasComponent&#45;&gt;OrdenTrabajoModule -->
<g id="edge4" class="edge">
<title>TareasComponent&#45;&gt;OrdenTrabajoModule</title>
<path fill="none" stroke="black" d="M107.94,-122.02C107.94,-139.37 107.94,-163 107.94,-163 107.94,-163 160.88,-163 160.88,-163"/>
<polygon fill="black" stroke="black" points="160.88,-166.5 170.88,-163 160.88,-159.5 160.88,-166.5"/>
</g>
<!-- CuerpoComponent  -->
<g id="node6" class="node">
<title>CuerpoComponent </title>
<polygon fill="#fb8072" stroke="black" points="592.04,-252 465.96,-252 465.96,-216 592.04,-216 592.04,-252"/>
<text text-anchor="middle" x="529" y="-229.8" font-family="Times,serif" font-size="14.00">CuerpoComponent </text>
</g>
<!-- OrdenTrabajoModule&#45;&gt;CuerpoComponent  -->
<g id="edge5" class="edge">
<title>OrdenTrabajoModule&#45;&gt;CuerpoComponent </title>
<path fill="none" stroke="black" stroke-dasharray="5,2" d="M309.21,-173C388.05,-173 506.08,-173 506.08,-173 506.08,-173 506.08,-205.7 506.08,-205.7"/>
<polygon fill="black" stroke="black" points="502.58,-205.7 506.08,-215.7 509.58,-205.7 502.58,-205.7"/>
</g>
<!-- FechasComponent  -->
<g id="node7" class="node">
<title>FechasComponent </title>
<polygon fill="#fb8072" stroke="black" points="447.7,-252 324.3,-252 324.3,-216 447.7,-216 447.7,-252"/>
<text text-anchor="middle" x="386" y="-229.8" font-family="Times,serif" font-size="14.00">FechasComponent </text>
</g>
<!-- OrdenTrabajoModule&#45;&gt;FechasComponent  -->
<g id="edge6" class="edge">
<title>OrdenTrabajoModule&#45;&gt;FechasComponent </title>
<path fill="none" stroke="black" stroke-dasharray="5,2" d="M309.25,-180C338.52,-180 365.97,-180 365.97,-180 365.97,-180 365.97,-205.72 365.97,-205.72"/>
<polygon fill="black" stroke="black" points="362.47,-205.72 365.97,-215.72 369.47,-205.72 362.47,-205.72"/>
</g>
<!-- SelectoresComponent  -->
<g id="node8" class="node">
<title>SelectoresComponent </title>
<polygon fill="#fb8072" stroke="black" points="306.36,-252 163.64,-252 163.64,-216 306.36,-216 306.36,-252"/>
<text text-anchor="middle" x="235" y="-229.8" font-family="Times,serif" font-size="14.00">SelectoresComponent </text>
</g>
<!-- OrdenTrabajoModule&#45;&gt;SelectoresComponent  -->
<g id="edge7" class="edge">
<title>OrdenTrabajoModule&#45;&gt;SelectoresComponent </title>
<path fill="none" stroke="black" stroke-dasharray="5,2" d="M238.57,-187.11C238.57,-187.11 238.57,-205.99 238.57,-205.99"/>
<polygon fill="black" stroke="black" points="235.07,-205.99 238.57,-215.99 242.07,-205.99 235.07,-205.99"/>
</g>
<!-- TareasComponent  -->
<g id="node9" class="node">
<title>TareasComponent </title>
<polygon fill="#fb8072" stroke="black" points="146.13,-252 23.87,-252 23.87,-216 146.13,-216 146.13,-252"/>
<text text-anchor="middle" x="85" y="-229.8" font-family="Times,serif" font-size="14.00">TareasComponent </text>
</g>
<!-- OrdenTrabajoModule&#45;&gt;TareasComponent  -->
<g id="edge8" class="edge">
<title>OrdenTrabajoModule&#45;&gt;TareasComponent </title>
<path fill="none" stroke="black" stroke-dasharray="5,2" d="M170.78,-175C123.66,-175 69.81,-175 69.81,-175 69.81,-175 69.81,-205.98 69.81,-205.98"/>
<polygon fill="black" stroke="black" points="66.31,-205.98 69.81,-215.98 73.31,-205.98 66.31,-205.98"/>
</g>
</g>
</svg>
