<?xml version="1.0" standalone="no"?>
<!DOCTYPE svg PUBLIC "-//W3C//DTD SVG 20010904//EN"
 "http://www.w3.org/TR/2001/REC-SVG-20010904/DTD/svg10.dtd">
<svg version="1.0" xmlns="http://www.w3.org/2000/svg"
 width="1400.000000pt" height="1000.000000pt" viewBox="0 0 1400.000000 1000.000000"
 preserveAspectRatio="xMidYMid meet">

<g transform="translate(0.000000,1000.000000) scale(0.100000,-0.100000)"
fill="#000000" stroke="none">
<path d="M7740 8579 c-18 -32 -2 -36 28 -6 26 26 26 27 5 27 -12 0 -27 -9 -33
-21z"/>
<path d="M8585 8578 c-23 -33 1 -36 33 -4 26 25 26 26 5 26 -12 0 -29 -10 -38
-22z"/>
<path d="M10100 8480 c0 -112 1 -120 20 -120 17 0 19 8 22 68 3 64 4 67 28 67
24 0 25 -3 28 -67 3 -60 5 -68 22 -68 18 0 20 7 20 69 0 84 -15 106 -67 98
-33 -6 -33 -5 -33 34 0 32 -3 39 -20 39 -19 0 -20 -7 -20 -120z"/>
<path d="M7319 8575 c-46 -25 -63 -109 -34 -165 17 -34 43 -50 78 -50 13 0 36
-9 50 -20 20 -16 27 -17 35 -7 8 9 6 16 -9 26 -20 12 -20 13 -3 32 9 10 19 41
22 67 9 102 -60 160 -139 117z m81 -35 c25 -25 27 -95 4 -128 -21 -30 -59 -29
-80 3 -21 33 -14 113 12 132 25 18 41 16 64 -7z"/>
<path d="M8440 8576 c0 -8 4 -17 8 -20 13 -8 35 11 28 23 -10 16 -36 14 -36
-3z"/>
<path d="M9322 8573 c2 -10 10 -18 18 -18 22 0 18 29 -3 33 -14 3 -18 -1 -15
-15z"/>
<path d="M10924 8582 c-6 -4 -16 -17 -23 -29 -10 -20 -9 -23 5 -23 10 0 25 7
35 16 21 19 49 12 49 -12 0 -9 -11 -29 -25 -46 -27 -32 -33 -58 -12 -58 17 0
77 79 77 102 0 41 -70 74 -106 50z"/>
<path d="M7164 8519 c-3 -6 -2 -15 4 -21 13 -13 32 -2 32 18 0 16 -26 19 -36
3z"/>
<path d="M7500 8456 c0 -47 5 -77 13 -84 6 -6 38 -10 70 -10 l58 1 -3 81 c-2
67 -6 81 -20 84 -14 3 -18 -7 -20 -65 l-3 -68 -30 0 -30 0 -3 68 c-2 51 -6 67
-17 67 -12 0 -15 -16 -15 -74z"/>
<path d="M7695 8505 c-51 -50 -18 -145 49 -145 41 0 76 24 60 40 -8 8 -14 9
-18 1 -14 -23 -76 -6 -76 20 0 5 24 9 53 11 50 3 52 4 50 32 -5 64 -72 88
-118 41z m75 -9 c0 -2 3 -11 6 -20 5 -13 -1 -16 -30 -16 -39 0 -39 0 -30 24 5
14 54 24 54 12z"/>
<path d="M7948 8519 c-10 -5 -18 -17 -18 -24 0 -17 26 -20 35 -5 3 6 17 10 31
10 17 0 24 -5 24 -20 0 -15 -7 -20 -28 -20 -35 0 -72 -26 -72 -50 0 -34 27
-49 85 -48 l55 2 0 66 c0 52 -4 71 -18 83 -21 19 -68 22 -94 6z m70 -101 c-4
-31 -58 -40 -58 -10 0 25 8 32 37 32 20 0 24 -5 21 -22z"/>
<path d="M8120 8512 c-13 -10 -23 -33 -27 -57 -7 -55 24 -95 73 -95 35 0 80
32 69 50 -9 15 -32 12 -39 -5 -7 -20 -52 -19 -60 1 -10 26 -7 69 6 82 17 17
47 15 54 -3 9 -22 45 -20 37 3 -15 43 -74 56 -113 24z"/>
<path d="M8281 8504 c-44 -56 -12 -144 53 -144 32 0 66 25 66 48 0 18 -27 14
-34 -4 -4 -10 -15 -14 -33 -12 -24 3 -28 8 -31 41 -2 21 2 45 9 53 15 18 45
18 53 -1 7 -19 36 -20 36 -2 0 23 -35 47 -68 47 -21 0 -37 -8 -51 -26z"/>
<path d="M8440 8445 c0 -69 3 -85 15 -85 12 0 15 16 15 85 0 69 -3 85 -15 85
-12 0 -15 -16 -15 -85z"/>
<path d="M8535 8505 c-49 -48 -18 -145 46 -145 43 0 65 15 78 52 31 88 -61
157 -124 93z m87 -30 c16 -36 0 -79 -31 -83 -27 -4 -41 12 -41 50 0 41 10 58
36 58 16 0 28 -8 36 -25z"/>
<path d="M8700 8443 c0 -76 2 -83 20 -83 17 0 19 8 22 68 3 64 4 67 28 67 24
0 25 -3 28 -67 3 -60 5 -68 22 -68 18 0 20 7 20 68 0 86 -13 100 -87 99 l-53
-1 0 -83z"/>
<path d="M8983 8522 c-31 -21 -42 -82 -21 -126 13 -29 39 -40 74 -32 22 6 24
3 24 -29 0 -28 4 -35 20 -35 19 0 20 7 20 114 l0 113 -53 1 c-30 0 -58 -3 -64
-6z m72 -77 c0 -45 -2 -50 -24 -53 -27 -4 -41 12 -41 50 0 44 10 59 39 56 24
-3 26 -6 26 -53z"/>
<path d="M9140 8456 c0 -47 5 -77 13 -84 6 -6 38 -10 70 -10 l57 1 0 83 c0 77
-2 84 -20 84 -17 0 -19 -8 -22 -67 -3 -63 -5 -68 -27 -71 -32 -5 -41 12 -41
81 0 44 -3 57 -15 57 -12 0 -15 -15 -15 -74z"/>
<path d="M9320 8445 c0 -78 2 -85 20 -85 18 0 20 7 20 85 0 78 -2 85 -20 85
-18 0 -20 -7 -20 -85z"/>
<path d="M9419 8511 c-19 -15 -24 -29 -24 -66 0 -37 5 -51 24 -66 26 -21 81
-25 99 -7 21 21 13 29 -23 22 -22 -4 -41 -2 -50 6 -27 22 -16 30 40 30 49 0
55 2 55 21 0 23 -18 60 -34 71 -20 14 -64 8 -87 -11z m79 -33 c3 -15 -4 -18
-32 -18 -38 0 -44 8 -24 28 17 17 52 11 56 -10z"/>
<path d="M9570 8444 c0 -77 2 -84 20 -84 18 0 20 7 20 65 0 65 5 72 43 66 4 0
7 8 7 18 0 16 -7 19 -45 19 l-45 0 0 -84z"/>
<path d="M9702 8507 c-31 -33 -30 -96 1 -125 25 -24 66 -28 98 -12 32 18 21
28 -28 27 -37 -2 -48 2 -51 15 -3 14 6 17 50 20 52 3 53 3 50 33 -2 17 -11 38
-19 48 -23 25 -75 22 -101 -6z m78 -11 c0 -2 3 -11 6 -20 5 -13 -1 -16 -30
-16 -34 0 -47 15 -29 33 7 8 53 10 53 3z"/>
<path d="M9870 8510 c-11 -11 -20 -24 -20 -28 0 -18 27 -40 63 -52 20 -6 37
-17 37 -25 0 -22 -30 -26 -61 -8 -35 21 -49 11 -24 -17 27 -30 90 -27 110 4
22 34 7 59 -44 75 -41 12 -54 34 -27 44 7 3 23 -1 35 -9 12 -9 29 -14 39 -12
15 3 14 6 -6 26 -28 28 -75 29 -102 2z"/>
<path d="M10296 8514 c-9 -8 -16 -20 -16 -25 0 -12 27 -12 35 1 3 6 17 10 31
10 17 0 24 -5 24 -20 0 -15 -7 -20 -28 -20 -35 0 -72 -25 -72 -49 0 -32 31
-49 90 -49 l55 1 -3 66 c-3 42 -9 72 -19 84 -20 21 -76 22 -97 1z m72 -96 c-4
-28 -45 -38 -55 -13 -7 19 12 35 40 35 13 0 18 -6 15 -22z"/>
<path d="M10470 8510 c-11 -11 -21 -28 -21 -37 -6 -74 17 -113 66 -113 34 0
75 27 75 50 0 15 -26 12 -40 -5 -40 -48 -91 17 -60 76 13 23 48 25 56 4 7 -17
44 -21 44 -5 0 21 -41 50 -70 50 -17 0 -39 -9 -50 -20z"/>
<path d="M10639 8511 c-19 -15 -24 -29 -24 -66 0 -37 5 -51 24 -66 26 -21 81
-25 99 -7 21 21 13 29 -23 22 -22 -4 -41 -2 -50 6 -27 22 -16 30 40 30 49 0
55 2 55 21 0 23 -18 60 -34 71 -20 14 -64 8 -87 -11z m79 -33 c3 -15 -4 -18
-32 -18 -38 0 -44 8 -24 28 17 17 52 11 56 -10z"/>
<path d="M10790 8444 c0 -77 2 -84 20 -84 18 0 20 7 20 64 0 60 2 64 25 70 44
11 30 34 -20 34 l-45 0 0 -84z"/>
<path d="M7160 8449 c0 -6 -11 -24 -25 -41 -30 -36 -32 -61 -5 -88 29 -29 74
-26 100 8 19 24 20 27 5 30 -9 2 -25 -4 -35 -13 -11 -10 -26 -15 -35 -12 -22
9 -18 42 10 75 30 36 32 52 5 52 -11 0 -20 -5 -20 -11z"/>
<path d="M10940 8380 c0 -15 5 -20 18 -18 9 2 17 10 17 18 0 8 -8 16 -17 18
-13 2 -18 -3 -18 -18z"/>
<path d="M7420 7719 c0 -5 5 -11 10 -14 6 -3 10 0 10 7 0 8 3 9 8 3 4 -5 16
-11 27 -12 11 -1 14 0 7 3 -6 3 -10 9 -8 12 2 4 -9 7 -25 7 -16 1 -29 -2 -29
-6z"/>
<path d="M7508 7703 c7 -3 16 -2 19 1 4 3 -2 6 -13 5 -11 0 -14 -3 -6 -6z"/>
<path d="M7325 7681 c-3 -5 -2 -12 3 -15 5 -3 9 1 9 9 0 17 -3 19 -12 6z"/>
<path d="M4508 7673 c7 -3 16 -2 19 1 4 3 -2 6 -13 5 -11 0 -14 -3 -6 -6z"/>
<path d="M7607 7669 c7 -9 10 -19 6 -23 -4 -4 1 -4 10 0 10 3 17 7 15 8 -2 1
-12 8 -23 16 -18 14 -19 13 -8 -1z"/>
<path d="M4685 7645 c0 -13 4 -21 9 -17 5 3 7 -2 3 -11 -3 -10 -2 -17 2 -17 5
0 11 7 15 15 3 8 1 15 -4 15 -6 0 -10 6 -10 14 0 8 -3 17 -7 19 -5 3 -8 -5 -8
-18z"/>
<path d="M7260 7648 c-12 -22 -12 -22 6 -6 10 10 15 20 12 24 -4 3 -12 -5 -18
-18z"/>
<path d="M7623 7630 c-13 -5 -23 -12 -23 -15 0 -4 4 -4 9 -1 5 4 12 0 14 -6 4
-10 6 -10 6 0 1 7 5 11 9 8 5 -3 9 1 9 9 0 8 -1 15 -1 14 -1 0 -11 -4 -23 -9z"/>
<path d="M8820 7520 c0 -100 3 -120 15 -120 13 0 15 20 15 120 0 100 -2 120
-15 120 -12 0 -15 -20 -15 -120z"/>
<path d="M8900 7520 c0 -100 3 -120 15 -120 13 0 15 20 15 120 0 100 -2 120
-15 120 -12 0 -15 -20 -15 -120z"/>
<path d="M9330 7601 c0 -34 -3 -38 -20 -34 -68 18 -112 -57 -78 -131 13 -30
28 -36 86 -34 l42 2 0 118 c0 98 -3 118 -15 118 -11 0 -15 -11 -15 -39z m-16
-57 c12 -5 16 -20 16 -60 0 -49 -2 -54 -25 -60 -34 -9 -55 11 -55 53 0 60 22
83 64 67z"/>
<path d="M9580 7520 c0 -100 3 -120 15 -120 13 0 15 20 15 120 0 100 -2 120
-15 120 -12 0 -15 -20 -15 -120z"/>
<path d="M4308 7623 c7 -3 16 -2 19 1 4 3 -2 6 -13 5 -11 0 -14 -3 -6 -6z"/>
<path d="M8170 7515 l0 -115 40 0 c77 0 120 41 120 115 0 72 -47 115 -124 115
l-36 0 0 -115z m114 63 c9 -12 16 -42 16 -66 0 -50 -34 -92 -75 -92 -25 0 -25
0 -25 90 l0 90 34 0 c25 0 39 -7 50 -22z"/>
<path d="M10187 7623 c-12 -11 -8 -23 8 -23 8 0 15 7 15 15 0 16 -12 20 -23 8z"/>
<path d="M4288 7603 c7 -3 16 -2 19 1 4 3 -2 6 -13 5 -11 0 -14 -3 -6 -6z"/>
<path d="M7328 7603 c6 -2 10 -9 6 -14 -3 -5 5 -9 17 -9 22 0 22 0 3 15 -10 8
-23 14 -29 14 -5 0 -4 -3 3 -6z"/>
<path d="M8550 7590 c0 -11 -7 -20 -15 -20 -8 0 -15 -4 -15 -10 0 -5 7 -10 15
-10 12 0 15 -13 15 -56 0 -64 13 -94 40 -94 23 0 27 15 5 24 -11 4 -15 21 -15
66 0 47 3 60 15 60 8 0 15 5 15 10 0 6 -7 10 -15 10 -8 0 -15 9 -15 20 0 11
-7 20 -15 20 -8 0 -15 -9 -15 -20z"/>
<path d="M10090 7590 c0 -11 -7 -20 -15 -20 -8 0 -15 -4 -15 -10 0 -5 7 -10
15 -10 11 0 15 -17 17 -72 3 -71 4 -73 31 -76 15 -2 27 1 27 7 0 6 -6 11 -14
11 -18 0 -26 22 -26 77 0 36 4 46 20 50 11 3 20 9 20 14 0 5 -9 9 -20 9 -13 0
-20 7 -20 20 0 11 -4 20 -10 20 -5 0 -10 -9 -10 -20z"/>
<path d="M7548 7593 c7 -3 16 -2 19 1 4 3 -2 6 -13 5 -11 0 -14 -3 -6 -6z"/>
<path d="M4633 7583 c9 -2 23 -2 30 0 6 3 -1 5 -18 5 -16 0 -22 -2 -12 -5z"/>
<path d="M7488 7573 c6 -2 18 -2 25 0 6 3 1 5 -13 5 -14 0 -19 -2 -12 -5z"/>
<path d="M7415 7561 c-3 -6 3 -15 14 -20 15 -8 20 -7 25 5 5 12 1 14 -15 9
-15 -5 -19 -4 -15 4 4 6 5 11 2 11 -3 0 -7 -4 -11 -9z"/>
<path d="M8390 7548 c-27 -30 -28 -100 0 -128 24 -24 82 -27 100 -5 16 19 5
34 -12 17 -19 -19 -55 -14 -72 10 -22 31 -12 38 50 38 46 0 54 3 54 19 0 10
-9 30 -21 45 -26 33 -70 35 -99 4z m78 -10 c24 -24 13 -38 -28 -38 -26 0 -40
5 -40 13 0 18 21 37 40 37 9 0 21 -5 28 -12z"/>
<path d="M8668 7559 c-18 -10 -25 -39 -9 -39 5 0 14 7 21 15 15 18 42 19 58 3
23 -23 13 -38 -23 -38 -36 0 -75 -28 -75 -53 0 -28 34 -46 86 -45 l51 1 -5 71
c-2 39 -9 77 -14 84 -12 14 -66 15 -90 1z m82 -99 c0 -24 -34 -43 -60 -35 -22
7 -27 40 -7 48 6 3 24 6 40 6 20 1 27 -4 27 -19z"/>
<path d="M8995 7545 c-49 -48 -18 -145 46 -145 36 0 72 17 64 31 -4 6 -13 5
-25 -1 -26 -14 -46 -12 -64 6 -31 31 -20 44 39 44 51 0 55 2 55 23 0 64 -69
89 -115 42z m73 -7 c24 -24 13 -38 -28 -38 -43 0 -45 2 -30 31 12 21 40 25 58
7z"/>
<path d="M9425 7545 c-49 -48 -18 -145 46 -145 36 0 72 17 64 31 -4 6 -13 5
-25 -1 -26 -14 -46 -12 -64 6 -31 31 -20 44 39 44 51 0 55 2 55 23 0 64 -69
89 -115 42z m73 -7 c24 -24 13 -38 -28 -38 -43 0 -45 2 -30 31 12 21 40 25 58
7z"/>
<path d="M9758 7559 c-18 -10 -25 -39 -9 -39 5 0 14 7 21 15 19 23 54 15 58
-12 3 -19 -1 -23 -26 -23 -16 0 -40 -9 -53 -19 -20 -16 -22 -23 -14 -47 10
-27 14 -29 70 -30 l60 -1 -5 74 c-3 50 -10 77 -20 83 -20 13 -60 12 -82 -1z
m72 -104 c0 -18 -7 -26 -24 -31 -30 -7 -46 1 -46 25 0 24 9 31 42 31 23 0 28
-4 28 -25z"/>
<path d="M9921 7544 c-44 -56 -12 -144 53 -144 29 0 66 24 66 43 0 14 -28 7
-34 -8 -8 -22 -53 -19 -66 4 -5 11 -10 32 -10 46 0 60 43 85 77 45 20 -24 33
-26 33 -6 0 21 -39 46 -71 46 -18 0 -35 -9 -48 -26z"/>
<path d="M10180 7485 c0 -69 3 -85 15 -85 12 0 15 16 15 85 0 69 -3 85 -15 85
-12 0 -15 -16 -15 -85z"/>
<path d="M10273 7485 c17 -47 36 -85 42 -85 12 0 70 158 61 167 -10 11 -22 -9
-41 -65 -9 -30 -21 -50 -25 -45 -4 4 -15 32 -25 61 -9 28 -22 52 -30 52 -9 0
-3 -25 18 -85z"/>
<path d="M10437 7558 c-42 -33 -41 -125 3 -148 74 -39 146 41 106 118 -22 43
-73 57 -109 30z m75 -25 c34 -31 11 -113 -32 -113 -22 0 -50 36 -50 65 0 28
27 65 47 65 9 0 25 -7 35 -17z"/>
<path d="M4340 7556 c0 -2 7 -7 16 -10 8 -3 12 -2 9 4 -6 10 -25 14 -25 6z"/>
<path d="M4105 7530 c-3 -5 -1 -10 4 -10 6 0 11 5 11 10 0 6 -2 10 -4 10 -3 0
-8 -4 -11 -10z"/>
<path d="M7251 7524 c0 -11 3 -14 6 -6 3 7 2 16 -1 19 -3 4 -6 -2 -5 -13z"/>
<path d="M4063 7505 c0 -8 4 -15 9 -15 4 0 8 4 8 9 0 6 -4 12 -8 15 -5 3 -9
-1 -9 -9z"/>
<path d="M7611 7504 c0 -11 3 -14 6 -6 3 7 2 16 -1 19 -3 4 -6 -2 -5 -13z"/>
<path d="M7564 7498 c4 -14 -1 -18 -22 -19 -25 -2 -25 -2 -3 -6 29 -6 44 7 30
27 -9 13 -10 12 -5 -2z"/>
<path d="M7371 7473 c28 -36 44 -41 53 -17 5 12 1 14 -15 9 -16 -5 -19 -4 -14
5 5 9 4 11 -3 6 -7 -4 -12 -2 -12 3 0 6 -5 11 -11 11 -8 0 -7 -6 2 -17z"/>
<path d="M4163 7465 c0 -12 3 -12 16 -3 9 7 18 14 20 15 2 2 -5 3 -16 3 -11 0
-20 -7 -20 -15z"/>
<path d="M7460 7455 c-7 -9 -10 -18 -6 -22 3 -3 6 -1 6 6 0 7 5 9 10 6 6 -3
10 1 10 9 0 20 -4 20 -20 1z"/>
<path d="M3959 7442 c-15 -13 -19 -21 -11 -26 7 -4 12 -1 12 8 0 15 12 21 33
17 5 -1 6 3 2 9 -8 13 -9 13 -36 -8z"/>
<path d="M4110 7429 c0 -5 5 -7 10 -4 6 3 10 8 10 11 0 2 -4 4 -10 4 -5 0 -10
-5 -10 -11z"/>
<path d="M7257 7421 c-3 -12 1 -22 11 -26 20 -7 21 -4 7 23 -12 22 -13 22 -18
3z"/>
<path d="M7605 7409 c-4 -6 -4 -13 -1 -16 3 -4 6 -1 6 5 0 6 8 13 18 15 15 4
15 5 0 6 -9 0 -20 -4 -23 -10z"/>
<path d="M7305 7399 c-4 -6 -5 -12 -2 -15 2 -3 7 2 10 11 7 17 1 20 -8 4z"/>
<path d="M4030 7388 c0 -4 7 -8 15 -8 8 0 15 4 15 8 0 5 -7 9 -15 9 -8 0 -15
-4 -15 -9z"/>
<path d="M7563 7384 c0 -16 13 -19 21 -5 3 5 0 11 -7 14 -8 3 -14 -1 -14 -9z"/>
<path d="M3900 7379 c0 -5 -4 -8 -9 -4 -5 3 -12 1 -15 -4 -8 -13 22 -7 36 7 9
9 9 12 0 12 -7 0 -12 -5 -12 -11z"/>
<path d="M7370 7360 c0 -9 61 -32 67 -26 5 5 -36 29 -54 32 -7 1 -13 -1 -13
-6z"/>
<path d="M3961 7344 c0 -11 3 -14 6 -6 3 7 2 16 -1 19 -3 4 -6 -2 -5 -13z"/>
<path d="M7450 7356 c0 -2 7 -7 16 -10 8 -3 12 -2 9 4 -6 10 -25 14 -25 6z"/>
<path d="M3850 7344 c0 -3 7 -12 15 -20 16 -17 18 -14 9 10 -6 15 -24 23 -24
10z"/>
<path d="M3931 7290 c-13 -11 -19 -20 -14 -20 6 0 18 9 28 20 23 25 17 25 -14
0z"/>
<path d="M4693 7293 c-3 -10 -8 -21 -10 -25 -2 -5 0 -8 5 -8 5 0 12 11 14 25
6 29 0 33 -9 8z"/>
<path d="M4410 7289 c0 -5 5 -7 10 -4 6 3 10 8 10 11 0 2 -4 4 -10 4 -5 0 -10
-5 -10 -11z"/>
<path d="M3790 7279 c0 -5 5 -7 10 -4 6 3 10 8 10 11 0 2 -4 4 -10 4 -5 0 -10
-5 -10 -11z"/>
<path d="M3780 7249 c0 -5 5 -7 10 -4 6 3 10 8 10 11 0 2 -4 4 -10 4 -5 0 -10
-5 -10 -11z"/>
<path d="M4226 7211 c-4 -5 3 -7 14 -4 23 6 26 13 6 13 -8 0 -17 -4 -20 -9z"/>
<path d="M3806 7191 c-4 -6 -1 -11 6 -11 9 0 9 -3 -2 -10 -8 -5 -10 -10 -4
-10 15 0 39 29 30 37 -3 3 -6 0 -6 -8 0 -12 -2 -12 -9 0 -6 9 -11 10 -15 2z"/>
<path d="M4366 7192 c-2 -4 4 -8 14 -8 10 0 16 4 14 8 -3 4 -9 8 -14 8 -5 0
-11 -4 -14 -8z"/>
<path d="M4306 7152 c-3 -5 1 -9 9 -9 8 0 15 4 15 9 0 4 -4 8 -9 8 -6 0 -12
-4 -15 -8z"/>
<path d="M3705 7140 c-3 -6 1 -7 9 -4 18 7 21 14 7 14 -6 0 -13 -4 -16 -10z"/>
<path d="M4130 7129 c0 -5 5 -7 10 -4 6 3 10 8 10 11 0 2 -4 4 -10 4 -5 0 -10
-5 -10 -11z"/>
<path d="M3660 7105 c0 -8 2 -15 4 -15 2 0 6 7 10 15 3 8 1 15 -4 15 -6 0 -10
-7 -10 -15z"/>
<path d="M4105 7080 c-3 -5 -1 -10 4 -10 6 0 11 5 11 10 0 6 -2 10 -4 10 -3 0
-8 -4 -11 -10z"/>
<path d="M4166 7072 c-4 -7 -2 -12 5 -12 7 0 -6 -12 -29 -27 -44 -29 -57 -55
-22 -46 22 6 80 70 80 88 0 5 -4 4 -9 -4 -7 -11 -9 -11 -13 0 -3 10 -6 10 -12
1z m-12 -51 c-10 -10 -21 -16 -24 -14 -3 3 4 11 14 19 28 20 33 17 10 -5z"/>
<path d="M4606 6981 c-18 -7 -18 -8 5 -14 33 -9 48 -7 24 3 -18 8 -17 9 6 9
15 1 32 -6 39 -14 7 -9 15 -13 18 -10 9 9 -31 34 -53 34 -11 0 -29 -4 -39 -8z"/>
<path d="M4540 6970 c0 -5 5 -10 11 -10 5 0 7 5 4 10 -3 6 -8 10 -11 10 -2 0
-4 -4 -4 -10z"/>
<path d="M4080 6939 c0 -5 5 -7 10 -4 6 3 10 8 10 11 0 2 -4 4 -10 4 -5 0 -10
-5 -10 -11z"/>
<path d="M4680 6909 c0 -5 5 -7 10 -4 6 3 10 8 10 11 0 2 -4 4 -10 4 -5 0 -10
-5 -10 -11z"/>
<path d="M3640 6859 c0 -5 5 -7 10 -4 6 3 10 8 10 11 0 2 -4 4 -10 4 -5 0 -10
-5 -10 -11z"/>
<path d="M4490 6851 c0 -5 9 -7 20 -4 11 3 20 7 20 9 0 2 -9 4 -20 4 -11 0
-20 -4 -20 -9z"/>
<path d="M4445 6829 c-11 -17 1 -21 15 -4 8 9 8 15 2 15 -6 0 -14 -5 -17 -11z"/>
<path d="M3897 6814 c-8 -8 3 -34 14 -34 11 0 12 27 0 34 -4 3 -11 3 -14 0z"/>
<path d="M4271 6764 c0 -11 3 -14 6 -6 3 7 2 16 -1 19 -3 4 -6 -2 -5 -13z"/>
<path d="M4327 6699 c7 -7 15 -10 18 -7 3 3 -2 9 -12 12 -14 6 -15 5 -6 -5z"/>
<path d="M4218 6646 c-4 -17 -1 -23 9 -19 15 6 18 29 4 37 -5 3 -11 -5 -13
-18z"/>
<path d="M3505 6641 c-3 -5 -1 -12 5 -16 5 -3 10 1 10 9 0 18 -6 21 -15 7z"/>
<path d="M3601 6634 c0 -11 3 -14 6 -6 3 7 2 16 -1 19 -3 4 -6 -2 -5 -13z"/>
<path d="M3852 6620 c0 -14 2 -19 5 -12 2 6 2 18 0 25 -3 6 -5 1 -5 -13z"/>
<path d="M4300 6619 c0 -13 -4 -18 -12 -13 -7 5 -8 3 -3 -6 6 -10 11 -9 22 5
16 22 17 35 3 35 -5 0 -10 -9 -10 -21z"/>
<path d="M3951 6594 c0 -11 3 -14 6 -6 3 7 2 16 -1 19 -3 4 -6 -2 -5 -13z"/>
<path d="M3511 6564 c0 -11 3 -14 6 -6 3 7 2 16 -1 19 -3 4 -6 -2 -5 -13z"/>
<path d="M4192 6550 c0 -14 2 -19 5 -12 2 6 2 18 0 25 -3 6 -5 1 -5 -13z"/>
<path d="M4287 6549 c4 -13 8 -18 11 -10 2 7 -1 18 -6 23 -8 8 -9 4 -5 -13z"/>
<path d="M3840 6509 c0 -5 5 -7 10 -4 9 6 14 -8 11 -28 -1 -5 3 -6 9 -2 15 9
12 32 -6 39 -21 8 -24 8 -24 -5z"/>
<path d="M3920 6506 c0 -2 7 -7 16 -10 8 -3 12 -2 9 4 -6 10 -25 14 -25 6z"/>
<path d="M4903 6493 c-13 -3 -23 -9 -23 -14 0 -5 -7 -9 -16 -9 -9 0 -12 -5 -8
-12 4 -7 4 -10 -1 -6 -4 4 -15 2 -23 -5 -13 -10 -14 -9 -8 1 7 11 4 11 -13 0
-12 -7 -19 -18 -17 -25 3 -7 -1 -10 -8 -7 -15 6 -36 -17 -69 -77 -17 -30 -23
-49 -16 -56 6 -6 5 -14 -6 -23 -13 -11 -15 -65 -15 -424 0 -398 1 -413 20
-434 11 -12 20 -24 20 -28 0 -3 -9 -4 -20 -1 -20 5 -20 0 -20 -2214 l0 -2219
1870 0 1870 0 0 783 0 784 -39 11 c-21 7 -64 12 -95 12 -31 0 -56 4 -56 8 0 5
-11 15 -25 22 -14 7 -25 19 -25 27 0 7 -9 13 -20 13 -14 0 -20 7 -20 21 0 20
4 21 53 15 28 -3 91 -8 140 -10 l87 -4 0 579 0 579 -292 -2 -293 -3 285 -5
285 -5 -282 -3 -283 -2 0 -612 c0 -419 -4 -626 -11 -653 -6 -22 -10 -41 -8
-42 2 -1 -7 -13 -20 -27 -14 -14 -21 -26 -16 -26 4 0 -2 -8 -13 -19 -24 -20
-29 -41 -9 -41 8 0 8 -3 -2 -9 -8 -5 -20 -7 -26 -4 -17 6 -77 -31 -67 -42 4
-4 0 -6 -8 -3 -8 2 -26 -1 -40 -9 -20 -10 -218 -12 -1055 -10 l-1030 2 -67 33
c-75 36 -123 88 -160 168 l-23 49 0 990 0 990 34 63 c39 71 78 110 154 150
l52 27 600 4 c330 2 589 7 575 11 -24 8 -24 8 -2 9 l22 1 0 870 0 870 -897 -1
c-494 -1 -908 -4 -920 -6z m1734 -9 c-3 -3 -12 -4 -19 -1 -8 3 -5 6 6 6 11 1
17 -2 13 -5z m-1773 -1154 c7 -10 3 -9 -10 3 -11 9 -25 14 -29 10 -5 -5 -3 0
5 11 11 14 15 15 18 5 3 -8 10 -21 16 -29z m-84 20 c0 -5 -4 -10 -10 -10 -5 0
-10 5 -10 10 0 6 5 10 10 10 6 0 10 -4 10 -10z m166 -107 c-10 -10 -19 5 -10
18 6 11 8 11 12 0 2 -7 1 -15 -2 -18z m12 -84 c-3 -8 -7 -3 -11 10 -4 17 -3
21 5 13 5 -5 8 -16 6 -23z m150 -246 c-16 -2 -40 -2 -55 0 -16 2 -3 4 27 4 30
0 43 -2 28 -4z m63 -40 c-12 -20 -14 -14 -5 12 4 9 9 14 11 11 3 -2 0 -13 -6
-23z m836 -79 c-3 -3 -12 -4 -19 -1 -8 3 -5 6 6 6 11 1 17 -2 13 -5z m40 -20
c-3 -3 -12 -4 -19 -1 -8 3 -5 6 6 6 11 1 17 -2 13 -5z m2266 -2291 c-7 -2 -19
-2 -25 0 -7 3 -2 5 12 5 14 0 19 -2 13 -5z m-609 -198 c-4 -8 -8 -15 -10 -15
-2 0 -4 7 -4 15 0 8 4 15 10 15 5 0 7 -7 4 -15z m-114 -35 c0 -5 -5 -10 -11
-10 -5 0 -7 5 -4 10 3 6 8 10 11 10 2 0 4 -4 4 -10z m-152 -7 c-42 -2 -114 -2
-160 0 -46 1 -11 3 77 3 88 0 125 -2 83 -3z"/>
<path d="M9660 6380 c0 -73 4 -120 10 -120 6 0 10 47 10 120 0 73 -4 120 -10
120 -6 0 -10 -47 -10 -120z"/>
<path d="M10186 6478 c-9 -12 -16 -28 -16 -34 0 -7 -6 -15 -12 -18 -10 -5 -10
-7 0 -12 8 -4 12 -30 12 -80 0 -59 3 -74 15 -74 12 0 15 15 15 75 0 68 2 75
20 75 11 0 20 5 20 10 0 6 -9 10 -20 10 -11 0 -20 4 -20 9 0 23 14 41 31 41
10 0 19 5 19 10 0 19 -49 10 -64 -12z"/>
<path d="M10800 6461 l0 -39 -38 5 c-50 7 -75 -20 -75 -82 0 -65 21 -85 89
-83 l54 2 0 118 c0 98 -3 118 -15 118 -11 0 -15 -11 -15 -39z m-19 -61 c14 -8
19 -21 19 -53 0 -46 -13 -67 -41 -67 -22 0 -49 37 -49 65 0 24 26 65 41 65 6
0 19 -5 30 -10z"/>
<path d="M7290 6475 c7 -9 15 -13 17 -11 7 7 -7 26 -19 26 -6 0 -6 -6 2 -15z"/>
<path d="M8150 6475 c0 -10 11 -15 35 -15 l35 0 0 -100 c0 -82 3 -100 15 -100
12 0 15 18 15 100 l0 100 35 0 c24 0 35 5 35 15 0 12 -16 15 -85 15 -69 0 -85
-3 -85 -15z"/>
<path d="M10085 6481 c-7 -12 12 -24 25 -16 11 7 4 25 -10 25 -5 0 -11 -4 -15
-9z"/>
<path d="M10277 6483 c-12 -11 -8 -23 8 -23 8 0 15 7 15 15 0 16 -12 20 -23 8z"/>
<path d="M8346 6415 c-17 -18 -21 -35 -7 -35 5 0 14 7 21 15 15 18 42 19 58 3
23 -23 13 -38 -23 -38 -22 0 -43 -8 -55 -20 -24 -24 -24 -29 -5 -57 13 -19 24
-22 70 -21 l55 2 0 55 c0 77 -16 105 -61 109 -24 2 -42 -3 -53 -13z m84 -95
c0 -24 -34 -43 -60 -35 -19 6 -27 35 -13 48 3 4 21 7 40 7 26 0 33 -4 33 -20z"/>
<path d="M8500 6345 c0 -69 3 -85 15 -85 12 0 15 14 15 65 0 60 2 66 25 77 14
6 25 15 25 20 0 12 -24 10 -38 -4 -9 -9 -12 -9 -12 0 0 7 -7 12 -15 12 -12 0
-15 -16 -15 -85z"/>
<path d="M8642 6423 c-7 -3 -20 -19 -28 -35 -18 -35 -13 -82 13 -110 20 -22
85 -24 103 -3 16 19 5 34 -12 17 -19 -19 -56 -14 -72 10 -9 12 -16 26 -16 30
0 5 27 8 60 8 l60 0 -6 28 c-13 52 -54 75 -102 55z m68 -34 c15 -27 10 -31
-39 -27 -41 3 -41 3 -26 26 20 28 51 28 65 1z"/>
<path d="M8797 6412 c-10 -10 -17 -22 -17 -25 0 -13 23 -7 35 9 17 23 65 11
65 -16 0 -16 -7 -20 -31 -20 -46 0 -69 -16 -69 -49 0 -39 17 -50 78 -49 l52 1
0 67 c0 52 -4 71 -18 83 -25 22 -75 21 -95 -1z m83 -90 c0 -38 -46 -56 -70
-27 -18 21 4 45 41 45 21 0 29 -5 29 -18z"/>
<path d="M9037 6423 c-4 -3 -7 -42 -7 -85 0 -63 3 -78 15 -78 12 0 15 14 15
65 0 60 2 66 25 77 40 18 55 -3 55 -78 0 -50 3 -64 15 -64 21 0 21 117 -1 148
-17 24 -62 30 -82 10 -9 -9 -12 -9 -12 0 0 13 -13 16 -23 5z"/>
<path d="M9237 6418 c-42 -33 -41 -125 3 -148 70 -38 137 29 109 110 -17 47
-74 66 -112 38z m77 -30 c9 -12 16 -32 16 -43 0 -29 -28 -65 -50 -65 -22 0
-50 36 -50 65 0 29 28 65 50 65 10 0 26 -10 34 -22z"/>
<path d="M9470 6315 c0 -96 3 -115 15 -115 10 0 15 10 15 34 0 34 1 34 38 29
29 -4 41 0 55 15 25 27 25 106 1 133 -19 21 -64 25 -82 7 -9 -9 -12 -9 -12 0
0 7 -7 12 -15 12 -12 0 -15 -19 -15 -115z m109 63 c27 -48 -16 -117 -56 -92
-22 13 -30 89 -12 110 18 22 51 13 68 -18z"/>
<path d="M9747 6412 c-10 -10 -17 -22 -17 -25 0 -13 23 -7 35 9 17 23 65 11
65 -16 0 -16 -7 -20 -31 -20 -46 0 -69 -16 -69 -49 0 -39 17 -50 78 -49 l52 1
0 67 c0 52 -4 71 -18 83 -25 22 -75 21 -95 -1z m83 -90 c0 -38 -46 -56 -70
-27 -18 21 4 45 41 45 21 0 29 -5 29 -18z"/>
<path d="M9910 6345 c0 -50 4 -85 10 -85 6 0 10 26 10 59 0 41 5 65 16 75 38
39 64 10 64 -71 0 -49 3 -63 15 -63 12 0 15 14 15 63 0 92 -33 127 -91 97 -13
-7 -19 -7 -19 0 0 5 -4 10 -10 10 -6 0 -10 -35 -10 -85z"/>
<path d="M10087 6423 c-4 -3 -7 -42 -7 -85 0 -63 3 -78 15 -78 12 0 15 16 15
85 0 78 -5 96 -23 78z"/>
<path d="M10270 6345 c0 -69 3 -85 15 -85 12 0 15 16 15 85 0 69 -3 85 -15 85
-12 0 -15 -16 -15 -85z"/>
<path d="M10369 6411 c-19 -15 -24 -29 -24 -64 0 -56 25 -87 70 -87 28 0 65
24 65 43 0 14 -28 7 -34 -8 -8 -22 -53 -19 -66 4 -5 11 -10 32 -10 46 0 60 43
85 77 45 20 -23 33 -26 33 -7 0 22 -34 47 -62 47 -14 0 -36 -9 -49 -19z"/>
<path d="M10538 6419 c-18 -10 -25 -39 -9 -39 5 0 14 7 21 15 15 18 42 19 58
3 22 -22 13 -38 -21 -38 -39 0 -77 -24 -77 -50 0 -34 27 -49 83 -48 l52 1 -3
71 c-2 39 -9 77 -14 84 -12 14 -66 15 -90 1z m82 -99 c0 -24 -34 -43 -60 -35
-19 6 -27 35 -13 48 3 4 21 7 40 7 26 0 33 -4 33 -20z"/>
<path d="M10892 6414 c-12 -8 -22 -19 -22 -25 0 -15 27 -10 34 7 9 25 60 14
64 -13 3 -20 -1 -23 -32 -23 -40 0 -66 -21 -66 -54 0 -34 19 -45 78 -44 l52 1
0 67 c0 52 -4 71 -18 83 -23 21 -61 22 -90 1z m78 -92 c0 -37 -54 -59 -66 -27
-11 27 4 45 36 45 22 0 30 -5 30 -18z"/>
<path d="M7410 6374 c0 -8 5 -12 10 -9 6 4 8 11 5 16 -9 14 -15 11 -15 -7z"/>
<path d="M7294 6359 c-4 -7 -3 -9 4 -5 5 3 13 0 15 -6 4 -9 6 -10 6 -1 1 17
-16 25 -25 12z"/>
<path d="M7458 6363 c7 -3 16 -2 19 1 4 3 -2 6 -13 5 -11 0 -14 -3 -6 -6z"/>
<path d="M3860 5460 c0 -12 7 -20 18 -21 10 0 12 -3 5 -6 -7 -2 -13 -20 -13
-38 0 -22 -6 -38 -17 -44 -17 -10 -17 -10 0 -11 16 0 17 -16 17 -184 0 -113
-4 -187 -10 -191 -5 -3 -10 -24 -10 -46 0 -21 -2 -39 -4 -39 -3 0 -56 -6 -118
-14 -62 -8 -120 -15 -128 -15 -36 -2 -189 -22 -240 -30 -30 -5 -104 -15 -165
-22 -60 -6 -114 -16 -119 -20 -13 -12 48 -11 110 0 136 26 670 84 685 75 5 -3
9 -57 9 -120 0 -128 -5 -122 83 -108 36 6 37 8 37 50 0 49 -8 46 165 65 88 9
113 15 127 31 13 15 42 23 115 34 54 7 101 14 106 14 9 0 9 570 0 570 -4 0
-74 12 -156 26 l-148 26 -17 -21 c-16 -21 -20 -21 -106 -8 -74 11 -90 16 -97
33 -7 22 -45 34 -100 34 -22 0 -29 -5 -29 -20z"/>
<path d="M7514 5408 c-4 -7 -3 -8 4 -4 7 4 17 -3 24 -18 12 -28 23 -33 34 -14
4 7 3 8 -4 4 -7 -4 -12 -1 -12 6 0 19 -37 41 -46 26z"/>
<path d="M7360 5390 c0 -5 5 -10 11 -10 5 0 7 5 4 10 -3 6 -8 10 -11 10 -2 0
-4 -4 -4 -10z"/>
<path d="M7576 5343 c-6 -14 -5 -15 5 -6 7 7 10 15 7 18 -3 3 -9 -2 -12 -12z"/>
<path d="M9490 5240 c0 -100 3 -120 15 -120 13 0 15 20 15 120 0 100 -2 120
-15 120 -12 0 -15 -20 -15 -120z"/>
<path d="M10280 5321 l0 -39 -39 5 c-32 4 -41 2 -55 -18 -20 -30 -21 -98 -1
-126 13 -19 24 -22 70 -21 l55 2 0 118 c0 98 -3 118 -15 118 -11 0 -15 -11
-15 -39z m-12 -63 c7 -7 12 -30 12 -53 0 -44 -13 -65 -41 -65 -22 0 -49 37
-49 65 0 48 49 82 78 53z"/>
<path d="M10540 5321 l0 -39 -39 5 c-32 4 -41 2 -55 -18 -20 -30 -21 -98 -1
-126 13 -19 24 -22 70 -21 l55 2 0 118 c0 98 -3 118 -15 118 -11 0 -15 -11
-15 -39z m-12 -63 c7 -7 12 -30 12 -53 0 -44 -13 -65 -41 -65 -22 0 -49 37
-49 65 0 48 49 82 78 53z"/>
<path d="M8170 5235 c0 -94 3 -115 15 -115 11 0 15 18 17 82 l3 82 54 -82 c29
-45 60 -82 67 -82 11 0 14 24 14 115 0 94 -3 115 -15 115 -11 0 -15 -19 -17
-87 l-3 -87 -55 87 c-30 48 -60 87 -67 87 -10 0 -13 -29 -13 -115z"/>
<path d="M9570 5335 c0 -8 7 -15 15 -15 8 0 15 7 15 15 0 8 -7 15 -15 15 -8 0
-15 -7 -15 -15z"/>
<path d="M9815 5341 c-7 -12 12 -24 25 -16 11 7 4 25 -10 25 -5 0 -11 -4 -15
-9z"/>
<path d="M10894 5327 c-23 -20 -28 -34 -32 -83 -4 -54 -1 -63 23 -92 21 -26
34 -32 65 -32 31 0 44 6 65 32 24 29 27 38 23 92 -4 49 -9 63 -32 83 -15 12
-40 23 -56 23 -16 0 -41 -11 -56 -23z m104 -25 c20 -26 15 -119 -8 -142 -47
-47 -100 -9 -100 70 0 41 5 56 25 76 27 27 59 26 83 -4z"/>
<path d="M11060 5335 c0 -10 11 -15 35 -15 l35 0 0 -100 c0 -82 3 -100 15
-100 12 0 15 18 15 100 l0 100 35 0 c24 0 35 5 35 15 0 12 -16 15 -85 15 -69
0 -85 -3 -85 -15z"/>
<path d="M3080 5320 c0 -5 4 -10 9 -10 6 0 13 5 16 10 3 6 -1 10 -9 10 -9 0
-16 -4 -16 -10z"/>
<path d="M9900 5310 c0 -11 -7 -20 -15 -20 -8 0 -15 -4 -15 -10 0 -5 7 -10 15
-10 12 0 15 -14 15 -63 0 -36 5 -68 12 -75 15 -15 48 -16 48 -2 0 6 -7 10 -15
10 -12 0 -15 14 -15 65 0 51 3 65 15 65 8 0 15 5 15 10 0 6 -7 10 -15 10 -8 0
-15 9 -15 20 0 11 -7 20 -15 20 -8 0 -15 -9 -15 -20z"/>
<path d="M7431 5291 c27 -36 25 -35 33 -15 3 8 2 12 -4 9 -6 -3 -10 -2 -10 2
0 5 -9 14 -21 21 -19 12 -19 12 2 -17z"/>
<path d="M7333 5291 c0 -11 5 -18 9 -15 4 3 5 11 1 19 -7 21 -12 19 -10 -4z"/>
<path d="M3585 5265 c-71 -13 -138 -24 -147 -24 -15 -1 -12 -8 13 -45 42 -59
51 -160 21 -218 -19 -36 -19 -38 -2 -38 24 0 44 59 43 127 0 36 -9 70 -26 105
-27 55 -24 67 18 68 37 2 270 48 240 48 -16 0 -88 -10 -160 -23z"/>
<path d="M8390 5221 c0 -87 12 -102 81 -99 l49 2 0 84 c0 62 -3 83 -12 80 -8
-3 -14 -29 -16 -71 -3 -61 -5 -67 -27 -73 -38 -9 -45 3 -45 77 0 55 -3 69 -15
69 -12 0 -15 -14 -15 -69z"/>
<path d="M8585 5265 c-49 -48 -18 -145 46 -145 36 0 72 17 64 31 -4 6 -13 5
-25 -1 -26 -14 -46 -12 -64 6 -31 31 -20 44 39 44 51 0 55 2 55 23 0 64 -69
89 -115 42z m73 -7 c24 -24 13 -38 -28 -38 -43 0 -45 2 -30 31 12 21 40 25 58
7z"/>
<path d="M8720 5288 c3 -28 61 -163 70 -163 7 0 22 27 35 60 37 99 38 105 21
105 -10 0 -21 -20 -32 -60 -9 -33 -19 -60 -23 -60 -3 0 -14 27 -25 60 -11 35
-24 60 -32 60 -8 0 -14 -1 -14 -2z"/>
<path d="M8906 5275 c-17 -18 -21 -35 -7 -35 5 0 14 7 21 15 15 18 42 19 58 3
23 -23 13 -38 -23 -38 -22 0 -43 -8 -55 -20 -24 -24 -24 -29 -5 -57 13 -19 24
-22 70 -21 l55 2 0 55 c0 77 -16 105 -61 109 -24 2 -42 -3 -53 -13z m84 -95
c0 -29 -46 -49 -66 -29 -23 24 -7 49 32 49 27 0 34 -4 34 -20z"/>
<path d="M9156 5271 c-27 -29 -12 -57 37 -74 30 -10 42 -19 42 -33 0 -24 -46
-31 -65 -10 -16 20 -30 20 -30 1 0 -36 86 -48 114 -16 32 35 13 59 -67 85 -23
7 -18 40 6 44 10 2 27 -4 37 -13 27 -24 44 -15 25 13 -21 28 -75 30 -99 3z"/>
<path d="M9325 5265 c-51 -50 -18 -145 49 -145 68 0 101 86 55 144 -27 34 -71
35 -104 1z m76 -5 c14 -8 19 -21 19 -53 0 -48 -13 -67 -47 -67 -40 0 -60 82
-27 114 18 19 28 20 55 6z"/>
<path d="M9570 5205 c0 -69 3 -85 15 -85 12 0 15 16 15 85 0 69 -3 85 -15 85
-12 0 -15 -16 -15 -85z"/>
<path d="M9662 5267 c-29 -31 -30 -95 -2 -125 24 -26 66 -29 98 -6 25 17 29
34 7 34 -8 0 -15 -4 -15 -10 0 -16 -49 -23 -65 -10 -18 15 -20 91 -3 108 18
18 46 14 60 -8 13 -21 38 -27 38 -10 0 20 -41 50 -68 50 -17 0 -37 -10 -50
-23z"/>
<path d="M9820 5205 c0 -50 4 -85 10 -85 6 0 10 35 10 85 0 50 -4 85 -10 85
-6 0 -10 -35 -10 -85z"/>
<path d="M10000 5216 c0 -48 4 -77 13 -84 7 -6 36 -10 65 -10 l52 1 0 84 c0
66 -3 83 -15 83 -11 0 -15 -16 -17 -66 -3 -74 -21 -99 -55 -78 -14 8 -19 27
-21 78 -4 90 -22 84 -22 -8z"/>
<path d="M10632 5267 c-29 -31 -30 -99 -2 -127 24 -24 82 -27 100 -5 16 19 5
34 -12 17 -19 -19 -55 -14 -72 10 -22 31 -12 38 50 38 46 0 54 3 54 19 0 10
-9 30 -21 45 -26 33 -68 34 -97 3z m82 -19 c14 -24 5 -30 -43 -26 -41 3 -41 3
-25 26 18 26 51 26 68 0z"/>
<path d="M7335 5250 c3 -5 13 -10 21 -10 8 0 12 5 9 10 -3 6 -13 10 -21 10 -8
0 -12 -4 -9 -10z"/>
<path d="M3118 5186 c-71 -13 -130 -25 -132 -27 -6 -5 32 -270 39 -278 12 -11
10 11 -7 129 -10 69 -16 130 -14 136 2 6 69 21 148 34 78 12 145 24 147 26 9
9 -60 1 -181 -20z"/>
<path d="M7527 5203 c-10 -9 -9 -23 1 -23 5 0 9 7 9 15 0 17 -1 18 -10 8z"/>
<path d="M3331 5154 c-32 -40 -29 -123 5 -163 14 -17 31 -31 37 -31 9 0 9 2 0
8 -17 11 -43 76 -43 107 0 32 24 81 47 94 16 9 16 10 -4 11 -12 0 -31 -12 -42
-26z"/>
<path d="M4332 4400 c0 -19 2 -27 5 -17 2 9 2 25 0 35 -3 9 -5 1 -5 -18z"/>
<path d="M2856 4341 c-32 -34 -56 -65 -53 -68 10 -9 71 7 95 25 19 15 23 26
20 61 l-3 43 -59 -61z"/>
<path d="M4365 4347 c-8 -11 -146 -21 -585 -46 -1045 -59 -1027 -57 -1027 -74
0 -7 -16 -39 -36 -72 -20 -32 -34 -61 -32 -63 15 -16 56 15 90 68 29 45 45 60
62 60 13 0 23 -2 23 -5 0 -3 -13 -27 -30 -53 -34 -55 -36 -62 -17 -62 7 0 21
16 31 35 10 19 27 42 37 51 18 16 19 16 19 -7 0 -14 7 -35 17 -48 l16 -24 196
7 c233 8 882 33 1034 40 99 5 107 4 107 -13 0 -20 72 -16 -770 -46 -223 -8
-493 -17 -600 -20 -107 -4 -205 -8 -216 -10 -16 -4 -28 -23 -48 -75 -14 -39
-26 -73 -26 -76 0 -2 11 -4 24 -4 19 0 27 8 36 38 26 81 41 102 70 102 l28 0
-24 -57 c-42 -103 -21 -113 23 -12 27 63 38 71 48 39 10 -33 53 -58 108 -65
77 -10 1419 19 1437 30 5 3 23 49 40 103 18 53 49 129 70 167 59 112 60 105
-23 105 -49 0 -75 -4 -82 -13z"/>
<path d="M10927 4319 c7 -7 15 -10 18 -7 3 3 -2 9 -12 12 -14 6 -15 5 -6 -5z"/>
<path d="M5760 4302 c-18 -14 -19 -19 -7 -19 9 0 14 4 11 9 -3 4 2 8 10 8 9 0
16 5 16 10 0 14 -4 13 -30 -8z"/>
<path d="M10895 4310 c-4 -6 -10 -8 -14 -6 -4 3 -8 -1 -8 -9 0 -13 4 -12 19 2
18 16 22 23 14 23 -3 0 -8 -5 -11 -10z"/>
<path d="M6567 4283 c-4 -3 -7 -11 -7 -17 0 -6 5 -5 12 2 6 6 9 14 7 17 -3 3
-9 2 -12 -2z"/>
<path d="M11630 4256 c7 -7 14 -6 21 1 9 9 7 12 -9 10 -14 -1 -18 -5 -12 -11z"/>
<path d="M11327 4239 c4 -15 8 -17 14 -8 8 14 3 29 -11 29 -4 0 -6 -9 -3 -21z"/>
<path d="M12030 4249 c0 -5 5 -7 10 -4 6 3 10 8 10 11 0 2 -4 4 -10 4 -5 0
-10 -5 -10 -11z"/>
<path d="M11150 4229 c0 -5 5 -7 10 -4 6 3 10 8 10 11 0 2 -4 4 -10 4 -5 0
-10 -5 -10 -11z"/>
<path d="M11409 4223 c-13 -16 -12 -17 4 -4 16 13 21 21 13 21 -2 0 -10 -8
-17 -17z"/>
<path d="M11679 4217 c5 -14 7 -28 3 -33 -4 -4 -2 -4 4 -1 14 8 11 50 -4 55
-9 3 -10 -3 -3 -21z"/>
<path d="M11230 4213 c0 -4 5 -15 10 -23 8 -13 10 -13 10 2 0 9 -4 20 -10 23
-5 3 -10 3 -10 -2z"/>
<path d="M5988 4193 c12 -2 32 -2 45 0 12 2 2 4 -23 4 -25 0 -35 -2 -22 -4z"/>
<path d="M6135 4190 c3 -5 8 -10 11 -10 2 0 4 5 4 10 0 6 -5 10 -11 10 -5 0
-7 -4 -4 -10z"/>
<path d="M11400 4181 c0 -11 4 -22 9 -25 4 -3 6 6 3 19 -5 30 -12 33 -12 6z"/>
<path d="M11618 4193 c7 -3 16 -2 19 1 4 3 -2 6 -13 5 -11 0 -14 -3 -6 -6z"/>
<path d="M11865 4190 c-3 -6 1 -7 9 -4 18 7 21 14 7 14 -6 0 -13 -4 -16 -10z"/>
<path d="M11570 4165 c0 -8 4 -15 10 -15 5 0 7 7 4 15 -4 8 -8 15 -10 15 -2 0
-4 -7 -4 -15z"/>
<path d="M6580 4160 c0 -5 5 -10 10 -10 6 0 10 5 10 10 0 6 -4 10 -10 10 -5 0
-10 -4 -10 -10z"/>
<path d="M10985 4161 c-3 -5 -2 -12 3 -15 5 -3 9 1 9 9 0 17 -3 19 -12 6z"/>
<path d="M11332 4140 c0 -14 2 -19 5 -12 2 6 2 18 0 25 -3 6 -5 1 -5 -13z"/>
<path d="M6688 4143 c6 -2 18 -2 25 0 6 3 1 5 -13 5 -14 0 -19 -2 -12 -5z"/>
<path d="M11059 4137 c6 -8 7 -18 3 -22 -4 -5 -1 -5 6 -1 10 6 10 11 1 22 -6
8 -14 14 -16 14 -3 0 0 -6 6 -13z"/>
<path d="M11592 4126 c7 -8 15 -12 17 -11 5 6 -10 25 -20 25 -5 0 -4 -6 3 -14z"/>
<path d="M6520 4116 c0 -9 5 -16 10 -16 6 0 10 4 10 9 0 6 -4 13 -10 16 -5 3
-10 -1 -10 -9z"/>
<path d="M10889 4118 c15 -21 31 -23 31 -6 0 6 -3 8 -7 5 -3 -4 -13 -1 -22 6
-14 11 -14 10 -2 -5z"/>
<path d="M11855 4110 c-3 -5 -2 -10 4 -10 5 0 13 5 16 10 3 6 2 10 -4 10 -5 0
-13 -4 -16 -10z"/>
<path d="M5863 4065 c0 -27 2 -38 4 -22 2 15 2 37 0 50 -2 12 -4 0 -4 -28z"/>
<path d="M6382 4048 c-2 -29 -1 -50 1 -48 8 9 17 100 9 100 -4 0 -8 -24 -10
-52z"/>
<path d="M5746 4017 c-5 -15 -6 -31 -2 -34 11 -11 18 5 14 34 l-4 28 -8 -28z"/>
<path d="M6528 3973 c7 -3 16 -2 19 1 4 3 -2 6 -13 5 -11 0 -14 -3 -6 -6z"/>
<path d="M5851 3954 c0 -11 3 -14 6 -6 3 7 2 16 -1 19 -3 4 -6 -2 -5 -13z"/>
<path d="M4213 3926 c8 -21 -84 -25 -853 -32 -388 -4 -716 -7 -730 -9 -27 -2
-41 -31 -55 -112 -6 -41 -6 -43 19 -43 21 0 26 6 32 38 19 107 18 107 48 110
28 4 28 3 21 -35 -4 -21 -11 -55 -15 -75 l-7 -38 331 2 331 3 -317 2 c-175 2
-318 6 -318 9 0 6 20 94 26 112 3 10 15 4 41 -18 71 -63 35 -60 825 -60 397 0
725 3 728 8 8 9 30 107 30 133 0 17 -8 19 -71 19 -56 0 -70 -3 -66 -14z"/>
<path d="M5742 3900 c0 -14 2 -19 5 -12 2 6 2 18 0 25 -3 6 -5 1 -5 -13z"/>
<path d="M6139 3909 c-10 -6 -7 -9 14 -9 29 0 35 5 14 13 -8 3 -20 1 -28 -4z"/>
<path d="M5884 3895 c-10 -8 -14 -15 -8 -15 5 0 19 7 30 15 10 8 14 15 8 15
-5 0 -19 -7 -30 -15z"/>
<path d="M5978 3893 c29 -2 74 -2 100 0 26 2 2 3 -53 3 -55 0 -76 -1 -47 -3z"/>
<path d="M5780 3790 c-9 -6 -10 -10 -3 -10 6 0 15 5 18 10 8 12 4 12 -15 0z"/>
<path d="M5953 3783 c53 -2 141 -2 195 0 53 1 9 3 -98 3 -107 0 -151 -2 -97
-3z"/>
<path d="M6731 3774 c0 -11 3 -14 6 -6 3 7 2 16 -1 19 -3 4 -6 -2 -5 -13z"/>
<path d="M3813 3723 c338 -3 377 -5 377 -19 0 -15 -72 -16 -832 -9 -466 4
-837 11 -843 16 -14 14 -67 10 -95 -7 -14 -8 -17 -13 -7 -10 10 3 17 0 17 -8
0 -8 5 -16 11 -18 6 -2 11 -50 12 -126 1 -67 1 -122 0 -122 -1 0 -13 4 -27 9
-18 7 -27 6 -35 -3 -9 -10 -7 -13 6 -13 42 0 46 -2 33 -17 -9 -12 -6 -16 22
-20 18 -3 51 -5 73 -4 22 0 112 -4 200 -10 88 -7 419 -25 735 -42 720 -38 730
-38 730 -58 0 -13 -17 -14 -122 -8 -190 10 -806 45 -1083 61 -343 20 -309 23
-301 -27 3 -24 9 -53 12 -65 5 -18 2 -23 -14 -23 -22 0 -39 35 -44 90 -3 39
-13 50 -45 50 -27 0 -28 -12 -5 -95 l17 -60 295 -22 c945 -71 1248 -94 1277
-99 17 -2 34 -12 37 -21 6 -14 -2 -15 -61 -9 -38 3 -212 17 -388 31 -315 25
-891 70 -992 79 l-51 4 8 -27 c4 -15 15 -42 24 -59 16 -31 16 -32 -4 -32 -13
0 -20 7 -20 20 0 11 -3 20 -8 20 -5 0 -43 61 -47 77 0 1 -12 4 -28 8 -35 9
-35 -6 -3 -80 21 -47 23 -55 9 -55 -9 0 -14 -3 -11 -6 3 -3 50 -9 104 -15 55
-5 416 -41 803 -79 388 -39 708 -70 713 -70 4 0 8 -7 8 -15 0 -8 -6 -15 -13
-15 -7 0 -188 18 -403 40 -543 56 -968 99 -1039 105 -33 3 -75 8 -92 11 -18 3
-33 3 -33 0 0 -4 16 -32 35 -62 19 -30 35 -56 35 -58 0 -3 -8 -6 -17 -9 -11
-2 -5 -6 17 -11 59 -12 344 -43 353 -39 4 2 7 16 7 29 0 23 3 25 28 20 15 -3
54 -8 87 -11 33 -3 75 -8 93 -11 l32 -5 0 -186 0 -185 -22 5 c-60 14 -136 18
-142 8 -4 -7 1 -11 13 -11 41 0 21 -29 -74 -108 -35 -29 -45 -33 -78 -28 -102
17 -161 17 -272 2 -209 -29 -209 -25 0 -66 107 -21 204 -36 222 -33 18 3 38 1
45 -5 7 -5 37 -13 66 -16 30 -3 57 -8 61 -10 7 -5 153 -36 196 -42 17 -2 71
-13 120 -23 50 -11 104 -22 120 -25 17 -3 59 -12 95 -21 36 -8 184 -39 330
-68 l265 -53 3 -67 c3 -77 -5 -74 123 -51 l89 17 0 237 c0 263 3 250 -65 250
-19 0 -37 5 -40 10 -3 6 -17 10 -31 10 -20 0 -24 5 -24 28 0 15 -3 44 -7 65
l-6 39 39 -2 c21 -1 60 -2 87 -1 l47 1 0 141 0 141 -29 -4 c-22 -3 -28 -1 -23
11 3 9 1 12 -6 7 -14 -8 -23 10 -62 120 -54 155 -86 340 -94 551 -1 29 -4 54
-7 56 -3 4 -985 37 -1209 42 -121 2 -161 5 -157 13 3 4 72 6 154 6 81 -1 222
-2 313 -3 91 -1 217 0 280 3 63 2 120 1 125 -3 6 -3 119 -6 252 -6 l242 0 5
35 c3 19 8 56 11 83 l6 47 -443 -2 -443 -3 378 -2z m-1260 -50 c4 -2 7 -30 7
-62 l0 -58 133 -7 c72 -3 296 -11 497 -16 201 -6 487 -15 635 -20 149 -5 285
-10 303 -10 23 0 32 -5 32 -17 0 -15 -21 -16 -247 -9 -300 8 -1025 33 -1215
41 l-138 6 0 -54 0 -55 -35 -4 c-30 -3 -34 -1 -28 11 11 21 10 197 -1 239 -9
33 -8 33 20 26 16 -4 32 -9 37 -11z m122 -2 c46 -6 50 -8 53 -35 2 -15 1 -39
-2 -52 -6 -22 -11 -24 -71 -24 l-65 0 0 43 c0 23 -3 53 -7 66 -5 21 -3 23 18
16 13 -4 46 -10 74 -14z m15 -201 c31 -5 35 -9 35 -35 l0 -30 -72 -3 c-64 -3
-71 -1 -68 15 2 10 7 35 10 56 l6 39 27 -18 c15 -10 43 -20 62 -24z m1040
-690 c47 -5 100 -12 118 -15 l32 -6 0 -195 0 -195 -47 6 c-27 4 -64 11 -83 15
-19 5 -59 11 -87 15 l-53 7 0 144 c0 107 -3 146 -12 149 -7 2 -59 9 -115 15
-76 9 -103 16 -103 26 0 8 3 14 8 14 4 -1 53 -7 110 -14 56 -7 104 -10 107 -8
3 3 5 16 5 29 0 27 2 27 120 13z m352 -104 c62 -8 145 -18 183 -22 76 -7 113
-20 98 -35 -6 -6 -51 -3 -117 7 -60 8 -119 13 -133 9 -33 -8 -196 15 -205 29
-21 31 6 33 174 12z m248 -231 c0 -88 -1 -95 -20 -95 -18 0 -20 7 -20 56 0 60
17 134 32 134 4 0 8 -43 8 -95z m17 -411 c-3 -3 -12 -4 -19 -1 -8 3 -5 6 6 6
11 1 17 -2 13 -5z"/>
<path d="M3703 2654 c-22 -22 -25 -32 -21 -75 6 -55 30 -89 63 -89 68 0 84
131 22 175 -29 20 -34 19 -64 -11z"/>
<path d="M7369 3692 c5 -34 6 -35 9 -8 2 16 0 32 -5 37 -5 5 -7 -7 -4 -29z"/>
<path d="M6560 3681 c0 -40 13 -61 25 -41 3 5 2 10 -4 10 -6 0 -7 15 -4 35 4
23 2 35 -6 35 -6 0 -11 -17 -11 -39z"/>
<path d="M5892 3666 c7 -8 15 -12 17 -11 5 6 -10 25 -20 25 -5 0 -4 -6 3 -14z"/>
<path d="M6146 3671 c-4 -7 -5 -15 -2 -18 9 -9 19 4 14 18 -4 11 -6 11 -12 0z"/>
<path d="M4449 3651 c42 -42 39 -146 -5 -180 l-25 -20 36 -7 c52 -9 64 11 65
113 0 73 -2 83 -22 97 -12 9 -33 16 -45 16 -23 0 -23 0 -4 -19z"/>
<path d="M4350 3563 c0 -48 16 -70 55 -78 17 -3 24 -3 18 1 -7 3 -15 28 -19
55 -4 27 -10 49 -14 49 -5 0 -15 3 -24 6 -13 5 -16 -1 -16 -33z"/>
<path d="M6520 3579 c0 -7 -23 -10 -64 -7 -35 1 -62 -1 -59 -5 3 -4 35 -7 72
-6 38 1 73 -1 80 -5 18 -11 13 -2 -9 17 -11 9 -20 12 -20 6z"/>
<path d="M6777 3583 c-10 -10 -8 -23 4 -23 5 0 8 4 5 9 -4 5 0 12 6 14 7 3 8
6 2 6 -6 1 -14 -2 -17 -6z"/>
<path d="M2278 3535 c2 -19 8 -35 13 -35 5 0 9 16 9 35 0 22 -5 35 -13 35 -9
0 -12 -11 -9 -35z"/>
<path d="M6085 3500 c-11 -12 -13 -20 -6 -20 6 0 14 7 17 15 4 8 11 12 17 8 6
-3 7 -1 3 5 -9 16 -10 15 -31 -8z"/>
<path d="M5947 3483 c-11 -10 -8 -121 3 -128 7 -4 10 17 9 64 -1 39 -3 71 -4
71 -1 0 -5 -3 -8 -7z"/>
<path d="M5985 3461 c-3 -5 -2 -12 3 -15 5 -3 9 1 9 9 0 17 -3 19 -12 6z"/>
<path d="M7010 3430 l-155 -6 150 -2 c84 -1 157 3 165 8 8 5 11 9 5 8 -5 -1
-80 -5 -165 -8z"/>
<path d="M5779 3207 c5 -5 26 -7 47 -5 l39 3 -47 5 c-26 3 -43 1 -39 -3z"/>
<path d="M6190 3216 c0 -7 61 -13 65 -6 2 3 -12 7 -31 8 -19 2 -34 1 -34 -2z"/>
<path d="M7325 3210 c3 -5 11 -10 16 -10 6 0 7 5 4 10 -3 6 -11 10 -16 10 -6
0 -7 -4 -4 -10z"/>
<path d="M5888 3203 c12 -2 30 -2 40 0 9 3 -1 5 -23 4 -22 0 -30 -2 -17 -4z"/>
<path d="M5998 3203 c23 -2 61 -2 85 0 23 2 4 4 -43 4 -47 0 -66 -2 -42 -4z"/>
<path d="M7008 3203 c6 -2 18 -2 25 0 6 3 1 5 -13 5 -14 0 -19 -2 -12 -5z"/>
<path d="M7043 3113 c32 -2 81 -2 110 0 29 2 3 3 -58 3 -60 0 -84 -1 -52 -3z"/>
<path d="M6969 3108 c-5 -18 -7 -59 -2 -48 3 8 10 20 15 27 5 7 5 14 -2 18 -5
3 -10 5 -11 3z"/>
<path d="M5842 3065 c0 -16 2 -22 5 -12 2 9 2 23 0 30 -3 6 -5 -1 -5 -18z"/>
<path d="M5744 2900 c0 -80 2 -112 3 -72 2 39 2 105 0 145 -1 39 -3 7 -3 -73z"/>
<path d="M6585 3030 c3 -6 1 -10 -6 -10 -7 0 -10 -3 -6 -6 3 -3 13 -2 22 4 16
8 16 9 1 15 -10 4 -15 3 -11 -3z"/>
<path d="M6964 2945 c0 -55 1 -76 3 -47 2 29 2 74 0 100 -2 26 -3 2 -3 -53z"/>
<path d="M6025 3011 c-3 -6 3 -9 14 -8 11 0 17 5 15 9 -7 11 -22 10 -29 -1z"/>
<path d="M6601 3009 c-17 -7 -22 -15 -18 -29 3 -13 0 -20 -9 -20 -8 0 -14 -8
-14 -17 0 -12 11 -6 40 22 53 52 54 65 1 44z"/>
<path d="M7131 3017 c2 -1 13 -9 24 -17 19 -14 19 -14 6 3 -7 9 -18 17 -24 17
-6 0 -8 -1 -6 -3z"/>
<path d="M7263 2935 c0 -38 2 -53 4 -32 2 20 2 52 0 70 -2 17 -4 1 -4 -38z"/>
<path d="M6050 2970 c0 -5 7 -10 15 -10 8 0 15 5 15 10 0 6 -7 10 -15 10 -8 0
-15 -4 -15 -10z"/>
<path d="M6151 2964 c0 -11 3 -14 6 -6 3 7 2 16 -1 19 -3 4 -6 -2 -5 -13z"/>
<path d="M7372 2842 c-2 -119 -3 -123 -26 -132 -13 -5 -27 -14 -31 -19 -11
-18 8 -12 38 12 l28 22 -3 120 -4 120 -2 -123z"/>
<path d="M6574 2916 c-8 -9 -7 -15 2 -23 9 -9 13 -9 17 1 8 20 -6 36 -19 22z"/>
<path d="M6028 2913 c6 -3 10 -9 6 -14 -3 -5 2 -9 10 -9 25 0 19 26 -6 27 -13
0 -17 -1 -10 -4z"/>
<path d="M7055 2910 c-3 -5 -1 -10 4 -10 6 0 11 5 11 10 0 6 -2 10 -4 10 -3 0
-8 -4 -11 -10z"/>
<path d="M7140 2905 c-11 -13 -10 -14 4 -9 9 3 16 10 16 15 0 13 -6 11 -20 -6z"/>
<path d="M6405 2850 c-13 -6 -15 -9 -5 -9 8 0 22 4 30 9 18 12 2 12 -25 0z"/>
<path d="M7271 2844 c0 -11 3 -14 6 -6 3 7 2 16 -1 19 -3 4 -6 -2 -5 -13z"/>
<path d="M7230 2813 c-14 -7 -18 -13 -10 -13 17 0 47 17 40 23 -3 2 -16 -2
-30 -10z"/>
<path d="M5898 2808 c5 -5 16 -8 23 -6 8 3 3 7 -10 11 -17 4 -21 3 -13 -5z"/>
<path d="M2833 2773 c15 -16 25 -32 22 -36 -3 -4 -2 -5 1 -2 4 2 22 -7 40 -22
l34 -25 0 38 c0 55 -9 64 -71 71 l-54 6 28 -30z"/>
<path d="M6380 2766 c0 -8 5 -18 10 -21 6 -3 10 3 10 14 0 12 -4 21 -10 21 -5
0 -10 -6 -10 -14z"/>
<path d="M3019 2736 c14 -14 35 -26 48 -26 16 0 23 -6 23 -20 0 -11 5 -20 10
-20 6 0 10 18 10 40 0 31 -4 40 -17 40 -10 0 -36 3 -58 7 l-40 6 24 -27z"/>
<path d="M5751 2734 c0 -11 3 -14 6 -6 3 7 2 16 -1 19 -3 4 -6 -2 -5 -13z"/>
<path d="M3196 2718 c-32 -45 -10 -139 36 -154 52 -16 80 95 37 150 -25 32
-53 33 -73 4z"/>
<path d="M6525 2710 c-3 -5 -1 -10 4 -10 6 0 11 5 11 10 0 6 -2 10 -4 10 -3 0
-8 -4 -11 -10z"/>
<path d="M6867 2705 c-4 -8 -1 -17 6 -21 7 -4 9 -4 5 1 -4 4 -3 14 3 22 7 8 8
13 1 13 -5 0 -12 -7 -15 -15z"/>
<path d="M3158 2473 c7 -3 16 -2 19 1 4 3 -2 6 -13 5 -11 0 -14 -3 -6 -6z"/>
<path d="M2980 2106 c0 -8 16 -15 43 -19 23 -3 96 -17 162 -31 110 -24 209
-45 464 -97 52 -10 97 -16 100 -14 12 13 -23 25 -144 50 -320 65 -618 125
-621 125 -2 0 -4 -6 -4 -14z"/>
</g>
</svg>
