<?xml version="1.0" standalone="no"?>
<!DOCTYPE svg PUBLIC "-//W3C//DTD SVG 20010904//EN"
 "http://www.w3.org/TR/2001/REC-SVG-20010904/DTD/svg10.dtd">
<svg version="1.0" xmlns="http://www.w3.org/2000/svg"
 width="1400.000000pt" height="1000.000000pt" viewBox="0 0 1400.000000 1000.000000"
 preserveAspectRatio="xMidYMid meet">

<g transform="translate(0.000000,1000.000000) scale(0.100000,-0.100000)"
fill="#000000" stroke="none">
<path d="M7908 7954 c-5 -4 -8 -42 -8 -84 l0 -77 37 -1 c45 -2 63 12 63 50 0
49 -17 71 -50 64 -26 -5 -29 -2 -32 25 -2 17 -6 27 -10 23z m70 -105 c2 -27
-1 -38 -14 -43 -23 -9 -44 11 -44 44 0 33 8 42 35 38 15 -2 21 -12 23 -39z"/>
<path d="M8087 7953 c-11 -11 -8 -163 3 -163 6 0 10 35 10 85 0 85 -1 91 -13
78z"/>
<path d="M8270 7929 c0 -26 -3 -29 -20 -24 -35 11 -60 -12 -60 -54 0 -46 16
-62 59 -59 l31 2 0 83 c0 46 -2 83 -5 83 -3 0 -5 -14 -5 -31z m-2 -75 c3 -34
-17 -58 -42 -48 -10 4 -16 18 -16 38 0 39 7 48 35 44 14 -2 21 -12 23 -34z"/>
<path d="M8517 7953 c-4 -3 -7 -16 -7 -28 0 -16 -6 -21 -27 -20 -19 0 -31 -8
-42 -27 -14 -25 -14 -31 -1 -55 12 -22 24 -28 53 -30 l37 -1 0 84 c0 84 -1 90
-13 77z m-12 -108 c0 -33 -4 -40 -19 -40 -26 0 -40 26 -32 59 5 21 12 27 29
24 18 -3 22 -9 22 -43z"/>
<path d="M9022 7948 c-7 -7 -12 -17 -12 -24 0 -7 -6 -15 -12 -18 -10 -5 -10
-7 0 -12 7 -3 12 -25 12 -55 0 -27 5 -49 10 -49 6 0 10 22 10 49 0 30 5 52 13
55 10 5 10 7 0 12 -18 8 -16 34 2 34 8 0 15 5 15 10 0 14 -23 13 -38 -2z"/>
<path d="M9200 7876 c0 -51 4 -86 10 -86 6 0 10 33 10 79 0 44 -4 83 -10 86
-6 4 -10 -25 -10 -79z"/>
<path d="M9257 7953 c-11 -11 -8 -163 3 -163 6 0 10 35 10 85 0 85 -1 91 -13
78z"/>
<path d="M9617 7931 c-24 -41 -22 -117 4 -160 11 -18 22 -31 25 -28 3 3 -2 17
-11 31 -23 34 -23 112 -1 154 21 40 7 43 -17 3z"/>
<path d="M10092 7948 c-7 -7 -12 -17 -12 -24 0 -7 -6 -15 -12 -18 -10 -5 -10
-7 0 -12 7 -3 12 -25 12 -55 0 -27 5 -49 10 -49 6 0 10 22 10 49 0 30 5 52 13
55 10 5 10 7 0 12 -18 8 -16 34 2 34 8 0 15 5 15 10 0 14 -23 13 -38 -2z"/>
<path d="M10320 7877 l0 -85 42 2 c39 1 43 4 51 33 13 45 -14 88 -49 79 -20
-5 -24 -3 -24 18 0 14 -4 28 -10 31 -6 4 -10 -25 -10 -78z m74 -3 c14 -38 -8
-80 -37 -68 -17 6 -25 63 -10 77 12 13 41 7 47 -9z"/>
<path d="M10500 7876 c0 -51 4 -86 10 -86 6 0 10 33 10 79 0 44 -4 83 -10 86
-6 4 -10 -25 -10 -79z"/>
<path d="M10680 7930 c0 -27 -3 -30 -21 -25 -43 14 -75 -47 -49 -96 8 -14 20
-18 50 -17 l40 1 0 78 c0 43 -4 81 -10 84 -6 4 -10 -7 -10 -25z m-2 -81 c3
-40 -19 -59 -44 -38 -28 23 -13 82 20 77 16 -2 22 -11 24 -39z"/>
<path d="M10930 7930 c0 -27 -3 -30 -24 -24 -31 7 -56 -19 -56 -60 0 -41 18
-57 59 -54 l31 2 0 83 c0 46 -2 83 -5 83 -3 0 -5 -14 -5 -30z m-2 -76 c3 -34
-17 -58 -42 -48 -10 4 -16 18 -16 38 0 39 7 48 35 44 14 -2 21 -12 23 -34z"/>
<path d="M10984 7933 c20 -40 21 -119 1 -157 -22 -41 -10 -45 15 -5 29 47 24
140 -9 172 l-23 22 16 -32z"/>
<path d="M7170 7871 l0 -81 34 0 c25 0 40 7 55 26 42 54 16 120 -51 131 l-38
6 0 -82z m74 43 c33 -32 13 -104 -29 -104 -24 0 -25 3 -25 60 0 53 2 60 19 60
11 0 27 -7 35 -16z"/>
<path d="M7310 7940 c0 -5 5 -10 10 -10 6 0 10 5 10 10 0 6 -4 10 -10 10 -5 0
-10 -4 -10 -10z"/>
<path d="M7850 7940 c0 -5 5 -10 10 -10 6 0 10 5 10 10 0 6 -4 10 -10 10 -5 0
-10 -4 -10 -10z"/>
<path d="M8030 7940 c0 -5 5 -10 10 -10 6 0 10 5 10 10 0 6 -4 10 -10 10 -5 0
-10 -4 -10 -10z"/>
<path d="M8140 7940 c0 -5 5 -10 10 -10 6 0 10 5 10 10 0 6 -4 10 -10 10 -5 0
-10 -4 -10 -10z"/>
<path d="M9690 7928 c-42 -46 -16 -138 40 -138 28 0 60 22 60 41 0 14 -8 11
-30 -11 -24 -24 -34 -25 -54 -4 -18 18 -21 66 -6 95 13 24 56 25 69 2 5 -10
13 -15 17 -10 12 11 -27 47 -52 47 -13 0 -32 -10 -44 -22z"/>
<path d="M10145 7940 c-3 -5 1 -10 10 -10 9 0 13 5 10 10 -3 6 -8 10 -10 10
-2 0 -7 -4 -10 -10z"/>
<path d="M10445 7940 c-3 -5 1 -10 10 -10 9 0 13 5 10 10 -3 6 -8 10 -10 10
-2 0 -7 -4 -10 -10z"/>
<path d="M10555 7940 c-3 -5 -1 -10 4 -10 6 0 11 5 11 10 0 6 -2 10 -4 10 -3
0 -8 -4 -11 -10z"/>
<path d="M7310 7851 c0 -34 4 -61 10 -61 6 0 10 24 10 54 0 30 -4 58 -10 61
-6 4 -10 -17 -10 -54z"/>
<path d="M7378 7899 c-28 -16 -21 -39 17 -55 19 -8 35 -19 35 -24 0 -17 -29
-23 -45 -10 -9 7 -19 10 -22 6 -10 -10 17 -26 43 -26 26 0 48 24 41 44 -3 8
-19 17 -36 21 -17 4 -31 13 -31 21 0 17 31 19 48 2 6 -6 15 -8 19 -4 9 8 -24
36 -41 36 -6 0 -19 -5 -28 -11z"/>
<path d="M7480 7822 c0 -53 4 -81 10 -77 6 3 10 17 10 30 0 18 4 22 20 18 30
-8 50 15 50 57 0 45 -16 60 -58 57 l-32 -2 0 -83z m70 49 c14 -27 -4 -74 -28
-69 -12 2 -18 15 -20 46 -3 37 -1 42 17 42 11 0 25 -9 31 -19z"/>
<path d="M7616 7894 c-19 -18 -21 -75 -4 -92 19 -19 66 -15 78 7 15 30 12 66
-8 84 -23 21 -46 22 -66 1z m62 -40 c3 -34 -17 -58 -41 -48 -38 14 -24 88 16
82 16 -2 23 -11 25 -34z"/>
<path d="M7730 7848 c0 -70 18 -78 22 -10 3 40 6 47 26 50 20 3 22 0 22 -47 0
-28 5 -51 10 -51 15 0 12 97 -2 107 -7 4 -28 8 -45 8 l-33 0 0 -57z"/>
<path d="M7857 7903 c-11 -10 -8 -113 3 -113 6 0 10 27 10 60 0 61 -1 65 -13
53z"/>
<path d="M8037 7903 c-11 -10 -8 -113 3 -113 6 0 10 27 10 60 0 61 -1 65 -13
53z"/>
<path d="M8140 7851 c0 -34 4 -61 10 -61 6 0 10 24 10 54 0 30 -4 58 -10 61
-6 4 -10 -17 -10 -54z"/>
<path d="M8332 7898 c-19 -19 -14 -30 7 -17 20 13 51 6 51 -11 0 -5 -11 -10
-24 -10 -24 0 -56 -23 -56 -39 0 -17 28 -30 62 -29 l35 1 -5 51 c-3 28 -10 54
-16 58 -17 11 -41 9 -54 -4z m53 -58 c7 -11 -11 -40 -24 -40 -3 0 -12 4 -20 9
-12 8 -12 12 -2 25 15 18 37 21 46 6z"/>
<path d="M8620 7822 c0 -53 4 -81 10 -77 6 3 10 16 10 28 0 18 6 23 27 22 38
0 60 43 41 83 -11 22 -20 27 -51 27 l-37 1 0 -84z m70 52 c19 -22 1 -69 -25
-69 -16 0 -21 8 -23 43 -3 36 0 42 16 42 11 0 25 -7 32 -16z"/>
<path d="M8757 7892 c-20 -22 -22 -73 -5 -90 7 -7 24 -12 38 -12 34 0 50 17
50 55 0 55 -51 83 -83 47z m61 -43 c2 -26 -2 -38 -12 -42 -28 -11 -46 4 -46
37 0 39 7 48 35 44 15 -2 21 -12 23 -39z"/>
<path d="M8870 7848 c0 -32 4 -58 10 -58 6 0 10 20 10 45 0 31 5 47 15 51 24
9 17 22 -10 20 -24 -1 -25 -4 -25 -58z"/>
<path d="M9092 7898 c-19 -19 -14 -30 7 -17 20 13 51 6 51 -11 0 -5 -11 -10
-24 -10 -24 0 -56 -23 -56 -39 0 -18 28 -30 64 -29 l38 1 -6 50 c-3 28 -11 54
-18 59 -19 11 -42 10 -56 -4z m53 -58 c7 -11 -11 -40 -24 -40 -3 0 -12 4 -20
9 -12 8 -12 12 -2 25 15 18 37 21 46 6z"/>
<path d="M9322 7898 c-7 -7 -12 -16 -12 -22 0 -6 5 -5 12 2 16 16 48 15 48 -2
0 -7 -14 -16 -30 -20 -62 -12 -46 -66 19 -63 l38 1 -5 46 c-2 25 -9 51 -15 58
-12 15 -39 16 -55 0z m52 -57 c3 -4 0 -16 -7 -25 -14 -19 -47 -12 -47 9 0 20
44 34 54 16z"/>
<path d="M9439 7894 c-17 -20 -1 -48 30 -52 15 -2 21 -9 19 -20 -4 -18 -20
-20 -53 -6 -18 7 -19 6 -6 -10 21 -26 75 -18 79 12 3 18 -3 26 -27 35 -17 6
-31 17 -31 24 0 17 37 17 43 1 2 -7 8 -10 12 -6 11 11 -14 38 -35 38 -10 0
-23 -7 -31 -16z"/>
<path d="M9830 7890 c-24 -24 -25 -48 -4 -78 29 -42 94 -14 94 40 0 22 -34 58
-55 58 -8 0 -24 -9 -35 -20z m66 -24 c3 -13 1 -34 -6 -46 -22 -41 -69 -6 -56
43 9 36 53 38 62 3z"/>
<path d="M9944 7901 c-8 -9 -4 -111 5 -111 6 0 11 21 13 48 3 43 5 47 28 47
23 0 25 -4 28 -47 2 -27 7 -48 13 -48 12 0 12 62 -1 94 -8 22 -15 26 -46 24
-19 -2 -37 -5 -40 -7z"/>
<path d="M10153 7850 c0 -36 2 -50 4 -32 2 17 2 47 0 65 -2 17 -4 3 -4 -33z"/>
<path d="M10218 7899 c-10 -5 -18 -14 -18 -20 0 -5 8 -4 19 2 20 13 51 6 51
-11 0 -5 -11 -10 -24 -10 -35 0 -59 -26 -46 -51 8 -14 20 -18 50 -17 l40 1 0
43 c0 61 -30 88 -72 63z m48 -60 c3 -6 -1 -18 -9 -27 -13 -13 -19 -13 -32 -2
-12 10 -13 16 -4 26 14 17 35 18 45 3z"/>
<path d="M10453 7850 c0 -36 2 -50 4 -32 2 17 2 47 0 65 -2 17 -4 3 -4 -33z"/>
<path d="M10557 7903 c-11 -10 -8 -113 3 -113 6 0 10 27 10 60 0 61 -1 65 -13
53z"/>
<path d="M10744 7896 c-11 -8 -15 -18 -10 -23 5 -4 11 -2 13 5 7 18 53 15 53
-3 0 -9 -9 -15 -24 -15 -28 0 -49 -22 -44 -47 2 -14 13 -18 46 -19 l42 -2 0
47 c0 67 -30 90 -76 57z m56 -65 c0 -22 -29 -36 -43 -22 -15 15 0 41 23 41 13
0 20 -7 20 -19z"/>
<path d="M11770 7629 c0 -11 4 -18 10 -14 5 3 7 12 3 20 -7 21 -13 19 -13 -6z"/>
<path d="M11783 7594 c-8 -4 -3 -16 15 -35 15 -17 30 -38 34 -47 6 -15 7 -15
7 1 1 10 -10 29 -24 43 -14 14 -23 30 -20 35 7 10 6 10 -12 3z"/>
<path d="M11907 7579 c-12 -11 -15 -19 -8 -24 6 -3 11 -2 11 2 0 5 12 14 28
19 24 9 25 11 7 15 -12 3 -28 -2 -38 -12z"/>
<path d="M11706 7575 c-4 -13 -2 -14 14 -5 23 13 26 20 6 20 -8 0 -16 -7 -20
-15z"/>
<path d="M7210 7542 c-52 -52 -52 -132 0 -183 32 -33 73 -38 108 -13 28 20 35
14 26 -20 -9 -36 -59 -76 -95 -76 -22 0 -29 -5 -29 -20 0 -26 31 -26 88 0 58
26 81 78 82 178 0 111 -35 162 -113 162 -29 0 -46 -7 -67 -28z m111 -31 c53
-54 29 -141 -39 -141 -89 0 -87 162 1 169 5 1 22 -12 38 -28z"/>
<path d="M7497 7549 c-37 -29 -54 -88 -38 -138 21 -71 79 -98 141 -66 35 18
38 9 15 -40 -17 -34 -50 -55 -90 -55 -18 0 -25 -5 -25 -20 0 -27 34 -26 90 3
66 34 82 71 78 185 -3 92 -4 94 -36 123 -40 36 -96 39 -135 8z m86 -20 c72
-33 56 -159 -20 -159 -42 0 -63 26 -63 81 0 39 4 51 26 68 31 25 27 24 57 10z"/>
<path d="M7860 7550 c0 -18 8 -20 95 -22 l95 -3 -64 -138 c-83 -177 -84 -180
-55 -175 19 2 35 30 95 163 40 88 73 168 73 178 1 15 -11 17 -119 17 -113 0
-120 -1 -120 -20z"/>
<path d="M8191 7544 c-25 -20 -31 -34 -31 -64 0 -22 8 -47 19 -61 19 -23 19
-24 -5 -52 -34 -41 -32 -90 5 -128 25 -24 38 -29 79 -29 71 0 112 34 112 94 0
32 -6 48 -25 66 -25 23 -25 24 -7 44 28 31 34 55 21 93 -21 64 -112 84 -168
37z m117 -32 c21 -27 15 -70 -13 -88 -54 -35 -111 14 -85 75 17 43 69 50 98
13z m-4 -153 c47 -37 30 -103 -31 -115 -26 -5 -37 -1 -58 20 -31 31 -28 69 7
99 27 22 49 22 82 -4z"/>
<path d="M8571 7556 c-29 -35 -151 -231 -151 -242 0 -9 22 -14 78 -16 l77 -3
3 -42 c3 -34 7 -43 22 -43 15 0 19 9 22 43 2 35 7 43 26 45 31 5 29 32 -3 32
l-25 0 0 120 c0 111 -1 120 -19 120 -10 0 -24 -6 -30 -14z m9 -141 l0 -85 -55
0 c-30 0 -55 2 -55 4 0 7 102 166 106 166 2 0 4 -38 4 -85z"/>
<path d="M8730 7548 c-45 -48 -14 -138 48 -138 48 0 72 25 72 76 0 76 -72 114
-120 62z m86 -32 c10 -42 1 -71 -24 -74 -44 -7 -66 34 -42 79 16 28 58 25 66
-5z"/>
<path d="M11661 7531 c-8 -5 -9 -11 -3 -15 5 -3 12 1 16 9 6 17 6 18 -13 6z"/>
<path d="M8917 7494 c-13 -22 -52 -84 -86 -138 -43 -68 -59 -102 -52 -109 6
-6 12 -9 14 -6 2 2 41 64 87 137 57 93 79 137 72 144 -7 7 -18 -2 -35 -28z"/>
<path d="M11630 7516 c0 -2 8 -10 18 -17 15 -13 16 -12 3 4 -13 16 -21 21 -21
13z"/>
<path d="M11595 7501 c-3 -5 -2 -12 3 -15 5 -3 9 1 9 9 0 17 -3 19 -12 6z"/>
<path d="M11591 7462 c-1 -8 -6 -10 -13 -6 -8 5 -7 1 2 -10 15 -19 26 -7 17
17 -4 9 -6 9 -6 -1z"/>
<path d="M3875 7410 c-3 -6 1 -7 9 -4 18 7 21 14 7 14 -6 0 -13 -4 -16 -10z"/>
<path d="M6745 7410 c-16 -7 -17 -9 -3 -9 9 -1 20 4 23 9 7 11 7 11 -20 0z"/>
<path d="M3923 7403 c9 -2 23 -2 30 0 6 3 -1 5 -18 5 -16 0 -22 -2 -12 -5z"/>
<path d="M3792 7356 c-18 -21 -19 -26 -6 -37 13 -11 18 -6 15 14 -1 4 3 17 9
27 14 27 8 25 -18 -4z"/>
<path d="M8901 7344 c-43 -54 -11 -134 53 -134 44 0 71 30 71 80 0 76 -80 110
-124 54z m88 -26 c4 -12 5 -34 1 -48 -5 -19 -13 -25 -36 -25 -26 0 -29 4 -32
33 -5 47 3 62 33 62 17 0 28 -7 34 -22z"/>
<path d="M3761 7254 c0 -11 3 -14 6 -6 3 7 2 16 -1 19 -3 4 -6 -2 -5 -13z"/>
<path d="M7747 7247 c-8 -21 8 -39 29 -35 27 5 25 42 -2 46 -12 2 -24 -3 -27
-11z"/>
<path d="M6771 7074 c0 -11 3 -14 6 -6 3 7 2 16 -1 19 -3 4 -6 -2 -5 -13z"/>
<path d="M5803 5733 c71 -2 183 -2 250 0 67 1 10 3 -128 3 -137 0 -192 -2
-122 -3z"/>
<path d="M7240 5730 c0 -5 7 -7 15 -4 8 4 15 8 15 10 0 2 -7 4 -15 4 -8 0 -15
-4 -15 -10z"/>
<path d="M8297 5733 c-4 -3 -7 -11 -7 -17 0 -6 5 -5 12 2 6 6 9 14 7 17 -3 3
-9 2 -12 -2z"/>
<path d="M4767 4447 c-18 -13 -21 -28 -19 -99 2 -60 22 -63 22 -4 0 26 5 47
13 50 10 5 10 7 0 12 -19 8 -16 32 5 36 11 2 13 6 6 10 -6 4 -18 2 -27 -5z"/>
<path d="M1830 4440 c0 -5 9 -10 20 -10 18 0 20 -7 20 -65 0 -37 4 -65 10 -65
6 0 10 28 10 65 0 63 1 65 25 65 14 0 25 5 25 10 0 6 -25 10 -55 10 -30 0 -55
-4 -55 -10z"/>
<path d="M3480 4426 c0 -19 -4 -23 -19 -19 -22 6 -51 -21 -51 -48 0 -39 19
-59 55 -59 l35 0 0 75 c0 43 -4 75 -10 75 -5 0 -10 -11 -10 -24z m2 -61 c6
-32 -14 -60 -36 -52 -16 6 -23 57 -9 70 15 16 41 6 45 -18z"/>
<path d="M4055 4440 c-4 -6 5 -10 19 -10 25 0 26 -2 26 -65 0 -37 4 -65 10
-65 6 0 10 28 10 65 0 63 1 65 26 65 14 0 23 4 19 10 -3 6 -28 10 -55 10 -27
0 -52 -4 -55 -10z"/>
<path d="M4815 4440 c-3 -5 -1 -10 4 -10 6 0 11 5 11 10 0 6 -2 10 -4 10 -3 0
-8 -4 -11 -10z"/>
<path d="M5103 4375 c0 -44 2 -61 4 -37 2 23 2 59 0 80 -2 20 -4 1 -4 -43z"/>
<path d="M5150 4440 c0 -5 5 -10 11 -10 5 0 7 5 4 10 -3 6 -8 10 -11 10 -2 0
-4 -4 -4 -10z"/>
<path d="M5480 4426 c0 -19 -4 -23 -19 -19 -22 6 -51 -21 -51 -48 0 -39 19
-59 55 -59 l35 0 0 75 c0 43 -4 75 -10 75 -5 0 -10 -11 -10 -24z m0 -77 c0
-36 -2 -40 -22 -37 -40 5 -37 78 2 78 17 0 20 -6 20 -41z"/>
<path d="M1950 4395 c-14 -17 -7 -19 19 -6 21 12 51 -3 36 -18 -6 -5 -21 -11
-35 -13 -19 -2 -25 -9 -25 -28 0 -23 4 -25 43 -26 42 -2 42 -2 42 33 0 19 -5
43 -10 54 -13 23 -52 25 -70 4z m58 -62 c-2 -10 -13 -19 -26 -21 -17 -3 -22 2
-22 17 0 16 6 21 26 21 19 0 25 -5 22 -17z"/>
<path d="M2062 4350 c1 -52 2 -52 5 -11 3 32 9 44 24 48 27 8 24 21 -6 19 -24
-1 -25 -4 -23 -56z"/>
<path d="M2134 4384 c-24 -36 -9 -78 30 -82 16 -2 34 2 40 8 8 9 6 11 -12 5
-23 -7 -52 8 -52 26 0 5 18 9 40 9 44 0 47 5 24 38 -20 29 -50 28 -70 -4z m54
4 c19 -19 14 -28 -18 -28 -16 0 -30 4 -30 8 0 9 21 32 30 32 3 0 11 -5 18 -12z"/>
<path d="M2250 4395 c-14 -17 0 -21 17 -4 13 13 33 4 33 -16 0 -7 -12 -15 -27
-17 -22 -2 -28 -8 -28 -28 0 -22 5 -25 38 -28 l37 -3 0 43 c0 24 -5 49 -12 56
-16 16 -43 15 -58 -3z m50 -65 c-11 -21 -35 -27 -45 -10 -10 16 4 30 31 30 22
0 23 -3 14 -20z"/>
<path d="M2360 4395 c-16 -19 0 -40 35 -49 14 -4 25 -11 25 -17 0 -16 -29 -22
-45 -9 -18 15 -34 5 -18 -11 6 -6 23 -9 39 -7 23 2 29 8 29 28 0 17 -6 26 -20
28 -11 2 -24 8 -30 13 -15 15 16 31 32 17 8 -6 17 -8 20 -4 9 9 -16 26 -38 26
-9 0 -22 -7 -29 -15z"/>
<path d="M2515 4402 c-10 -10 -5 -142 5 -142 6 0 10 9 10 19 0 15 8 21 32 23
63 6 54 102 -10 104 -17 1 -34 -1 -37 -4z m71 -38 c4 -17 1 -31 -9 -41 -24
-24 -47 -9 -47 32 0 31 3 35 25 35 18 0 26 -7 31 -26z"/>
<path d="M2630 4354 c0 -30 5 -54 10 -54 6 0 10 20 10 45 0 33 4 45 15 45 8 0
15 4 15 9 0 5 -11 9 -25 9 -24 0 -25 -4 -25 -54z"/>
<path d="M2704 4385 c-23 -35 -7 -79 30 -83 35 -4 56 13 56 49 0 56 -57 79
-86 34z m66 -37 c0 -32 -23 -47 -45 -28 -20 16 -19 45 1 65 22 21 44 3 44 -37z"/>
<path d="M2824 4385 c-25 -38 -9 -78 33 -85 25 -4 30 -8 24 -19 -6 -9 -18 -12
-37 -7 -27 6 -28 5 -10 -9 24 -18 27 -19 51 -1 16 11 20 27 20 77 l0 62 -32 4
c-26 3 -35 -1 -49 -22z m64 -33 c2 -22 -2 -34 -12 -38 -22 -8 -46 13 -46 41 0
28 9 37 35 33 15 -2 21 -12 23 -36z"/>
<path d="M2942 4350 c1 -51 2 -52 5 -11 3 32 9 44 24 48 28 8 23 23 -6 21 -24
-2 -25 -5 -23 -58z"/>
<path d="M3014 4395 c-21 -16 -12 -20 15 -6 21 12 51 -3 36 -18 -6 -5 -21 -11
-35 -13 -19 -2 -25 -9 -25 -28 0 -23 4 -25 43 -26 42 -2 42 -2 42 33 0 66 -32
91 -76 58z m54 -62 c-2 -10 -12 -18 -23 -18 -11 0 -21 8 -23 18 -3 13 3 17 23
17 20 0 26 -4 23 -17z"/>
<path d="M3122 4350 l1 -55 6 45 c5 37 10 46 29 48 20 3 22 -1 22 -42 0 -58
18 -61 22 -3 2 35 7 43 26 45 20 3 22 -1 22 -42 0 -25 5 -46 10 -46 15 0 12
87 -2 97 -7 4 -41 8 -75 8 l-63 1 2 -56z"/>
<path d="M3310 4396 c-15 -19 0 -22 18 -4 10 10 16 8 29 -5 18 -17 13 -22 -32
-29 -14 -2 -20 -11 -20 -28 0 -22 4 -25 40 -26 l40 -2 -5 52 c-4 46 -8 51 -31
54 -14 2 -31 -4 -39 -12z m60 -54 c0 -12 -23 -32 -37 -32 -7 0 -13 9 -13 20 0
15 7 20 25 20 14 0 25 -4 25 -8z"/>
<path d="M3544 4395 c-21 -16 -12 -20 15 -6 21 12 51 -3 36 -18 -6 -5 -21 -11
-35 -13 -19 -2 -25 -9 -25 -28 0 -23 4 -25 43 -26 42 -2 42 -2 42 33 0 66 -32
91 -76 58z m54 -62 c-2 -10 -12 -18 -23 -18 -11 0 -21 8 -23 18 -3 13 3 17 23
17 20 0 26 -4 23 -17z"/>
<path d="M3663 4403 c-25 -9 -14 -44 17 -54 17 -6 30 -17 30 -25 0 -16 -36
-19 -45 -4 -3 6 -11 10 -17 10 -7 0 -6 -6 2 -15 17 -20 66 -19 74 1 8 21 -8
40 -40 48 -21 6 -24 9 -14 21 9 11 17 12 30 5 27 -14 34 -12 20 5 -12 15 -34
18 -57 8z"/>
<path d="M3803 4396 c3 -8 11 -33 18 -55 7 -23 17 -40 22 -38 13 4 49 107 37
107 -4 0 -15 -19 -22 -42 l-14 -42 -17 42 c-9 23 -20 42 -23 42 -3 0 -4 -6 -1
-14z"/>
<path d="M3923 4403 c-25 -9 -14 -44 17 -54 17 -6 30 -17 30 -25 0 -17 -31
-18 -49 -1 -11 10 -13 9 -9 -3 3 -10 17 -15 39 -15 27 0 34 4 34 20 0 11 -11
25 -25 32 -14 7 -25 18 -25 25 0 14 8 14 40 2 18 -7 18 -6 6 9 -13 17 -34 20
-58 10z"/>
<path d="M4180 4396 c-15 -19 0 -22 18 -4 10 10 16 8 29 -5 18 -17 13 -22 -32
-29 -14 -2 -20 -11 -20 -28 0 -22 5 -25 40 -28 l41 -3 -6 53 c-4 48 -7 53 -31
56 -14 2 -31 -4 -39 -12z m60 -54 c0 -12 -23 -32 -37 -32 -7 0 -13 9 -13 20 0
15 7 20 25 20 14 0 25 -4 25 -8z"/>
<path d="M4292 4350 c1 -51 2 -52 5 -11 3 32 9 44 24 48 28 8 23 23 -6 21 -24
-2 -25 -5 -23 -58z"/>
<path d="M4367 4392 c-33 -37 -13 -92 33 -92 16 0 32 5 36 11 4 8 -1 9 -15 4
-22 -7 -51 9 -51 26 0 5 16 9 35 9 27 0 35 4 35 18 0 41 -45 55 -73 24z m53
-18 c0 -8 -10 -14 -25 -14 -27 0 -32 9 -14 27 14 14 39 6 39 -13z"/>
<path d="M4480 4395 c-14 -17 0 -21 17 -4 13 13 33 4 33 -17 0 -8 -10 -14 -25
-14 -29 0 -50 -31 -33 -48 7 -7 27 -12 45 -12 32 0 33 1 33 43 0 24 -5 48 -12
55 -16 16 -43 15 -58 -3z m50 -60 c0 -9 -7 -18 -16 -22 -18 -7 -39 11 -30 26
11 17 46 13 46 -4z"/>
<path d="M4592 4398 c-20 -20 -14 -34 19 -49 18 -8 32 -18 32 -24 1 -16 -35
-19 -44 -4 -4 7 -11 10 -15 6 -13 -13 13 -29 42 -25 43 5 46 42 5 56 -17 6
-31 15 -31 21 0 17 20 23 36 10 8 -6 18 -9 21 -5 9 9 -16 26 -37 26 -9 0 -21
-5 -28 -12z"/>
<path d="M4823 4355 c0 -33 2 -45 4 -27 2 18 2 45 0 60 -2 15 -4 0 -4 -33z"/>
<path d="M4872 4350 l1 -55 6 45 c5 37 10 46 29 48 20 3 22 -1 22 -42 0 -26 5
-46 11 -46 6 0 9 21 7 53 l-3 52 -37 0 -38 1 2 -56z"/>
<path d="M4990 4396 c-15 -19 0 -22 18 -4 10 10 16 8 29 -5 18 -17 13 -22 -32
-29 -14 -2 -20 -11 -20 -28 0 -22 4 -25 40 -26 l40 -2 -5 52 c-4 46 -8 51 -31
54 -14 2 -31 -4 -39 -12z m60 -54 c0 -12 -23 -32 -37 -32 -7 0 -13 9 -13 20 0
15 7 20 25 20 14 0 25 -4 25 -8z"/>
<path d="M5150 4356 c0 -31 5 -56 10 -56 6 0 10 22 10 49 0 28 -4 53 -10 56
-6 4 -10 -15 -10 -49z"/>
<path d="M5200 4400 c0 -5 12 -10 26 -10 l26 0 -24 -32 c-43 -58 -43 -58 9
-56 36 1 40 2 16 5 -18 2 -33 7 -33 10 0 3 11 21 25 39 33 44 32 54 -10 54
-19 0 -35 -4 -35 -10z"/>
<path d="M5310 4396 c-15 -19 0 -22 18 -4 10 10 16 8 29 -5 18 -17 13 -22 -32
-29 -14 -2 -20 -11 -20 -28 0 -22 4 -25 40 -26 l40 -2 -5 52 c-4 46 -8 51 -31
54 -14 2 -31 -4 -39 -12z m60 -54 c0 -12 -23 -32 -37 -32 -7 0 -13 9 -13 20 0
15 7 20 25 20 14 0 25 -4 25 -8z"/>
<path d="M5544 4395 c-21 -16 -12 -20 15 -6 19 11 47 -2 37 -17 -3 -5 -19 -12
-37 -16 -25 -5 -30 -10 -27 -28 3 -20 10 -23 46 -24 l42 -2 0 42 c0 62 -32 84
-76 51z m54 -62 c-2 -10 -12 -18 -23 -18 -11 0 -21 8 -23 18 -3 13 3 17 23 17
20 0 26 -4 23 -17z"/>
<path d="M5663 4403 c-25 -9 -14 -44 17 -54 17 -6 30 -17 30 -25 0 -16 -36
-19 -45 -4 -3 6 -11 10 -17 10 -6 0 -6 -6 2 -16 8 -9 25 -14 44 -12 39 4 43
37 6 55 -14 7 -25 18 -25 25 0 14 8 14 40 2 18 -7 18 -6 6 9 -13 17 -34 20
-58 10z"/>
<path d="M9070 3580 c0 -40 4 -70 10 -70 6 0 10 30 10 70 0 40 -4 70 -10 70
-6 0 -10 -30 -10 -70z"/>
<path d="M8470 3575 c0 -37 4 -65 10 -65 6 0 10 13 10 29 0 25 5 30 28 34 l27
4 -27 2 c-23 1 -28 6 -28 25 0 20 6 25 33 29 28 3 26 4 -10 5 l-43 2 0 -65z"/>
<path d="M9170 3621 c-15 -29 -12 -77 6 -95 21 -21 64 -20 80 2 16 21 18 66 4
93 -7 13 -21 19 -45 19 -24 0 -38 -6 -45 -19z m68 -3 c17 -17 15 -73 -4 -89
-33 -27 -64 21 -50 77 7 26 34 32 54 12z"/>
<path d="M8838 3619 c-2 -6 -1 -32 2 -57 4 -37 9 -47 25 -49 11 -2 14 0 8 3
-16 7 -17 84 -2 84 6 0 4 7 -5 15 -17 18 -23 19 -28 4z"/>
<path d="M8902 3614 c-7 -8 -8 -15 -2 -19 6 -3 10 -24 10 -46 0 -31 4 -39 18
-38 10 0 12 3 5 6 -15 5 -17 64 -4 79 6 5 5 13 -3 20 -8 8 -15 7 -24 -2z"/>
<path d="M7870 3598 c0 -4 7 -8 15 -8 8 0 15 4 15 8 0 5 -7 9 -15 9 -8 0 -15
-4 -15 -9z"/>
<path d="M8570 3558 c0 -27 5 -48 10 -48 6 0 10 16 10 36 0 23 6 41 17 49 16
12 15 13 -10 12 -25 -2 -27 -5 -27 -49z"/>
<path d="M8640 3595 c-14 -17 0 -21 17 -4 6 6 16 8 22 5 17 -11 13 -26 -8 -26
-24 0 -45 -25 -37 -45 3 -9 18 -15 41 -15 34 0 35 1 35 38 0 57 -40 83 -70 47z
m50 -50 c0 -16 -27 -32 -37 -22 -3 4 -3 13 0 22 8 20 37 20 37 0z"/>
<path d="M8746 3595 c-19 -20 -21 -45 -3 -69 15 -21 58 -18 65 4 5 13 3 13
-11 1 -24 -20 -47 -6 -47 28 0 36 28 50 48 24 13 -17 14 -17 10 2 -4 25 -40
31 -62 10z"/>
<path d="M8970 3595 c-14 -17 0 -21 17 -4 6 6 16 8 22 5 17 -11 13 -26 -8 -26
-24 0 -45 -25 -37 -45 3 -9 18 -15 41 -15 34 0 35 1 35 38 0 57 -40 83 -70 47z
m50 -50 c0 -16 -27 -32 -37 -22 -3 4 -3 13 0 22 8 20 37 20 37 0z"/>
<path d="M9295 3602 c-9 -10 -5 -92 5 -92 6 0 10 18 10 39 0 67 45 64 53 -4 3
-33 4 -31 3 10 -1 49 -1 50 -33 51 -18 1 -35 -1 -38 -4z"/>
<path d="M9412 3598 c-7 -7 -12 -24 -12 -38 0 -14 5 -31 12 -38 14 -14 54 -16
63 -2 4 6 -5 7 -23 4 -21 -4 -31 -2 -35 10 -5 13 1 16 28 16 27 0 35 4 35 18
0 22 -19 42 -40 42 -9 0 -21 -5 -28 -12z m46 -16 c2 -7 -6 -12 -17 -12 -21 0
-27 11 -14 24 9 9 26 2 31 -12z"/>
<path d="M7940 3549 c0 -5 5 -7 10 -4 6 3 10 8 10 11 0 2 -4 4 -10 4 -5 0 -10
-5 -10 -11z"/>
<path d="M7765 3490 c-17 -8 -17 -9 7 -7 15 1 24 5 22 9 -3 4 -6 8 -7 7 -1 0
-11 -4 -22 -9z"/>
<path d="M8040 3451 c0 -5 5 -13 10 -16 6 -3 10 -2 10 4 0 5 -4 13 -10 16 -5
3 -10 2 -10 -4z"/>
<path d="M7739 3393 c4 -51 6 -51 15 -2 4 26 3 38 -6 42 -10 3 -12 -7 -9 -40z"/>
<path d="M8040 3380 c0 -11 5 -20 10 -20 6 0 10 9 10 20 0 11 -4 20 -10 20 -5
0 -10 -9 -10 -20z"/>
<path d="M7705 3290 c-3 -5 -3 -10 2 -10 4 0 2 -4 -5 -9 -11 -7 -11 -9 0 -14
10 -3 14 3 14 19 0 26 -2 29 -11 14z"/>
<path d="M9730 3170 c0 -60 4 -100 10 -100 6 0 10 22 10 49 0 46 17 81 39 81
19 0 31 -29 31 -77 0 -30 4 -53 10 -53 7 0 10 25 8 68 l-3 67 -43 0 c-41 0
-42 1 -42 33 0 17 -4 32 -10 32 -6 0 -10 -40 -10 -100z"/>
<path d="M10390 3237 c0 -32 -2 -33 -30 -29 -17 2 -37 -1 -44 -8 -24 -19 -29
-65 -11 -99 14 -28 20 -31 60 -29 l45 1 0 99 c0 59 -4 98 -10 98 -5 0 -10 -15
-10 -33z m-2 -100 c-3 -39 -5 -42 -33 -42 -28 0 -30 3 -33 40 -4 47 18 71 50
54 15 -8 18 -19 16 -52z"/>
<path d="M10697 3263 c-4 -3 -7 -14 -7 -24 0 -10 -8 -22 -17 -28 -17 -9 -17
-10 0 -16 13 -6 17 -19 17 -66 0 -33 4 -59 10 -59 6 0 10 27 10 60 0 47 3 60
15 60 8 0 15 5 15 10 0 6 -7 10 -15 10 -23 0 -18 36 8 48 22 11 22 11 -4 11
-14 1 -29 -2 -32 -6z"/>
<path d="M11130 3170 c0 -82 3 -100 15 -100 12 0 15 18 15 100 0 82 -3 100
-15 100 -12 0 -15 -18 -15 -100z"/>
<path d="M11630 3237 c0 -32 -2 -33 -32 -29 -39 6 -58 -17 -58 -68 0 -49 24
-70 78 -67 l42 1 0 98 c0 80 -3 98 -15 98 -10 0 -15 -10 -15 -33z m-16 -43
c23 -9 22 -92 0 -101 -42 -16 -73 57 -39 91 19 18 18 18 39 10z"/>
<path d="M8480 3165 l0 -95 55 0 c30 0 55 5 55 10 0 6 -20 10 -45 10 l-45 0 0
85 c0 50 -4 85 -10 85 -6 0 -10 -38 -10 -95z"/>
<path d="M8852 3237 c-30 -31 -30 -104 -1 -141 47 -59 129 -17 129 66 0 40
-14 77 -34 90 -23 16 -73 8 -94 -15z m98 -23 c23 -60 0 -124 -45 -124 -30 0
-55 35 -55 75 0 44 25 75 61 75 22 0 32 -6 39 -26z"/>
<path d="M9000 3250 c0 -5 14 -10 30 -10 l30 0 0 -85 c0 -50 4 -85 10 -85 6 0
10 35 10 85 l0 85 30 0 c17 0 30 5 30 10 0 6 -30 10 -70 10 -40 0 -70 -4 -70
-10z"/>
<path d="M9238 3247 c-35 -14 -37 -30 -3 -21 l25 6 0 -81 c0 -47 4 -81 10 -81
6 0 10 38 10 95 0 52 -3 95 -7 94 -5 -1 -20 -6 -35 -12z"/>
<path d="M9391 3195 c-23 -35 -41 -67 -41 -69 0 -3 19 -6 43 -8 35 -2 43 -7
45 -25 4 -31 22 -29 22 1 0 15 7 26 18 29 16 4 16 5 0 6 -15 1 -18 11 -18 66
0 85 -16 85 -69 0z m45 -51 c-6 -14 -56 -20 -56 -6 0 4 12 25 28 47 l27 40 3
-33 c2 -19 1 -40 -2 -48z"/>
<path d="M9526 3219 c-4 -23 -4 -44 -1 -48 3 -3 21 -4 40 -3 26 3 35 -1 40
-17 10 -33 -3 -61 -30 -61 -13 0 -28 7 -33 16 -5 9 -14 15 -21 13 -23 -8 18
-49 49 -49 38 0 60 24 60 64 0 40 -15 56 -56 56 -28 0 -31 3 -26 25 4 22 10
25 43 25 22 0 39 5 39 10 0 6 -22 10 -49 10 l-48 0 -7 -41z"/>
<path d="M10240 3250 c0 -5 5 -10 10 -10 6 0 10 5 10 10 0 6 -4 10 -10 10 -5
0 -10 -4 -10 -10z"/>
<path d="M10770 3250 c0 -5 5 -10 10 -10 6 0 10 5 10 10 0 6 -4 10 -10 10 -5
0 -10 -4 -10 -10z"/>
<path d="M11200 3250 c0 -5 5 -10 10 -10 6 0 10 5 10 10 0 6 -4 10 -10 10 -5
0 -10 -4 -10 -10z"/>
<path d="M8630 3195 c-18 -22 -4 -31 16 -11 9 10 23 15 31 12 8 -3 17 -6 19
-6 2 0 4 -6 4 -14 0 -8 -15 -17 -35 -20 -41 -8 -61 -36 -45 -66 8 -16 20 -19
58 -19 l48 2 -4 56 c-2 31 -5 62 -7 69 -6 17 -70 15 -85 -3z m68 -77 c-4 -31
-58 -40 -58 -10 0 25 8 32 37 32 20 0 24 -5 21 -22z"/>
<path d="M9890 3195 c-19 -22 -3 -31 18 -11 11 9 26 14 36 10 20 -8 21 -34 1
-34 -35 0 -65 -23 -65 -51 0 -31 16 -39 78 -37 32 1 32 2 32 50 0 67 -13 88
-54 88 -19 0 -39 -7 -46 -15z m68 -77 c-3 -25 -34 -36 -50 -20 -17 17 -1 42
27 42 22 0 26 -4 23 -22z"/>
<path d="M10099 3194 c-18 -22 -2 -45 42 -59 19 -7 34 -18 34 -26 0 -18 -42
-24 -61 -8 -19 16 -30 4 -14 -16 15 -18 71 -20 88 -3 24 24 13 49 -28 65 -41
16 -52 39 -25 50 9 3 25 -3 35 -12 23 -21 39 -13 20 10 -16 20 -74 19 -91 -1z"/>
<path d="M10240 3140 c0 -40 4 -70 10 -70 6 0 10 30 10 70 0 40 -4 70 -10 70
-6 0 -10 -30 -10 -70z"/>
<path d="M10466 3194 c-22 -22 -21 -87 2 -107 44 -40 102 -8 102 56 0 43 -21
67 -60 67 -16 0 -36 -7 -44 -16z m69 -10 c36 -36 -1 -114 -42 -88 -35 22 -21
104 17 104 5 0 16 -7 25 -16z"/>
<path d="M10770 3140 c0 -40 4 -70 10 -70 6 0 10 30 10 70 0 40 -4 70 -10 70
-6 0 -10 -30 -10 -70z"/>
<path d="M10830 3139 c0 -55 3 -69 15 -69 11 0 15 13 15 54 0 57 15 81 44 70
12 -5 16 -20 16 -65 0 -34 4 -59 10 -59 7 0 10 25 8 68 l-3 67 -52 2 -53 1 0
-69z"/>
<path d="M10991 3197 c-17 -21 0 -29 21 -10 14 13 23 15 35 7 29 -18 25 -30
-13 -40 -78 -19 -71 -78 10 -80 l46 -1 0 57 c0 31 -5 61 -12 68 -16 16 -73 15
-87 -1z m79 -70 c0 -18 -21 -37 -41 -37 -24 0 -33 18 -19 35 15 19 60 20 60 2z"/>
<path d="M11200 3140 c0 -40 4 -70 10 -70 6 0 10 30 10 70 0 40 -4 70 -10 70
-6 0 -10 -30 -10 -70z"/>
<path d="M11260 3200 c0 -5 16 -10 36 -10 l36 0 -35 -47 c-54 -77 -55 -73 12
-73 34 0 61 4 61 10 0 6 -18 10 -40 10 -22 0 -40 3 -40 6 0 3 16 26 35 51 19
25 35 50 35 54 0 5 -22 9 -50 9 -27 0 -50 -4 -50 -10z"/>
<path d="M11413 3204 c-15 -7 -17 -34 -3 -34 6 0 10 4 10 9 0 13 27 21 45 15
27 -11 16 -32 -19 -38 -46 -9 -62 -29 -48 -61 10 -21 18 -25 59 -24 l48 1 -5
67 -5 66 -35 2 c-19 1 -41 0 -47 -3z m65 -86 c-4 -31 -58 -40 -58 -10 0 25 8
32 37 32 20 0 24 -5 21 -22z"/>
<path d="M11713 3204 c-7 -3 -13 -12 -13 -20 0 -12 4 -12 24 1 25 17 56 11 56
-10 0 -7 -15 -16 -34 -19 -46 -9 -62 -29 -48 -61 10 -21 18 -25 59 -24 l48 1
-5 67 -5 66 -35 2 c-19 1 -41 0 -47 -3z m65 -86 c-4 -31 -58 -40 -58 -10 0 25
8 32 37 32 20 0 24 -5 21 -22z"/>
<path d="M7683 3193 c9 -2 23 -2 30 0 6 3 -1 5 -18 5 -16 0 -22 -2 -12 -5z"/>
<path d="M7738 3193 c7 -3 16 -2 19 1 4 3 -2 6 -13 5 -11 0 -14 -3 -6 -6z"/>
<path d="M7878 3193 c6 -2 18 -2 25 0 6 3 1 5 -13 5 -14 0 -19 -2 -12 -5z"/>
<path d="M9120 3150 c0 -5 14 -10 30 -10 17 0 30 5 30 10 0 6 -13 10 -30 10
-16 0 -30 -4 -30 -10z"/>
<path d="M3530 1419 c0 -12 -5 -19 -12 -16 -22 8 -48 -13 -48 -37 0 -29 19
-46 48 -43 20 1 22 7 22 59 0 32 -2 58 -5 58 -3 0 -5 -9 -5 -21z m-2 -56 c-3
-31 -34 -44 -44 -19 -9 24 3 46 26 46 17 0 21 -5 18 -27z"/>
<path d="M4530 1380 c0 -33 4 -60 10 -60 6 0 10 27 10 60 0 33 -4 60 -10 60
-6 0 -10 -27 -10 -60z"/>
<path d="M4830 1419 c0 -15 -5 -19 -15 -15 -18 6 -45 -19 -45 -43 0 -24 21
-40 48 -38 20 1 22 7 22 59 0 32 -2 58 -5 58 -3 0 -5 -9 -5 -21z m-2 -56 c-2
-17 -10 -29 -20 -31 -14 -3 -18 3 -18 27 0 25 4 31 21 31 16 0 20 -5 17 -27z"/>
<path d="M2782 1373 l2 -58 3 53 c4 48 6 52 29 52 32 0 34 -37 2 -43 -21 -4
-20 -4 3 -6 30 -1 46 24 28 45 -6 8 -24 14 -40 14 -29 0 -29 0 -27 -57z"/>
<path d="M4231 1373 c1 -32 4 -46 6 -30 3 21 10 27 31 28 l27 1 -25 7 c-39 11
-38 39 2 44 l33 4 -37 1 -38 2 1 -57z"/>
<path d="M2888 1402 c-14 -2 -18 -13 -18 -43 0 -21 5 -39 10 -39 6 0 10 15 10
34 0 19 6 36 13 39 17 6 5 14 -15 9z"/>
<path d="M2936 1394 c-29 -29 -13 -74 26 -74 20 0 42 35 34 55 -10 26 -43 37
-60 19z m42 -31 c-3 -32 -33 -43 -40 -16 -7 27 1 43 23 43 16 0 20 -6 17 -27z"/>
<path d="M3025 1393 c-19 -18 -19 -34 -1 -58 8 -11 19 -16 30 -12 11 4 16 1
16 -9 0 -12 -7 -15 -26 -11 -16 3 -22 1 -16 -5 6 -6 18 -8 28 -6 15 2 20 14
22 54 3 45 0 52 -18 57 -11 3 -27 -1 -35 -10z m43 -30 c-2 -17 -9 -28 -18 -28
-9 0 -16 11 -18 28 -3 22 1 27 18 27 17 0 21 -5 18 -27z"/>
<path d="M3267 1402 c-13 -3 -17 -13 -15 -45 l1 -42 4 38 c3 28 9 37 23 37 14
0 20 -9 23 -37 l4 -38 1 38 c2 29 6 37 21 37 15 0 21 -8 24 -37 l4 -38 1 41
c2 41 2 42 -36 46 -21 1 -45 2 -55 0z"/>
<path d="M3403 1403 c-21 -7 -15 -22 6 -16 10 3 22 0 25 -6 4 -6 -1 -11 -11
-11 -11 0 -24 -5 -30 -11 -18 -18 -3 -39 28 -39 26 0 29 3 29 35 0 35 -22 57
-47 48z m35 -55 c-7 -19 -38 -22 -38 -4 0 10 9 16 21 16 12 0 19 -5 17 -12z"/>
<path d="M3574 1395 c-11 -8 -14 -15 -7 -15 6 0 15 5 18 10 4 6 11 8 16 5 16
-11 10 -24 -13 -27 -15 -2 -23 -10 -23 -23 0 -15 8 -21 33 -23 31 -3 32 -2 32
32 0 43 -27 63 -56 41z m36 -50 c0 -8 -6 -15 -14 -15 -17 0 -28 14 -19 24 12
12 33 6 33 -9z"/>
<path d="M4378 1402 c-14 -3 -18 -13 -16 -45 l1 -42 4 38 c3 28 9 37 23 37 14
0 20 -9 23 -37 l4 -38 1 41 c2 43 -7 54 -40 46z"/>
<path d="M4463 1403 c-7 -3 -13 -9 -13 -15 0 -7 5 -7 13 1 8 6 17 8 20 4 13
-12 7 -22 -15 -25 -15 -2 -23 -10 -23 -23 0 -15 8 -21 33 -23 31 -3 32 -2 32
32 0 36 -22 58 -47 49z m27 -58 c0 -8 -7 -15 -15 -15 -8 0 -15 7 -15 15 0 8 7
15 15 15 8 0 15 -7 15 -15z"/>
<path d="M4883 1403 c-21 -7 -15 -22 6 -16 10 3 22 0 25 -6 4 -7 -1 -11 -12
-11 -24 0 -43 -22 -33 -38 4 -7 19 -11 34 -10 23 2 27 7 27 35 0 33 -23 55
-47 46z m35 -55 c-7 -19 -38 -22 -38 -4 0 10 9 16 21 16 12 0 19 -5 17 -12z"/>
<path d="M4967 1398 c-24 -13 -21 -27 8 -38 26 -10 34 -30 12 -30 -7 0 -19 6
-26 13 -11 10 -13 9 -9 -3 6 -20 35 -25 54 -9 16 13 2 39 -22 39 -8 0 -14 5
-14 11 0 6 9 9 20 6 11 -3 20 -2 20 3 0 13 -25 18 -43 8z"/>
<path d="M3112 1358 l1 -43 4 37 c3 24 10 38 21 41 12 3 11 5 -5 6 -21 1 -23
-3 -21 -41z"/>
<path d="M3160 1389 c0 -5 5 -7 10 -4 6 3 10 8 10 11 0 2 -4 4 -10 4 -5 0 -10
-5 -10 -11z"/>
<path d="M3198 1393 c19 -8 14 -21 -10 -25 -35 -5 -31 -43 5 -44 25 -1 27 2
27 37 0 31 -4 39 -17 38 -11 0 -13 -3 -5 -6z m10 -45 c-7 -19 -38 -22 -38 -4
0 10 9 16 21 16 12 0 19 -5 17 -12z"/>
<path d="M3657 1393 c-13 -12 -7 -24 18 -33 14 -5 25 -14 25 -20 0 -13 -37
-13 -43 0 -3 6 -4 5 -3 -2 4 -21 45 -22 53 -2 4 10 2 19 -4 21 -5 2 -19 11
-29 19 -18 15 -18 15 9 11 15 -2 27 0 27 4 0 10 -44 12 -53 2z"/>
<path d="M4323 1360 c0 -25 2 -35 4 -22 2 12 2 32 0 45 -2 12 -4 2 -4 -23z"/>
<path d="M4573 1360 c0 -25 2 -35 4 -22 2 12 2 32 0 45 -2 12 -4 2 -4 -23z"/>
<path d="M4628 1393 l22 -4 -20 -26 c-28 -35 -25 -43 13 -42 23 1 26 3 10 6
-28 5 -28 8 -2 44 l20 29 -33 -1 c-24 -1 -27 -3 -10 -6z"/>
<path d="M4690 1389 c0 -5 5 -7 10 -4 6 3 10 8 10 11 0 2 -4 4 -10 4 -5 0 -10
-5 -10 -11z"/>
<path d="M4728 1393 c19 -8 14 -21 -10 -25 -35 -5 -31 -42 5 -46 26 -3 27 -1
27 37 0 33 -4 41 -17 40 -11 0 -13 -3 -5 -6z m10 -45 c-7 -19 -38 -22 -38 -4
0 10 9 16 21 16 12 0 19 -5 17 -12z"/>
</g>
</svg>
