<?xml version="1.0" standalone="no"?>
<!DOCTYPE svg PUBLIC "-//W3C//DTD SVG 20010904//EN"
 "http://www.w3.org/TR/2001/REC-SVG-20010904/DTD/svg10.dtd">
<svg version="1.0" xmlns="http://www.w3.org/2000/svg"
 width="1400.000000pt" height="1000.000000pt" viewBox="0 0 1400.000000 1000.000000"
 preserveAspectRatio="xMidYMid meet">

<g transform="translate(0.000000,1000.000000) scale(0.100000,-0.100000)"
fill="#000000" stroke="none">
<path d="M2060 9110 c0 -118 18 -136 22 -22 l3 77 50 -77 c28 -43 56 -78 63
-78 9 0 12 27 12 100 0 118 -18 136 -22 23 l-3 -77 -50 77 c-27 42 -56 77 -62
77 -10 0 -13 -27 -13 -100z"/>
<path d="M2940 9176 c0 -8 -6 -17 -12 -20 -10 -5 -10 -7 0 -12 7 -3 12 -26 12
-59 0 -51 16 -85 40 -85 16 0 20 18 5 24 -11 4 -15 21 -15 61 0 46 3 55 18 55
16 1 16 1 0 14 -10 7 -18 18 -18 25 0 6 -7 11 -15 11 -8 0 -15 -6 -15 -14z"/>
<path d="M1749 9143 c-13 -16 -12 -17 4 -4 9 7 17 15 17 17 0 8 -8 3 -21 -13z"/>
<path d="M2260 9095 c0 -57 3 -66 24 -81 18 -11 30 -13 42 -6 9 5 25 7 35 5
17 -5 19 2 19 72 0 57 -3 76 -12 73 -8 -3 -14 -27 -16 -61 -2 -43 -7 -59 -22
-67 -31 -16 -50 12 -50 76 0 30 -4 54 -10 54 -6 0 -10 -28 -10 -65z"/>
<path d="M2435 9135 c-48 -47 -20 -128 44 -128 32 0 60 17 48 29 -4 4 -14 1
-22 -6 -21 -18 -65 2 -65 30 0 17 6 20 50 20 55 0 64 15 34 58 -20 29 -59 28
-89 -3z m73 -17 c3 -15 -4 -18 -32 -18 -38 0 -44 8 -24 28 17 17 52 11 56 -10z"/>
<path d="M2561 9148 c1 -25 46 -132 56 -135 10 -4 35 51 58 126 14 46 -18 16
-34 -31 -9 -26 -19 -49 -22 -52 -3 -3 -13 19 -23 49 -15 49 -37 75 -35 43z"/>
<path d="M2724 9146 c-10 -8 -16 -18 -11 -22 4 -4 13 -2 19 4 18 18 46 14 57
-7 9 -16 6 -19 -25 -24 -20 -3 -42 -11 -50 -18 -37 -30 10 -88 57 -71 13 5 30
7 37 5 19 -7 16 111 -4 131 -19 20 -54 20 -80 2z m76 -75 c0 -27 -15 -41 -41
-41 -21 0 -29 5 -29 18 0 10 3 22 7 25 10 10 63 8 63 -2z"/>
<path d="M3044 9146 c-10 -8 -16 -18 -11 -22 4 -4 13 -2 19 4 24 24 68 9 68
-23 0 -1 -18 -5 -40 -9 -45 -7 -67 -35 -51 -65 14 -25 36 -32 64 -22 12 4 28
6 35 4 16 -6 17 118 0 135 -16 16 -60 15 -84 -2z m76 -75 c0 -27 -15 -41 -41
-41 -21 0 -29 5 -29 18 0 10 3 22 7 25 10 10 63 8 63 -2z"/>
<path d="M3185 9151 c-3 -2 -5 -35 -5 -73 0 -53 3 -68 15 -68 10 0 15 15 17
58 3 48 7 59 26 67 12 5 22 13 22 16 0 8 -68 8 -75 0z"/>
<path d="M3302 9144 c-17 -12 -22 -25 -22 -59 0 -67 48 -102 96 -70 32 21 26
29 -11 15 -22 -9 -31 -7 -46 6 -33 30 -24 44 31 44 55 0 64 15 34 58 -18 26
-50 28 -82 6z m66 -16 c21 -21 13 -28 -28 -28 -38 0 -40 2 -30 20 12 22 40 26
58 8z"/>
<path d="M3449 9140 c-26 -21 -11 -27 20 -8 22 14 51 4 51 -17 0 -9 -9 -15
-23 -15 -31 0 -67 -27 -67 -50 0 -29 43 -54 69 -41 11 6 27 8 35 5 25 -10 23
107 -2 129 -25 22 -55 21 -83 -3z m69 -82 c-4 -31 -58 -40 -58 -10 0 25 8 32
37 32 20 0 24 -5 21 -22z"/>
<path d="M5221 9144 c0 -11 3 -14 6 -6 3 7 2 16 -1 19 -3 4 -6 -2 -5 -13z"/>
<path d="M1690 9093 c0 -6 8 -17 18 -24 16 -13 16 -13 2 6 -8 11 -16 22 -17
24 -2 2 -3 0 -3 -6z"/>
<path d="M5197 9066 c-4 -10 -1 -13 8 -9 8 3 12 9 9 14 -7 12 -11 11 -17 -5z"/>
<path d="M5276 9013 c-6 -14 -5 -15 5 -6 7 7 10 15 7 18 -3 3 -9 -2 -12 -12z"/>
<path d="M1787 9014 c-8 -13 20 -41 30 -30 3 3 1 6 -5 6 -6 0 -12 8 -14 18 -2
11 -6 13 -11 6z"/>
<path d="M5240 9000 c0 -5 5 -10 11 -10 5 0 7 5 4 10 -3 6 -8 10 -11 10 -2 0
-4 -4 -4 -10z"/>
<path d="M1948 8516 c-16 -12 -28 -28 -28 -35 0 -7 14 2 31 19 37 37 35 47 -3
16z"/>
<path d="M2065 8500 c21 -24 26 -25 19 -6 -3 8 -13 17 -22 21 -13 5 -13 2 3
-15z"/>
<path d="M2108 8444 c6 -33 17 -38 20 -9 1 13 -4 25 -12 28 -9 4 -12 -2 -8
-19z"/>
<path d="M1876 8432 c9 -36 11 -37 16 -8 3 16 0 27 -9 30 -10 4 -12 -1 -7 -22z"/>
<path d="M2085 8290 c3 -5 8 -10 11 -10 2 0 4 5 4 10 0 6 -5 10 -11 10 -5 0
-7 -4 -4 -10z"/>
<path d="M1782 8118 c-25 -25 -9 -89 23 -88 5 0 2 5 -7 11 -20 11 -23 45 -8
69 8 13 13 13 31 2 18 -11 20 -11 17 0 -6 18 -40 22 -56 6z"/>
<path d="M2233 8080 c0 -30 2 -43 4 -27 2 15 2 39 0 55 -2 15 -4 2 -4 -28z"/>
<path d="M2747 8124 c-16 -17 -6 -44 19 -50 19 -5 24 -12 21 -25 -3 -11 -1
-19 4 -19 20 0 8 41 -16 52 -26 12 -34 38 -12 38 7 0 19 -6 26 -12 11 -11 13
-10 9 2 -5 16 -39 25 -51 14z"/>
<path d="M2901 8083 c-1 -44 2 -53 17 -53 13 0 14 2 4 9 -19 12 -11 45 12 49
16 3 18 -1 14 -27 -3 -19 -1 -28 5 -22 16 16 3 56 -20 59 -12 2 -24 11 -26 20
-3 9 -5 -7 -6 -35z"/>
<path d="M3717 8123 c-11 -10 -8 -93 3 -93 6 0 10 9 10 20 0 26 16 26 30 -1 7
-11 14 -18 17 -15 3 3 0 12 -6 20 -8 10 -9 16 -1 21 16 10 12 42 -6 49 -20 8
-39 8 -47 -1z m48 -23 c0 -8 -8 -16 -17 -18 -13 -2 -18 3 -18 18 0 15 5 20 18
18 9 -2 17 -10 17 -18z"/>
<path d="M4711 8087 c-24 -56 -26 -66 -9 -49 16 16 55 15 62 0 11 -24 -6 37
-19 67 l-13 30 -21 -48z m38 -19 c1 -5 -6 -8 -14 -8 -16 0 -19 9 -8 36 6 16 7
16 14 -2 4 -10 8 -22 8 -26z"/>
<path d="M4840 8116 c0 -8 -10 -16 -22 -18 -18 -2 -23 -10 -23 -33 0 -25 4
-30 28 -33 26 -3 27 -2 27 47 0 28 -2 51 -5 51 -3 0 -5 -6 -5 -14z m0 -51 c0
-18 -5 -25 -20 -25 -15 0 -20 7 -20 25 0 18 5 25 20 25 15 0 20 -7 20 -25z"/>
<path d="M2988 8110 c-5 -17 3 -80 11 -80 7 0 6 79 -2 86 -3 3 -7 0 -9 -6z"/>
<path d="M5068 8110 c-5 -17 3 -80 11 -80 7 0 6 79 -2 86 -3 3 -7 0 -9 -6z"/>
<path d="M1871 8081 c-11 -20 11 -63 25 -48 4 4 2 7 -4 7 -7 0 -12 5 -12 10 0
6 12 10 26 10 20 0 25 4 20 16 -3 9 -6 18 -6 20 0 13 -41 1 -49 -15z m44 -1
c3 -5 -3 -10 -14 -10 -12 0 -21 5 -21 10 0 6 6 10 14 10 8 0 18 -4 21 -10z"/>
<path d="M1940 8065 c0 -19 5 -35 10 -35 6 0 10 14 10 30 0 42 27 40 33 -2 4
-32 4 -32 5 5 2 35 0 37 -28 37 -28 0 -30 -3 -30 -35z"/>
<path d="M2024 8076 c-6 -27 1 -46 18 -46 7 0 6 6 -2 15 -11 13 -8 15 15 15
20 0 26 4 23 18 -2 9 -13 18 -25 20 -17 3 -24 -3 -29 -22z m46 4 c0 -5 -9 -10
-21 -10 -11 0 -17 5 -14 10 3 6 13 10 21 10 8 0 14 -4 14 -10z"/>
<path d="M2101 8063 c2 -35 2 -35 6 -8 3 16 10 33 16 37 8 5 6 8 -5 8 -14 0
-18 -8 -17 -37z"/>
<path d="M2150 8091 c0 -5 9 -7 20 -4 11 3 20 0 20 -6 0 -6 -9 -11 -19 -11
-19 0 -35 -23 -24 -34 4 -3 17 -6 30 -6 20 0 23 5 23 35 0 31 -3 35 -25 35
-14 0 -25 -4 -25 -9z m40 -41 c0 -5 -7 -10 -15 -10 -8 0 -15 5 -15 10 0 6 7
10 15 10 8 0 15 -4 15 -10z"/>
<path d="M2823 8068 c2 -28 6 -34 30 -36 25 -3 27 -1 25 35 -1 37 -1 37 -5 6
-6 -45 -39 -46 -47 -3 -6 30 -6 30 -3 -2z"/>
<path d="M3036 8091 c-4 -5 3 -7 14 -4 11 3 20 1 20 -5 0 -5 -9 -12 -20 -15
-33 -8 -25 -37 10 -37 31 0 38 17 24 54 -7 17 -39 22 -48 7z m34 -41 c0 -5 -7
-10 -15 -10 -8 0 -15 5 -15 10 0 6 7 10 15 10 8 0 15 -4 15 -10z"/>
<path d="M3111 8063 c2 -35 2 -35 6 -8 3 16 10 33 16 37 8 5 6 8 -5 8 -14 0
-18 -8 -17 -37z"/>
<path d="M3160 8085 c-13 -16 -5 -55 12 -55 6 0 6 6 -2 15 -11 13 -8 15 19 15
33 0 39 8 19 28 -16 16 -33 15 -48 -3z m40 -5 c0 -5 -7 -10 -15 -10 -8 0 -15
5 -15 10 0 6 7 10 15 10 8 0 15 -4 15 -10z"/>
<path d="M3236 8092 c-3 -5 6 -7 19 -4 32 6 32 -6 0 -18 -36 -14 -32 -40 6
-40 28 0 30 2 27 33 -2 24 -8 33 -25 35 -11 2 -24 -1 -27 -6z m44 -42 c0 -5
-9 -10 -20 -10 -11 0 -20 5 -20 10 0 6 9 10 20 10 11 0 20 -4 20 -10z"/>
<path d="M3315 8090 c-9 -14 3 -30 22 -30 10 0 13 -6 9 -16 -3 -9 -1 -14 5
-12 18 6 13 22 -10 33 -27 12 -28 29 -1 22 11 -3 20 -1 20 4 0 12 -37 11 -45
-1z"/>
<path d="M3804 8086 c-8 -22 -1 -49 14 -52 7 -1 8 0 2 3 -19 9 -10 23 16 23
19 0 25 5 22 18 -4 22 -46 29 -54 8z m41 -6 c3 -5 -3 -10 -14 -10 -12 0 -21 5
-21 10 0 6 6 10 14 10 8 0 18 -4 21 -10z"/>
<path d="M3875 8081 c-7 -22 3 -51 17 -51 7 0 6 5 -1 14 -16 19 -2 49 20 43
11 -3 19 -1 19 4 0 18 -49 9 -55 -10z"/>
<path d="M3953 8068 c2 -28 6 -34 30 -36 25 -3 27 -1 25 35 -1 37 -1 37 -5 6
-6 -45 -39 -46 -47 -3 -6 30 -6 30 -3 -2z"/>
<path d="M4031 8063 c1 -28 3 -31 6 -13 3 14 10 31 15 38 8 9 6 12 -6 12 -12
0 -16 -9 -15 -37z"/>
<path d="M4085 8090 c-9 -14 3 -30 22 -30 9 0 13 -6 9 -15 -3 -8 -1 -15 4 -15
19 0 10 32 -10 37 -11 3 -20 10 -20 15 0 6 9 8 20 5 11 -3 20 -1 20 4 0 12
-37 11 -45 -1z"/>
<path d="M4154 8086 c-9 -22 -1 -49 16 -54 13 -5 13 -3 1 11 -16 20 -8 47 14
47 21 0 30 -27 15 -45 -8 -9 -8 -15 -2 -15 17 0 25 39 12 55 -16 19 -49 19
-56 1z"/>
<path d="M4240 8085 c0 -8 9 -19 20 -25 11 -6 18 -15 15 -21 -4 -5 -1 -9 4 -9
20 0 11 32 -9 37 -11 3 -20 10 -20 15 0 6 9 8 20 5 11 -3 18 -1 14 4 -9 15
-44 10 -44 -6z"/>
<path d="M4868 8050 c-1 -28 0 -50 5 -50 4 0 7 23 7 50 0 65 -7 65 -12 0z"/>
<path d="M4900 8081 c0 -35 12 -51 36 -51 21 0 24 4 22 38 -1 36 -1 36 -5 5
-6 -43 -33 -45 -33 -3 0 17 -4 30 -10 30 -5 0 -10 -9 -10 -19z"/>
<path d="M4980 8065 c0 -19 5 -35 10 -35 6 0 10 14 10 30 0 42 27 40 33 -2 4
-32 4 -32 5 5 2 35 0 37 -28 37 -28 0 -30 -3 -30 -35z"/>
<path d="M5114 8086 c-8 -22 -1 -49 14 -52 7 -1 8 0 2 3 -5 2 -10 16 -10 29 0
18 5 24 21 24 18 0 21 -5 17 -30 -3 -19 -1 -27 5 -21 5 5 7 19 5 32 -4 28 -45
39 -54 15z"/>
<path d="M5195 8090 c-8 -14 3 -30 21 -30 8 0 14 -7 14 -16 0 -8 5 -12 10 -9
14 9 -7 35 -26 35 -8 0 -14 5 -14 11 0 6 9 9 20 6 11 -3 20 -1 20 4 0 12 -37
11 -45 -1z"/>
<path d="M1819 8072 c8 -6 11 -17 7 -27 -4 -11 -2 -15 6 -13 21 7 15 42 -7 46
-15 2 -17 1 -6 -6z"/>
<path d="M2740 8040 c0 -5 5 -10 11 -10 5 0 7 5 4 10 -3 6 -8 10 -11 10 -2 0
-4 -4 -4 -10z"/>
<path d="M3310 8040 c0 -5 5 -10 11 -10 5 0 7 5 4 10 -3 6 -8 10 -11 10 -2 0
-4 -4 -4 -10z"/>
<path d="M3915 8040 c-3 -5 -1 -10 4 -10 6 0 11 5 11 10 0 6 -2 10 -4 10 -3 0
-8 -4 -11 -10z"/>
<path d="M4080 8040 c0 -5 5 -10 11 -10 5 0 7 5 4 10 -3 6 -8 10 -11 10 -2 0
-4 -4 -4 -10z"/>
<path d="M4237 8039 c7 -7 15 -10 18 -7 3 3 -2 9 -12 12 -14 6 -15 5 -6 -5z"/>
<path d="M5190 8040 c0 -5 5 -10 11 -10 5 0 7 5 4 10 -3 6 -8 10 -11 10 -2 0
-4 -4 -4 -10z"/>
<path d="M1723 7853 c42 -2 112 -2 155 0 42 1 7 3 -78 3 -85 0 -120 -2 -77 -3z"/>
<path d="M2163 7853 c20 -2 54 -2 75 0 20 2 3 4 -38 4 -41 0 -58 -2 -37 -4z"/>
<path d="M1657 7833 c18 -2 50 -2 70 0 21 2 7 4 -32 4 -38 0 -55 -2 -38 -4z"/>
<path d="M1953 7833 c20 -2 54 -2 75 0 20 2 3 4 -38 4 -41 0 -58 -2 -37 -4z"/>
<path d="M2273 7833 c20 -2 54 -2 75 0 20 2 3 4 -38 4 -41 0 -58 -2 -37 -4z"/>
<path d="M1760 7620 c0 -46 2 -50 23 -50 30 0 47 18 47 50 0 32 -17 50 -47 50
-21 0 -23 -4 -23 -50z m55 0 c0 -29 -4 -36 -22 -38 -21 -3 -23 1 -23 38 0 37
2 41 23 38 18 -2 22 -9 22 -38z"/>
<path d="M1860 7629 c0 -5 5 -7 10 -4 6 3 10 8 10 11 0 2 -4 4 -10 4 -5 0 -10
-5 -10 -11z"/>
<path d="M2014 7626 c-9 -23 -1 -49 16 -53 12 -4 13 -3 1 5 -8 6 -12 20 -9 36
6 28 1 35 -8 12z"/>
<path d="M2055 7630 c3 -5 8 -10 11 -10 2 0 4 5 4 10 0 6 -5 10 -11 10 -5 0
-7 -4 -4 -10z"/>
<path d="M2090 7605 c0 -19 2 -35 4 -35 2 0 6 16 8 35 2 19 0 35 -4 35 -4 0
-8 -16 -8 -35z"/>
<path d="M2143 7605 c0 -22 2 -30 4 -17 2 12 2 30 0 40 -3 9 -5 -1 -4 -23z"/>
<path d="M2181 7588 c1 -55 5 -50 11 15 2 20 0 37 -4 37 -4 0 -7 -24 -7 -52z"/>
<path d="M2225 7605 c0 -18 3 -31 8 -28 4 2 7 15 7 28 0 13 -3 26 -7 28 -5 3
-8 -10 -8 -28z"/>
<path d="M2267 7633 c-9 -9 -9 -51 1 -56 4 -3 7 10 7 29 0 19 0 34 -1 34 0 0
-4 -3 -7 -7z"/>
<path d="M2343 7605 c0 -22 2 -30 4 -17 2 12 2 30 0 40 -3 9 -5 -1 -4 -23z"/>
<path d="M2380 7629 c0 -5 5 -7 10 -4 6 3 10 8 10 11 0 2 -4 4 -10 4 -5 0 -10
-5 -10 -11z"/>
<path d="M2425 7605 c0 -18 3 -31 8 -28 4 2 7 15 7 28 0 13 -3 26 -7 28 -5 3
-8 -10 -8 -28z"/>
<path d="M2460 7605 c0 -19 2 -35 4 -35 2 0 6 16 8 35 2 19 0 35 -4 35 -4 0
-8 -16 -8 -35z"/>
<path d="M2508 7605 c2 -19 6 -35 8 -35 2 0 4 16 4 35 0 19 -4 35 -8 35 -4 0
-6 -16 -4 -35z"/>
<path d="M1945 7610 c3 -6 13 -10 22 -10 9 0 13 -6 9 -15 -3 -8 -1 -15 5 -15
19 0 4 33 -19 41 -15 6 -21 5 -17 -1z"/>
<path d="M1854 7594 c3 -9 6 -18 6 -20 0 -2 5 -4 11 -4 8 0 9 4 0 13 -6 8 -8
17 -4 20 3 4 1 7 -6 7 -8 0 -11 -6 -7 -16z"/>
<path d="M2370 7603 c0 -6 8 -17 18 -24 16 -13 16 -13 2 6 -8 11 -16 22 -17
24 -2 2 -3 0 -3 -6z"/>
<path d="M3256 7413 c-6 -14 -5 -15 5 -6 7 7 10 15 7 18 -3 3 -9 -2 -12 -12z"/>
<path d="M1760 7361 c0 -33 5 -63 10 -66 6 -4 10 5 10 19 0 34 24 34 46 1 19
-30 31 -27 15 4 -8 14 -8 27 0 45 16 34 -3 56 -47 56 l-34 0 0 -59z m68 22 c3
-19 -1 -23 -22 -23 -21 0 -26 5 -26 26 0 21 4 25 23 22 14 -2 23 -11 25 -25z"/>
<path d="M2030 7409 c0 -5 5 -7 10 -4 6 3 10 8 10 11 0 2 -4 4 -10 4 -5 0 -10
-5 -10 -11z"/>
<path d="M2370 7400 c0 -13 -5 -18 -15 -14 -22 9 -45 -14 -45 -46 0 -35 21
-53 54 -44 24 6 26 10 26 65 0 33 -4 59 -10 59 -5 0 -10 -9 -10 -20z m-5 -60
c0 -39 -19 -50 -35 -21 -8 15 -8 27 0 42 16 29 35 18 35 -21z"/>
<path d="M2555 7410 c3 -5 8 -10 11 -10 2 0 4 5 4 10 0 6 -5 10 -11 10 -5 0
-7 -4 -4 -10z"/>
<path d="M1972 7394 c-7 -8 -8 -15 -2 -19 6 -3 10 -24 10 -46 0 -30 4 -39 17
-39 13 0 14 3 5 12 -14 14 -16 75 -3 80 5 2 4 8 -3 14 -8 8 -15 7 -24 -2z"/>
<path d="M1870 7355 c0 -52 10 -66 43 -63 26 2 27 5 25 53 l-1 50 -6 -45 c-8
-56 -34 -63 -39 -10 -5 51 -22 63 -22 15z"/>
<path d="M2033 7340 c0 -30 2 -43 4 -27 2 15 2 39 0 55 -2 15 -4 2 -4 -28z"/>
<path d="M2070 7336 c0 -56 17 -53 22 4 5 53 31 46 39 -10 l7 -45 -2 50 c-1
49 -1 50 -33 50 -33 1 -33 0 -33 -49z"/>
<path d="M2180 7375 c-8 -9 -9 -15 -2 -15 6 0 13 4 17 10 6 10 35 2 35 -10 0
-4 -14 -10 -31 -14 -25 -5 -30 -10 -27 -28 2 -18 9 -23 36 -23 31 -1 32 1 32
41 0 29 -5 44 -16 48 -23 9 -30 8 -44 -9z m50 -44 c0 -5 -6 -13 -13 -19 -15
-13 -42 1 -33 17 8 13 46 15 46 2z"/>
<path d="M2428 7379 c-21 -12 -24 -59 -6 -77 15 -15 45 -16 53 -2 4 6 -3 9
-17 7 -14 -1 -23 4 -26 16 -3 13 3 17 27 17 34 0 36 2 21 31 -12 21 -26 23
-52 8z m40 -17 c2 -7 -6 -12 -17 -12 -21 0 -27 11 -14 24 9 9 26 2 31 -12z"/>
<path d="M2557 7383 c-11 -10 -8 -81 3 -88 6 -4 10 13 10 44 0 52 -1 56 -13
44z"/>
<path d="M2602 7335 c1 -49 2 -49 5 -8 7 69 47 64 56 -7 3 -23 4 -18 3 15 -1
49 -1 50 -33 50 l-33 1 2 -51z"/>
<path d="M2707 7384 c-16 -16 -6 -42 18 -48 14 -4 25 -11 25 -16 0 -15 -21
-23 -33 -11 -17 17 -31 13 -17 -4 16 -19 44 -19 59 -1 9 11 8 18 -4 30 -9 9
-23 16 -31 16 -16 0 -19 16 -4 25 6 4 18 1 27 -7 14 -11 16 -11 11 2 -5 16
-39 25 -51 14z"/>
<path d="M2791 7320 c1 -36 4 -56 6 -44 3 16 10 20 28 16 33 -6 54 36 37 73
-9 19 -18 24 -42 22 l-30 -2 1 -65z m59 14 c0 -27 -12 -37 -34 -28 -19 7 -21
45 -4 62 16 16 38 -3 38 -34z"/>
<path d="M2902 7378 c-7 -7 -12 -24 -12 -38 0 -14 5 -31 12 -38 15 -15 45 -15
54 0 5 8 2 9 -11 5 -18 -7 -45 8 -45 24 0 5 14 9 30 9 18 0 30 5 30 13 0 16
-20 37 -35 37 -6 0 -16 -5 -23 -12z m48 -19 c0 -5 -12 -9 -26 -9 -22 0 -24 2
-14 14 12 15 40 11 40 -5z"/>
<path d="M2998 7379 c-20 -11 -23 -41 -8 -70 13 -23 43 -25 60 -4 14 17 0 21
-17 4 -17 -17 -33 -2 -33 31 0 33 16 48 33 31 17 -17 31 -13 17 4 -14 17 -28
18 -52 4z"/>
<path d="M3086 7367 c-31 -46 16 -101 53 -61 14 16 14 17 0 6 -25 -18 -49 -4
-49 28 0 32 16 42 45 27 18 -9 19 -9 6 6 -19 23 -38 21 -55 -6z"/>
<path d="M3177 7383 c-11 -10 -8 -81 3 -88 6 -4 10 13 10 44 0 52 -1 56 -13
44z"/>
<path d="M3226 7374 c-9 -8 -16 -24 -16 -34 0 -22 26 -50 45 -50 8 0 22 11 31
25 15 23 15 27 0 50 -19 29 -38 32 -60 9z m54 -34 c0 -16 -6 -30 -12 -33 -24
-8 -38 5 -38 33 0 16 6 30 13 33 23 8 37 -5 37 -33z"/>
<path d="M3322 7335 c1 -42 2 -44 5 -13 8 71 47 70 56 -2 3 -23 4 -18 3 15 -1
49 -1 50 -33 50 l-33 1 2 -51z"/>
<path d="M6168 7293 c12 -2 30 -2 40 0 9 3 -1 5 -23 4 -22 0 -30 -2 -17 -4z"/>
<path d="M6848 7293 c12 -2 30 -2 40 0 9 3 -1 5 -23 4 -22 0 -30 -2 -17 -4z"/>
<path d="M7038 7293 c12 -2 32 -2 45 0 12 2 2 4 -23 4 -25 0 -35 -2 -22 -4z"/>
<path d="M7168 7293 c12 -2 30 -2 40 0 9 3 -1 5 -23 4 -22 0 -30 -2 -17 -4z"/>
<path d="M7568 7293 c12 -2 30 -2 40 0 9 3 -1 5 -23 4 -22 0 -30 -2 -17 -4z"/>
<path d="M8728 7293 c12 -2 30 -2 40 0 9 3 -1 5 -23 4 -22 0 -30 -2 -17 -4z"/>
<path d="M9408 7293 c12 -2 30 -2 40 0 9 3 -1 5 -23 4 -22 0 -30 -2 -17 -4z"/>
<path d="M9598 7293 c12 -2 32 -2 45 0 12 2 2 4 -23 4 -25 0 -35 -2 -22 -4z"/>
<path d="M9728 7293 c12 -2 30 -2 40 0 9 3 -1 5 -23 4 -22 0 -30 -2 -17 -4z"/>
<path d="M10128 7293 c12 -2 30 -2 40 0 9 3 -1 5 -23 4 -22 0 -30 -2 -17 -4z"/>
<path d="M11288 7293 c12 -2 30 -2 40 0 9 3 -1 5 -23 4 -22 0 -30 -2 -17 -4z"/>
<path d="M11968 7293 c12 -2 30 -2 40 0 9 3 -1 5 -23 4 -22 0 -30 -2 -17 -4z"/>
<path d="M12158 7293 c12 -2 32 -2 45 0 12 2 2 4 -23 4 -25 0 -35 -2 -22 -4z"/>
<path d="M12288 7293 c12 -2 30 -2 40 0 9 3 -1 5 -23 4 -22 0 -30 -2 -17 -4z"/>
<path d="M12510 7296 c0 -2 7 -6 15 -10 8 -3 15 -1 15 4 0 6 -7 10 -15 10 -8
0 -15 -2 -15 -4z"/>
<path d="M5931 7257 c-8 -10 -7 -14 4 -14 8 0 15 6 15 14 0 7 -2 13 -4 13 -2
0 -9 -6 -15 -13z"/>
<path d="M5890 7208 c0 -4 4 -8 9 -8 6 0 12 4 15 8 3 5 -1 9 -9 9 -8 0 -15 -4
-15 -9z"/>
<path d="M5940 7210 c0 -5 5 -10 10 -10 6 0 10 5 10 10 0 6 -4 10 -10 10 -5 0
-10 -4 -10 -10z"/>
<path d="M5864 6925 c0 -115 2 -161 3 -102 2 59 2 154 0 210 -1 56 -3 8 -3
-108z"/>
<path d="M6326 7111 c-3 -5 1 -12 10 -15 20 -8 29 -1 19 13 -8 13 -22 14 -29
2z"/>
<path d="M6805 7093 c2 -10 4 -28 4 -41 1 -13 5 -20 11 -17 13 8 13 45 0 45
-5 0 -7 7 -4 15 4 8 2 15 -4 15 -6 0 -9 -8 -7 -17z"/>
<path d="M6836 7100 c7 -7 19 -7 35 -1 23 9 22 10 -10 10 -24 1 -32 -2 -25 -9z"/>
<path d="M7205 7040 c-10 -11 -13 -20 -7 -20 7 0 12 5 12 11 0 5 4 8 8 5 5 -3
9 1 9 9 0 19 0 19 -22 -5z"/>
<path d="M7060 7039 c0 -5 5 -7 10 -4 6 3 10 8 10 11 0 2 -4 4 -10 4 -5 0 -10
-5 -10 -11z"/>
<path d="M6367 7033 c-4 -6 0 -13 8 -17 8 -3 17 0 21 6 4 6 3 8 -4 4 -5 -3
-12 -1 -14 6 -3 8 -6 9 -11 1z"/>
<path d="M7420 7036 c0 -2 7 -6 15 -10 8 -3 15 -1 15 4 0 6 -7 10 -15 10 -8 0
-15 -2 -15 -4z"/>
<path d="M7589 7023 c-13 -16 -12 -17 4 -4 9 7 17 15 17 17 0 8 -8 3 -21 -13z"/>
<path d="M7707 7020 c3 -11 9 -22 13 -25 5 -3 6 4 3 15 -3 11 -9 22 -13 25 -5
3 -6 -4 -3 -15z"/>
<path d="M6250 7011 c-7 -15 -7 -21 0 -21 12 0 25 28 17 36 -3 3 -10 -4 -17
-15z"/>
<path d="M6590 7000 c0 -5 5 -10 11 -10 5 0 7 5 4 10 -3 6 -8 10 -11 10 -2 0
-4 -4 -4 -10z"/>
<path d="M6720 7001 c0 -5 5 -13 10 -16 6 -3 10 -2 10 4 0 5 -4 13 -10 16 -5
3 -10 2 -10 -4z"/>
<path d="M7200 6991 c0 -25 6 -27 13 -6 4 8 2 17 -3 20 -6 4 -10 -3 -10 -14z"/>
<path d="M6296 6985 c-3 -8 -1 -15 4 -15 6 0 10 7 10 15 0 8 -2 15 -4 15 -2 0
-6 -7 -10 -15z"/>
<path d="M6364 6989 c-7 -12 17 -32 26 -22 3 3 -1 8 -8 10 -6 3 -10 9 -6 14 3
5 3 9 0 9 -3 0 -8 -5 -12 -11z"/>
<path d="M6783 6988 c-11 -19 -13 -39 -2 -32 5 3 9 11 9 19 0 7 6 16 13 18 9
4 9 6 0 6 -6 1 -15 -5 -20 -11z"/>
<path d="M6950 6990 c-9 -6 -10 -10 -3 -10 6 0 15 5 18 10 8 12 4 12 -15 0z"/>
<path d="M7787 6986 c-4 -10 -1 -13 8 -9 8 3 12 9 9 14 -7 12 -11 11 -17 -5z"/>
<path d="M6503 6964 c0 -17 2 -22 7 -13 5 6 6 18 3 26 -8 19 -10 16 -10 -13z"/>
<path d="M6570 6970 c-9 -6 -10 -10 -3 -10 6 0 15 5 18 10 8 12 4 12 -15 0z"/>
<path d="M6607 6973 c-2 -5 0 -19 4 -33 7 -23 7 -22 6 8 -1 33 -3 37 -10 25z"/>
<path d="M7706 6967 c3 -10 9 -15 12 -12 3 3 0 11 -7 18 -10 9 -11 8 -5 -6z"/>
<path d="M6804 6955 c5 -13 -5 -20 -26 -16 -5 0 -8 -3 -8 -8 0 -15 24 -18 37
-5 16 16 17 44 2 44 -6 0 -9 -7 -5 -15z"/>
<path d="M7020 6960 c0 -5 5 -10 11 -10 5 0 7 5 4 10 -3 6 -8 10 -11 10 -2 0
-4 -4 -4 -10z"/>
<path d="M6672 6940 c0 -14 2 -19 5 -12 2 6 2 18 0 25 -3 6 -5 1 -5 -13z"/>
<path d="M6943 6942 c-25 -4 -30 -17 -12 -28 6 -3 18 1 27 10 19 18 15 23 -15
18z"/>
<path d="M6987 6935 c3 -8 9 -12 14 -9 12 7 11 11 -5 17 -10 4 -13 1 -9 -8z"/>
<path d="M7632 6943 c11 -3 15 -10 11 -21 -5 -13 -3 -14 7 -5 15 14 5 33 -18
32 -16 -1 -16 -2 0 -6z"/>
<path d="M6725 6931 c-3 -5 -1 -12 5 -16 5 -3 10 1 10 9 0 18 -6 21 -15 7z"/>
<path d="M7181 6924 c0 -11 3 -14 6 -6 3 7 2 16 -1 19 -3 4 -6 -2 -5 -13z"/>
<path d="M7391 6924 c0 -11 3 -14 6 -6 3 7 2 16 -1 19 -3 4 -6 -2 -5 -13z"/>
<path d="M7790 6924 c0 -8 5 -12 10 -9 6 4 8 11 5 16 -9 14 -15 11 -15 -7z"/>
<path d="M7265 6920 c-3 -5 -2 -10 4 -10 5 0 13 5 16 10 3 6 2 10 -4 10 -5 0
-13 -4 -16 -10z"/>
<path d="M6872 6907 c10 -8 16 -16 13 -18 -2 -3 6 -6 18 -6 23 -2 15 6 -28 28
-18 9 -19 9 -3 -4z"/>
<path d="M7121 6904 c0 -11 3 -14 6 -6 3 7 2 16 -1 19 -3 4 -6 -2 -5 -13z"/>
<path d="M1767 6903 c18 -4 23 -12 26 -51 l3 -47 2 47 c2 35 6 48 20 51 9 3
-3 5 -28 4 -25 0 -35 -2 -23 -4z"/>
<path d="M2138 6860 c-1 -28 0 -50 5 -50 4 0 7 23 7 50 0 65 -7 65 -12 0z"/>
<path d="M6661 6894 c0 -11 3 -14 6 -6 3 7 2 16 -1 19 -3 4 -6 -2 -5 -13z"/>
<path d="M7161 6894 c0 -11 3 -14 6 -6 3 7 2 16 -1 19 -3 4 -6 -2 -5 -13z"/>
<path d="M7210 6895 c7 -8 17 -15 22 -15 6 0 5 7 -2 15 -7 8 -17 15 -22 15 -6
0 -5 -7 2 -15z"/>
<path d="M7346 6897 c3 -10 9 -15 12 -12 3 3 0 11 -7 18 -10 9 -11 8 -5 -6z"/>
<path d="M6387 6889 c7 -7 15 -10 18 -7 3 3 -2 9 -12 12 -14 6 -15 5 -6 -5z"/>
<path d="M6515 6890 c-3 -5 -1 -10 4 -10 6 0 11 5 11 10 0 6 -2 10 -4 10 -3 0
-8 -4 -11 -10z"/>
<path d="M7730 6890 c0 -5 5 -10 11 -10 5 0 7 5 4 10 -3 6 -8 10 -11 10 -2 0
-4 -4 -4 -10z"/>
<path d="M2290 6880 c-12 -8 -10 -10 8 -10 13 0 20 4 17 10 -7 12 -6 12 -25 0z"/>
<path d="M7538 6883 c7 -3 16 -2 19 1 4 3 -2 6 -13 5 -11 0 -14 -3 -6 -6z"/>
<path d="M7818 6883 c7 -3 16 -2 19 1 4 3 -2 6 -13 5 -11 0 -14 -3 -6 -6z"/>
<path d="M1853 6845 c0 -22 2 -30 4 -17 2 12 2 30 0 40 -3 9 -5 -1 -4 -23z"/>
<path d="M1886 6871 c8 -8 53 -7 48 1 -3 4 -16 7 -29 6 -13 -1 -22 -4 -19 -7z"/>
<path d="M1975 6870 c-4 -6 -4 -14 -1 -17 3 -4 6 -1 6 5 0 7 9 12 20 12 26 0
28 -45 3 -59 -10 -6 -13 -11 -7 -11 19 0 36 27 32 52 -3 25 -41 38 -53 18z"/>
<path d="M2097 6873 c-14 -14 -7 -61 11 -68 14 -5 15 -4 5 6 -19 19 -16 57 5
62 14 4 14 5 1 6 -9 0 -19 -2 -22 -6z"/>
<path d="M2181 6866 c-16 -19 -11 -46 11 -60 12 -7 21 -7 28 0 8 8 4 10 -11
10 -12 -1 -24 5 -26 12 -3 7 5 12 22 12 20 0 26 4 23 17 -4 23 -31 28 -47 9z
m39 -6 c0 -5 -9 -10 -21 -10 -11 0 -17 5 -14 10 3 6 13 10 21 10 8 0 14 -4 14
-10z"/>
<path d="M2346 6871 c-3 -4 6 -6 19 -3 14 2 25 6 25 8 0 8 -39 4 -44 -5z"/>
<path d="M2422 6843 c1 -37 1 -37 5 -6 3 19 11 34 21 36 12 3 10 5 -5 6 -20 1
-23 -3 -21 -36z"/>
<path d="M2503 6874 c9 -3 17 -10 17 -15 0 -14 -38 -11 -43 4 -3 6 -6 1 -6
-13 -1 -27 15 -50 34 -50 5 0 2 5 -7 11 -26 15 -22 29 8 29 19 0 25 5 22 17
-2 10 -12 19 -23 20 -16 1 -16 1 -2 -3z"/>
<path d="M2556 6871 c-3 -4 6 -6 19 -3 14 2 25 6 25 8 0 8 -39 4 -44 -5z"/>
<path d="M2585 6849 c-18 -7 -18 -8 -2 -8 10 -1 17 -7 15 -13 -7 -19 -36 -21
-41 -3 -4 12 -5 11 -3 -2 1 -10 8 -19 16 -20 23 -4 42 12 38 34 -2 16 -7 18
-23 12z"/>
<path d="M2368 6843 c7 -3 16 -2 19 1 4 3 -2 6 -13 5 -11 0 -14 -3 -6 -6z"/>
<path d="M2343 6826 c1 -11 9 -21 17 -23 10 -3 11 -2 4 4 -6 4 -14 15 -17 23
-5 11 -6 9 -4 -4z"/>
<path d="M1920 6810 c-9 -6 -10 -10 -3 -10 6 0 15 5 18 10 8 12 4 12 -15 0z"/>
<path d="M2300 6810 c0 -5 5 -10 11 -10 5 0 7 5 4 10 -3 6 -8 10 -11 10 -2 0
-4 -4 -4 -10z"/>
<path d="M1772 6138 c-13 -13 -17 -74 -4 -81 4 -3 7 13 7 36 0 33 4 42 19 45
10 2 23 -2 28 -10 8 -10 9 -10 5 2 -5 19 -39 24 -55 8z"/>
<path d="M1863 6100 c0 -30 2 -43 4 -27 2 15 2 39 0 55 -2 15 -4 2 -4 -28z"/>
<path d="M2667 6132 c6 -4 13 -25 16 -47 4 -40 4 -40 5 8 2 39 -1 47 -15 47
-12 0 -14 -3 -6 -8z"/>
<path d="M2090 6091 c0 -23 2 -41 4 -41 8 0 12 71 4 76 -4 3 -8 -13 -8 -35z"/>
<path d="M1935 6084 c0 -19 3 -34 8 -34 4 0 7 13 7 29 0 17 -3 32 -7 34 -5 3
-8 -10 -8 -29z"/>
<path d="M1976 6112 c-7 -11 6 -27 27 -35 10 -4 15 -11 12 -17 -3 -5 -1 -10 4
-10 21 0 11 27 -15 38 -14 7 -22 17 -19 22 3 6 4 10 1 10 -3 0 -7 -4 -10 -8z"/>
<path d="M2053 6085 c0 -22 2 -30 4 -17 2 12 2 30 0 40 -3 9 -5 -1 -4 -23z"/>
<path d="M2143 6085 c0 -22 2 -30 4 -17 2 12 2 30 0 40 -3 9 -5 -1 -4 -23z"/>
<path d="M2175 6099 c-10 -30 -2 -32 12 -3 6 13 7 24 3 24 -5 0 -12 -9 -15
-21z"/>
<path d="M2215 6110 c3 -5 8 -10 11 -10 2 0 4 5 4 10 0 6 -5 10 -11 10 -5 0
-7 -4 -4 -10z"/>
<path d="M2295 6084 c0 -19 3 -34 8 -34 4 0 7 13 7 29 0 17 -3 32 -7 34 -5 3
-8 -10 -8 -29z"/>
<path d="M2335 6099 c-10 -30 -2 -32 12 -3 6 13 7 24 3 24 -5 0 -12 -9 -15
-21z"/>
<path d="M2375 6110 c3 -5 8 -10 11 -10 2 0 4 5 4 10 0 6 -5 10 -11 10 -5 0
-7 -4 -4 -10z"/>
<path d="M2455 6109 c-4 -6 -5 -12 -2 -15 2 -3 7 2 10 11 7 17 1 20 -8 4z"/>
<path d="M2496 6107 c3 -10 9 -15 12 -12 3 3 0 11 -7 18 -10 9 -11 8 -5 -6z"/>
<path d="M2540 6110 c-9 -6 -10 -10 -3 -10 6 0 15 5 18 10 8 12 4 12 -15 0z"/>
<path d="M2578 6085 c2 -19 6 -35 8 -35 2 0 4 16 4 35 0 19 -4 35 -8 35 -4 0
-6 -16 -4 -35z"/>
<path d="M1897 6083 c-11 -10 -8 -33 4 -33 5 0 7 5 3 11 -3 6 0 15 7 20 8 5 9
9 3 9 -6 0 -14 -3 -17 -7z"/>
<path d="M2250 6071 c0 -6 4 -13 10 -16 6 -3 7 1 4 9 -7 18 -14 21 -14 7z"/>
<path d="M2450 6071 c0 -6 4 -13 10 -16 6 -3 7 1 4 9 -7 18 -14 21 -14 7z"/>
<path d="M2496 6063 c-6 -14 -5 -15 5 -6 7 7 10 15 7 18 -3 3 -9 -2 -12 -12z"/>
<path d="M1815 6060 c-3 -5 -1 -10 4 -10 6 0 11 5 11 10 0 6 -2 10 -4 10 -3 0
-8 -4 -11 -10z"/>
<path d="M6280 6001 c-5 -11 -10 -53 -10 -94 0 -97 10 -107 109 -107 108 0
111 3 111 108 0 55 -4 92 -12 100 -8 8 -45 12 -100 12 -76 0 -89 -2 -98 -19z
m198 -85 c2 -65 -1 -92 -10 -98 -21 -12 -162 -10 -176 4 -13 13 -17 143 -6
173 5 13 21 15 98 13 l91 -3 3 -89z"/>
<path d="M7686 5984 c-5 -14 -4 -15 9 -4 17 14 19 20 6 20 -5 0 -12 -7 -15
-16z"/>
<path d="M11770 5976 c0 -21 -6 -25 -32 -28 -31 -3 -33 -6 -36 -44 -4 -50 13
-67 57 -58 l31 7 0 73 c0 43 -4 74 -10 74 -5 0 -10 -11 -10 -24z m-5 -76 c0
-28 -4 -36 -22 -38 -26 -4 -39 28 -23 58 18 33 45 21 45 -20z"/>
<path d="M6780 5915 c0 -67 2 -75 19 -75 37 0 71 20 82 47 21 55 -11 103 -67
103 l-34 0 0 -75z m68 49 c40 -27 23 -104 -23 -104 -24 0 -25 3 -25 60 0 65 8
72 48 44z"/>
<path d="M7315 5980 c3 -5 8 -10 11 -10 2 0 4 5 4 10 0 6 -5 10 -11 10 -5 0
-7 -4 -4 -10z"/>
<path d="M7595 5980 c3 -5 8 -10 11 -10 2 0 4 5 4 10 0 6 -5 10 -11 10 -5 0
-7 -4 -4 -10z"/>
<path d="M10400 5981 c23 -6 25 -13 30 -76 l6 -70 4 70 c5 64 7 70 30 76 17 5
5 7 -35 7 -40 0 -51 -2 -35 -7z"/>
<path d="M11106 5982 c-16 -26 -47 -124 -42 -135 3 -7 7 -3 11 11 10 30 74 32
82 2 3 -11 10 -20 15 -20 5 0 8 4 6 8 -1 4 -14 38 -27 75 -24 64 -34 77 -45
59z m29 -59 c5 -20 3 -23 -19 -23 -24 0 -24 2 -14 31 11 32 21 29 33 -8z"/>
<path d="M11540 5979 c0 -5 5 -7 10 -4 6 3 10 8 10 11 0 2 -4 4 -10 4 -5 0
-10 -5 -10 -11z"/>
<path d="M7041 5944 c-26 -18 -18 -40 20 -53 16 -5 29 -15 29 -20 0 -15 -47
-14 -53 2 -2 6 -8 8 -13 4 -9 -9 22 -37 41 -37 21 0 46 25 40 41 -3 8 -20 20
-37 27 -26 9 -30 14 -20 24 10 10 17 10 32 0 16 -10 20 -10 20 2 0 20 -36 26
-59 10z"/>
<path d="M7152 5944 c-37 -26 -21 -104 22 -104 19 0 52 27 43 36 -4 5 -12 2
-16 -5 -16 -25 -46 -8 -49 27 -4 35 20 54 41 33 14 -14 30 -15 22 -1 -14 23
-42 29 -63 14z"/>
<path d="M7510 5952 c-22 -7 -30 -23 -30 -59 0 -36 28 -58 59 -48 20 6 37 35
21 35 -6 0 -10 -4 -10 -10 0 -5 -11 -10 -24 -10 -27 0 -41 32 -25 62 11 20 34
24 44 8 3 -5 11 -10 16 -10 6 0 7 4 4 10 -10 16 -39 28 -55 22z"/>
<path d="M7662 5944 c-26 -18 -29 -65 -6 -88 26 -26 61 -16 75 21 18 48 -30
94 -69 67z m48 -19 c19 -23 4 -65 -24 -65 -27 0 -41 33 -25 62 12 22 32 23 49
3z"/>
<path d="M7788 5953 c-27 -4 -28 -7 -28 -61 0 -63 17 -61 22 3 2 32 7 40 23
40 17 0 20 -8 23 -48 2 -26 7 -45 13 -42 15 10 10 82 -7 99 -8 9 -16 15 -17
15 -1 -1 -14 -4 -29 -6z"/>
<path d="M11613 5949 c-13 -5 -23 -14 -23 -21 0 -9 3 -9 12 0 17 17 48 15 48
-3 0 -8 -9 -15 -19 -15 -30 0 -53 -28 -41 -50 7 -13 20 -18 45 -17 35 2 35 2
35 49 0 53 -19 72 -57 57z m37 -69 c0 -15 -7 -20 -25 -20 -41 0 -30 37 13 39
6 1 12 -8 12 -19z"/>
<path d="M6922 5938 c-18 -18 -14 -63 6 -81 23 -21 46 -22 61 -3 10 12 6 14
-20 13 -18 -1 -34 4 -36 11 -3 8 7 12 31 12 37 0 43 10 30 44 -7 19 -55 21
-72 4z m56 -15 c2 -8 -6 -13 -22 -13 -25 0 -33 10 -19 24 10 10 36 3 41 -11z"/>
<path d="M7240 5901 c0 -28 5 -53 10 -56 6 -4 10 11 10 39 0 32 5 48 18 55 14
9 13 10 -10 11 -27 0 -28 -2 -28 -49z"/>
<path d="M7310 5901 c0 -28 5 -53 10 -56 6 -4 10 15 10 49 0 31 -4 56 -10 56
-5 0 -10 -22 -10 -49z"/>
<path d="M7361 5880 c0 -38 5 -72 10 -75 5 -4 9 5 9 19 0 21 4 24 27 23 35 -3
58 38 43 77 -8 22 -16 26 -49 26 l-40 0 0 -70z m74 40 c10 -33 -4 -62 -28 -58
-22 3 -34 35 -23 64 8 21 44 17 51 -6z"/>
<path d="M7590 5895 c0 -30 5 -55 10 -55 6 0 10 25 10 55 0 30 -4 55 -10 55
-5 0 -10 -25 -10 -55z"/>
<path d="M10507 5943 c-14 -13 -7 -25 8 -13 16 13 45 7 45 -10 0 -5 -11 -10
-24 -10 -13 0 -29 -7 -37 -16 -20 -25 1 -49 45 -49 35 0 36 1 36 37 0 53 -9
68 -39 68 -15 0 -31 -3 -34 -7z m51 -60 c-4 -22 -48 -31 -48 -10 0 19 10 27
32 27 13 0 18 -6 16 -17z"/>
<path d="M10610 5894 c0 -34 4 -53 10 -49 6 3 10 24 10 45 0 27 6 42 18 49 14
9 13 10 -10 11 -27 0 -28 -2 -28 -56z"/>
<path d="M10682 5925 c-21 -47 17 -96 62 -79 26 10 18 21 -13 16 -19 -3 -30 1
-34 12 -5 13 1 16 28 16 40 0 50 12 35 40 -16 30 -64 27 -78 -5z m66 -2 c2 -9
-7 -13 -27 -13 -23 0 -29 4 -24 16 6 17 44 15 51 -3z"/>
<path d="M10797 5944 c-4 -4 -7 -12 -7 -18 0 -6 5 -5 12 2 17 17 45 15 52 -3
4 -11 -1 -15 -17 -15 -28 0 -47 -17 -47 -42 0 -18 4 -20 53 -22 27 -2 28 -1
25 49 -3 48 -4 50 -33 53 -17 2 -34 0 -38 -4z m56 -50 c10 -11 -5 -34 -22 -34
-25 0 -33 11 -20 27 12 14 31 17 42 7z"/>
<path d="M10906 5935 c-9 -25 -9 -25 29 -41 19 -8 35 -19 35 -24 0 -15 -48
-12 -53 3 -2 6 -8 9 -12 5 -11 -11 14 -38 36 -38 9 0 25 8 34 17 16 16 16 18
-5 35 -12 10 -28 18 -36 18 -8 0 -14 5 -14 10 0 18 29 23 47 9 14 -12 16 -12
11 1 -7 22 -64 25 -72 5z"/>
<path d="M11203 5934 c-7 -18 20 -44 44 -44 7 0 13 -7 13 -15 0 -18 -31 -20
-49 -2 -11 10 -13 9 -9 -2 7 -25 36 -37 56 -25 30 19 27 44 -7 57 -17 6 -31
17 -31 24 0 17 37 17 43 1 2 -7 8 -10 12 -6 13 13 -6 28 -36 28 -18 0 -32 -6
-36 -16z"/>
<path d="M11308 5924 c-24 -52 37 -108 76 -69 19 19 21 66 4 83 -22 22 -67 14
-80 -14z m67 -24 c0 -29 -4 -36 -23 -38 -26 -4 -37 17 -28 54 5 19 12 25 29
22 18 -2 22 -9 22 -38z"/>
<path d="M11428 5925 c-21 -46 23 -102 60 -78 9 5 18 15 20 22 3 10 0 10 -16
0 -31 -19 -54 -5 -50 33 3 35 33 52 49 27 4 -7 11 -10 14 -7 13 13 -7 28 -36
28 -22 0 -32 -7 -41 -25z"/>
<path d="M11540 5894 c0 -34 4 -53 10 -49 6 3 10 28 10 56 0 27 -4 49 -10 49
-5 0 -10 -25 -10 -56z"/>
<path d="M11827 5944 c-4 -4 -7 -12 -7 -18 0 -6 5 -5 12 2 16 16 48 15 48 -2
0 -7 -14 -16 -31 -20 -26 -5 -30 -10 -27 -33 3 -25 7 -28 41 -28 l38 -1 -3 51
c-3 48 -4 50 -33 53 -17 2 -34 0 -38 -4z m53 -58 c0 -19 -17 -29 -37 -22 -12
5 -13 9 -3 21 16 19 40 19 40 1z"/>
<path d="M11937 5944 c-16 -16 -5 -36 28 -50 20 -8 33 -19 30 -24 -8 -14 -39
-12 -53 2 -8 8 -12 8 -12 1 0 -20 29 -35 55 -29 36 9 33 45 -5 59 -16 6 -30
17 -30 24 0 17 32 17 49 1 11 -11 13 -10 9 2 -5 16 -59 26 -71 14z"/>
<path d="M6286 5454 c-12 -11 -16 -36 -16 -94 0 -104 6 -110 114 -110 50 0 87
5 94 12 7 7 12 44 12 98 0 54 -5 91 -12 98 -19 19 -173 16 -192 -4z m182 -2
c9 -6 12 -33 10 -98 l-3 -89 -83 -3 c-53 -2 -89 1 -98 9 -18 15 -20 159 -2
177 14 14 155 16 176 4z"/>
<path d="M2102 5388 c-7 -7 -12 -32 -12 -57 0 -54 8 -51 11 4 1 22 7 46 12 53
12 15 5 16 -11 0z"/>
<path d="M1771 5376 c-16 -19 -10 -78 9 -84 13 -4 13 -3 2 11 -19 23 -11 71
12 75 10 2 23 -2 28 -10 8 -10 9 -10 5 2 -5 20 -41 24 -56 6z"/>
<path d="M1863 5340 c0 -30 2 -43 4 -27 2 15 2 39 0 55 -2 15 -4 2 -4 -28z"/>
<path d="M2655 5379 c-11 -16 -1 -19 13 -3 7 8 8 14 3 14 -5 0 -13 -5 -16 -11z"/>
<path d="M2697 5369 c4 -13 -3 -30 -23 -50 -15 -16 -24 -29 -20 -29 4 0 18 12
31 28 25 28 32 57 16 66 -5 4 -7 -3 -4 -15z"/>
<path d="M1935 5324 c0 -19 3 -34 8 -34 4 0 7 13 7 29 0 17 -3 32 -7 34 -5 3
-8 -10 -8 -29z"/>
<path d="M1974 5349 c-7 -11 12 -29 31 -29 6 1 2 5 -8 11 -9 6 -15 14 -12 20
4 5 4 9 1 9 -3 0 -8 -5 -12 -11z"/>
<path d="M2053 5325 c0 -22 2 -30 4 -17 2 12 2 30 0 40 -3 9 -5 -1 -4 -23z"/>
<path d="M2143 5325 c0 -22 2 -30 4 -17 2 12 2 30 0 40 -3 9 -5 -1 -4 -23z"/>
<path d="M2176 5345 c-3 -9 -6 -22 -5 -28 0 -7 5 -1 10 12 5 13 8 26 5 28 -2
2 -6 -3 -10 -12z"/>
<path d="M2215 5350 c3 -5 8 -10 11 -10 2 0 4 5 4 10 0 6 -5 10 -11 10 -5 0
-7 -4 -4 -10z"/>
<path d="M2295 5325 c0 -19 3 -35 8 -35 4 0 7 16 7 35 0 19 -3 35 -7 35 -5 0
-8 -16 -8 -35z"/>
<path d="M2375 5350 c3 -5 8 -10 11 -10 2 0 4 5 4 10 0 6 -5 10 -11 10 -5 0
-7 -4 -4 -10z"/>
<path d="M2455 5349 c-4 -6 -5 -12 -2 -15 2 -3 7 2 10 11 7 17 1 20 -8 4z"/>
<path d="M2496 5347 c3 -10 9 -15 12 -12 3 3 0 11 -7 18 -10 9 -11 8 -5 -6z"/>
<path d="M2540 5349 c0 -5 5 -7 10 -4 6 3 10 8 10 11 0 2 -4 4 -10 4 -5 0 -10
-5 -10 -11z"/>
<path d="M2578 5325 c2 -19 6 -35 8 -35 2 0 4 16 4 35 0 19 -4 35 -8 35 -4 0
-6 -16 -4 -35z"/>
<path d="M2330 5321 c0 -11 4 -22 9 -25 4 -3 6 6 3 19 -5 30 -12 33 -12 6z"/>
<path d="M1897 5323 c-11 -10 -8 -33 4 -33 5 0 7 5 3 11 -3 6 0 15 7 20 8 5 9
9 3 9 -6 0 -14 -3 -17 -7z"/>
<path d="M2254 5319 c-3 -6 -2 -15 3 -20 5 -5 9 -1 9 11 0 23 -2 24 -12 9z"/>
<path d="M2016 5303 c-6 -14 -5 -15 5 -6 7 7 10 15 7 18 -3 3 -9 -2 -12 -12z"/>
<path d="M2450 5311 c0 -6 4 -13 10 -16 6 -3 7 1 4 9 -7 18 -14 21 -14 7z"/>
<path d="M2496 5303 c-6 -14 -5 -15 5 -6 7 7 10 15 7 18 -3 3 -9 -2 -12 -12z"/>
<path d="M6287 4942 c-13 -14 -17 -38 -17 -91 0 -108 3 -111 108 -111 55 0 92
4 100 12 8 8 12 45 12 100 0 105 -3 108 -113 108 -59 0 -77 -4 -90 -18z m181
0 c9 -6 12 -33 10 -98 l-3 -89 -89 -3 c-65 -2 -92 1 -98 10 -12 21 -10 162 4
176 14 14 155 16 176 4z"/>
<path d="M2159 4618 c-1 -13 0 -35 1 -50 1 -23 -3 -28 -20 -28 -19 0 -22 4
-18 30 3 19 1 27 -5 21 -5 -5 -7 -19 -5 -32 2 -18 10 -25 31 -27 27 -3 27 -2
27 52 0 54 -9 80 -11 34z"/>
<path d="M1761 4578 c1 -29 4 -43 6 -31 3 15 13 23 31 25 21 2 27 8 27 27 0
13 -6 25 -13 27 -7 1 -8 0 -2 -3 5 -2 10 -13 10 -24 0 -14 -7 -19 -26 -19 -23
0 -26 3 -22 25 3 14 1 25 -3 25 -5 0 -8 -24 -8 -52z"/>
<path d="M2329 4613 c-1 -10 0 -29 1 -42 1 -13 -4 -28 -12 -32 -10 -7 -9 -9 5
-9 14 0 17 9 17 50 0 46 -9 72 -11 33z"/>
<path d="M1850 4565 c0 -19 2 -35 4 -35 2 0 6 16 8 35 2 19 0 35 -4 35 -4 0
-8 -16 -8 -35z"/>
<path d="M1947 4593 c-9 -9 -9 -51 1 -56 4 -3 7 10 7 29 0 19 0 34 -1 34 0 0
-4 -3 -7 -7z"/>
<path d="M1986 4587 c3 -10 9 -15 12 -12 3 3 0 11 -7 18 -10 9 -11 8 -5 -6z"/>
<path d="M2083 4565 c0 -22 2 -30 4 -17 2 12 2 30 0 40 -3 9 -5 -1 -4 -23z"/>
<path d="M2240 4571 c0 -23 -5 -31 -22 -34 -20 -4 -19 -4 5 -6 25 -1 27 2 27
34 0 19 -2 35 -5 35 -3 0 -5 -13 -5 -29z"/>
<path d="M2280 4589 c0 -5 5 -7 10 -4 6 3 10 8 10 11 0 2 -4 4 -10 4 -5 0 -10
-5 -10 -11z"/>
<path d="M1986 4543 c-6 -14 -5 -15 5 -6 7 7 10 15 7 18 -3 3 -9 -2 -12 -12z"/>
<path d="M6382 4443 c48 -3 80 -9 88 -17 7 -9 10 -46 8 -98 l-3 -83 -89 -3
c-65 -2 -92 1 -98 10 -13 21 -10 162 5 178 10 12 9 12 -5 1 -14 -11 -18 -29
-18 -88 0 -110 3 -113 108 -113 55 0 92 4 100 12 7 7 12 44 12 94 0 108 -6
115 -108 112 l-77 -2 77 -3z"/>
<path d="M4270 3880 c0 -33 4 -60 10 -60 6 0 10 27 10 60 0 33 -4 60 -10 60
-6 0 -10 -27 -10 -60z"/>
<path d="M6620 3930 c0 -5 5 -10 11 -10 5 0 7 5 4 10 -3 6 -8 10 -11 10 -2 0
-4 -4 -4 -10z"/>
<path d="M8311 3884 c-1 -56 1 -62 21 -67 29 -8 48 9 48 44 0 29 -24 50 -47
42 -6 -2 -13 6 -16 19 -2 13 -5 -5 -6 -38z m54 -24 c0 -18 -6 -26 -22 -28 -18
-3 -23 1 -23 21 0 28 9 39 30 35 9 -2 15 -14 15 -28z"/>
<path d="M8940 3919 c0 -12 -5 -19 -12 -16 -22 8 -48 -13 -48 -38 0 -31 24
-55 50 -48 17 5 20 14 20 64 0 33 -2 59 -5 59 -3 0 -5 -9 -5 -21z m0 -59 c0
-23 -5 -30 -19 -30 -10 0 -21 7 -25 15 -8 23 4 45 25 45 14 0 19 -7 19 -30z"/>
<path d="M4428 3903 c-14 -3 -18 -14 -17 -46 l2 -42 6 35 c9 50 41 55 41 6 0
-20 5 -36 10 -36 14 0 12 64 -2 78 -7 7 -14 11 -17 11 -4 -1 -14 -3 -23 -6z"/>
<path d="M5048 3903 c-14 -3 -18 -14 -17 -46 l2 -42 6 35 c9 50 41 55 41 6 0
-20 5 -36 10 -36 6 0 10 16 10 35 0 28 4 35 19 35 15 0 21 -8 24 -37 l4 -38 1
42 c2 44 -10 57 -40 42 -10 -6 -19 -5 -23 1 -6 10 -9 11 -37 3z"/>
<path d="M5195 3896 c-18 -13 -18 -14 8 -9 15 3 27 1 27 -5 0 -6 -10 -12 -22
-14 -25 -3 -37 -36 -18 -48 6 -4 22 -5 36 -2 19 3 24 11 24 32 0 16 -7 36 -16
44 -19 19 -16 19 -39 2z m35 -51 c0 -8 -9 -15 -20 -15 -20 0 -26 11 -13 23 12
13 33 7 33 -8z"/>
<path d="M5288 3902 c-14 -2 -18 -13 -18 -43 0 -21 5 -39 10 -39 6 0 10 15 10
34 0 19 6 36 13 39 17 6 5 14 -15 9z"/>
<path d="M5837 3902 c-13 -3 -17 -13 -15 -45 l1 -42 4 38 c3 29 9 37 24 37 15
0 19 -7 19 -35 0 -19 5 -35 10 -35 6 0 10 16 10 35 0 28 4 35 19 35 15 0 21
-8 24 -37 l4 -38 1 43 c1 27 -2 42 -10 43 -35 3 -76 4 -91 1z"/>
<path d="M6020 3890 c-25 -25 -25 -35 0 -60 22 -22 36 -25 45 -9 4 6 1 10 -6
8 -28 -3 -39 1 -39 16 0 10 10 15 30 15 35 0 41 23 10 40 -15 8 -24 6 -40 -10z
m40 -10 c0 -5 -9 -10 -20 -10 -11 0 -20 5 -20 10 0 6 9 10 20 10 11 0 20 -4
20 -10z"/>
<path d="M6772 3894 c-27 -18 -28 -45 -4 -67 22 -20 38 -22 48 -5 5 7 2 9 -8
5 -15 -5 -38 9 -38 25 0 4 14 8 30 8 33 0 38 11 14 34 -19 19 -15 19 -42 0z
m38 -14 c0 -5 -9 -10 -20 -10 -11 0 -20 5 -20 10 0 6 9 10 20 10 11 0 20 -4
20 -10z"/>
<path d="M7537 3899 c-21 -12 -23 -62 -2 -79 12 -10 20 -10 38 -1 l22 12 -22
-5 c-23 -4 -48 15 -36 27 3 4 17 7 30 7 13 0 23 6 23 15 0 21 -32 35 -53 24z
m38 -19 c4 -6 -5 -10 -20 -10 -15 0 -24 4 -20 10 3 6 12 10 20 10 8 0 17 -4
20 -10z"/>
<path d="M8143 3903 c-23 -9 -14 -40 12 -47 14 -4 25 -11 25 -16 0 -16 -21
-22 -36 -9 -8 6 -17 9 -20 6 -10 -9 34 -27 50 -21 25 10 19 41 -9 48 -14 4
-25 11 -25 17 0 7 11 9 25 7 28 -6 34 6 9 16 -9 3 -16 6 -17 5 -1 0 -8 -3 -14
-6z"/>
<path d="M8233 3903 c-23 -9 -14 -20 12 -15 15 2 25 0 25 -7 0 -6 -8 -11 -19
-11 -10 0 -24 -7 -31 -16 -18 -21 6 -46 38 -38 18 5 22 13 22 44 0 25 -5 40
-16 44 -9 3 -16 6 -17 5 -1 0 -8 -3 -14 -6z m37 -58 c0 -8 -9 -15 -20 -15 -11
0 -20 7 -20 15 0 8 9 15 20 15 11 0 20 -7 20 -15z"/>
<path d="M8998 3899 c-26 -14 -23 -65 3 -79 16 -9 25 -8 40 6 24 22 24 46 1
67 -21 20 -21 20 -44 6z m42 -38 c0 -31 -21 -46 -39 -28 -12 12 -15 40 -4 50
3 4 15 7 25 7 13 0 18 -8 18 -29z"/>
<path d="M9097 3902 c-13 -3 -17 -13 -15 -45 l1 -42 4 38 c3 29 9 37 24 37 15
0 19 -7 19 -35 0 -19 5 -35 10 -35 6 0 10 16 10 35 0 28 4 35 19 35 15 0 21
-8 24 -37 l4 -38 1 43 c1 23 -1 42 -5 43 -33 3 -83 3 -96 1z"/>
<path d="M4310 3872 c0 -40 20 -63 48 -56 19 5 22 13 20 48 l-1 41 -4 -37 c-3
-30 -9 -38 -24 -38 -15 0 -19 7 -19 35 0 19 -4 35 -10 35 -5 0 -10 -13 -10
-28z"/>
<path d="M5973 3860 c0 -25 2 -35 4 -22 2 12 2 32 0 45 -2 12 -4 2 -4 -23z"/>
<path d="M6620 3846 c0 -34 -5 -56 -12 -60 -7 -3 -4 -5 7 -3 17 2 20 11 23 60
2 35 -1 57 -8 57 -6 0 -10 -23 -10 -54z"/>
<path d="M6660 3866 c0 -39 17 -57 48 -49 19 4 22 12 20 47 l-1 41 -4 -37 c-3
-30 -9 -38 -24 -38 -15 0 -19 7 -19 35 0 19 -4 35 -10 35 -5 0 -10 -15 -10
-34z"/>
<path d="M7402 3868 c17 -52 26 -55 43 -15 17 42 18 47 6 47 -5 0 -12 -15 -15
-32 l-7 -33 -14 33 c-8 17 -16 32 -19 32 -3 0 0 -15 6 -32z"/>
<path d="M7483 3860 c0 -25 2 -35 4 -22 2 12 2 32 0 45 -2 12 -4 2 -4 -23z"/>
<path d="M2893 3825 c0 -33 2 -45 4 -27 2 18 2 45 0 60 -2 15 -4 0 -4 -33z"/>
<path d="M1762 3823 c-2 -49 0 -53 21 -53 13 0 28 5 35 12 20 20 12 88 -10 88
-6 0 -6 -6 1 -14 20 -24 10 -70 -16 -74 -19 -3 -22 2 -26 45 l-3 48 -2 -52z"/>
<path d="M2549 3856 c-7 -7 2 -86 10 -86 3 0 6 18 5 40 -1 40 -6 55 -15 46z"/>
<path d="M1941 3806 c2 -34 3 -36 6 -11 3 17 9 35 14 41 5 7 3 11 -6 11 -11 0
-15 -11 -14 -41z"/>
<path d="M2020 3843 c16 -8 12 -63 -4 -63 -8 0 -17 8 -19 18 -4 13 -5 11 -6
-5 -1 -18 4 -23 25 -23 23 0 25 3 22 37 -2 20 -9 38 -16 39 -7 1 -8 0 -2 -3z"/>
<path d="M2090 3846 c0 -2 7 -7 16 -10 8 -3 12 -2 9 4 -6 10 -25 14 -25 6z"/>
<path d="M2192 3838 c-29 -29 3 -82 36 -61 10 5 18 19 19 29 2 14 0 13 -7 -4
-6 -15 -17 -22 -27 -20 -25 5 -29 39 -7 55 10 7 13 13 8 13 -6 0 -15 -5 -22
-12z"/>
<path d="M2307 3840 c6 -8 13 -28 16 -45 l4 -30 2 31 c0 20 -6 37 -16 45 -16
12 -16 12 -6 -1z"/>
<path d="M2410 3846 c0 -2 7 -7 16 -10 8 -3 12 -2 9 4 -6 10 -25 14 -25 6z"/>
<path d="M2630 3811 c0 -23 2 -41 4 -41 8 0 12 71 4 76 -4 3 -8 -13 -8 -35z"/>
<path d="M2668 3838 c5 -7 12 -26 15 -43 4 -28 4 -28 6 6 1 26 -4 39 -15 43
-13 5 -14 3 -6 -6z"/>
<path d="M2713 3839 c10 -6 18 -23 18 -42 2 -31 2 -31 6 -4 5 29 -11 57 -31
57 -6 0 -3 -5 7 -11z"/>
<path d="M2791 3840 c9 -5 16 -20 15 -32 -1 -26 -32 -37 -39 -13 -4 12 -5 11
-3 -2 1 -12 10 -18 29 -19 23 -1 27 3 27 25 0 28 -16 51 -34 51 -6 0 -4 -5 5
-10z"/>
<path d="M2850 3836 c-15 -20 -9 -61 10 -62 9 0 10 1 3 3 -16 6 -17 45 -1 61
7 7 9 12 6 12 -3 0 -11 -7 -18 -14z"/>
<path d="M2957 3843 c6 -4 13 -24 16 -43 4 -34 4 -33 3 4 -1 26 -6 41 -16 43
-10 3 -11 2 -3 -4z"/>
<path d="M1862 3807 c-2 -34 0 -38 20 -35 12 2 23 9 24 16 1 7 0 8 -3 2 -11
-22 -32 -9 -36 23 -4 31 -4 31 -5 -6z"/>
<path d="M2071 3824 c0 -11 3 -14 6 -6 3 7 2 16 -1 19 -3 4 -6 -2 -5 -13z"/>
<path d="M2153 3805 c0 -22 2 -30 4 -17 2 12 2 30 0 40 -3 9 -5 -1 -4 -23z"/>
<path d="M2270 3805 c0 -19 2 -35 4 -35 2 0 6 16 8 35 2 19 0 35 -4 35 -4 0
-8 -16 -8 -35z"/>
<path d="M2393 3808 c1 -26 7 -33 25 -34 17 -1 18 -1 3 3 -12 3 -22 15 -25 34
-6 28 -6 27 -3 -3z"/>
<path d="M2470 3825 c0 -8 4 -15 10 -15 5 0 7 7 4 15 -4 8 -8 15 -10 15 -2 0
-4 -7 -4 -15z"/>
<path d="M2507 3793 c5 -13 2 -15 -15 -11 -12 4 -22 2 -22 -4 0 -17 45 -4 48
15 2 9 -1 17 -7 17 -6 0 -8 -7 -4 -17z"/>
<path d="M2073 3790 c2 -8 12 -16 23 -17 13 -2 15 -1 4 4 -8 3 -19 11 -23 17
-6 7 -7 6 -4 -4z"/>
<path d="M2938 3773 c7 -3 16 -2 19 1 4 3 -2 6 -13 5 -11 0 -14 -3 -6 -6z"/>
<path d="M1814 3650 c-36 -14 -64 -59 -64 -102 0 -32 7 -47 34 -74 44 -44 99
-47 145 -8 95 80 1 231 -115 184z m110 -36 c47 -48 32 -124 -30 -150 -54 -23
-113 8 -127 65 -7 30 15 85 40 100 34 20 88 13 117 -15z"/>
<path d="M1850 3582 c0 -32 5 -43 26 -57 14 -9 29 -13 32 -10 4 4 -3 14 -15
22 -15 10 -23 26 -23 44 0 15 -4 31 -10 34 -6 4 -10 -10 -10 -33z"/>
<path d="M2097 3624 c-13 -14 -8 -101 8 -114 34 -29 72 26 57 83 -6 24 -15 33
-33 35 -14 2 -28 0 -32 -4z m51 -47 c4 -45 -13 -73 -34 -56 -15 12 -18 56 -8
84 12 30 39 12 42 -28z"/>
<path d="M2196 3614 c-11 -29 -6 -91 9 -104 39 -32 79 33 56 93 -12 31 -55 38
-65 11z m52 -43 c4 -50 -9 -71 -33 -51 -27 23 -16 104 14 98 11 -2 17 -16 19
-47z"/>
<path d="M2340 3611 c-22 -43 -5 -111 28 -111 29 0 42 21 42 65 0 23 -5 46
-12 53 -18 18 -46 14 -58 -7z m55 -25 c8 -40 -9 -78 -30 -70 -15 6 -22 84 -8
97 16 16 33 4 38 -27z"/>
<path d="M2440 3615 c-7 -8 -10 -18 -7 -22 4 -3 9 2 13 11 3 9 15 16 25 16 30
0 24 -42 -11 -75 -16 -15 -27 -32 -24 -37 7 -11 74 -10 74 2 0 6 -11 10 -26
10 l-25 0 27 36 c22 28 25 40 17 52 -14 23 -47 26 -63 7z"/>
<path d="M2603 3588 c-18 -26 -33 -49 -33 -52 0 -3 14 -6 30 -6 22 0 30 -5 31
-17 0 -14 2 -15 6 -3 3 8 11 18 17 23 8 5 8 9 -1 15 -6 4 -13 25 -15 47 l-3
40 -32 -47z m27 -13 c0 -18 -5 -25 -20 -25 -20 0 -20 1 -4 25 9 14 18 25 20
25 2 0 4 -11 4 -25z"/>
<path d="M2692 3618 c-17 -17 -15 -93 3 -108 24 -20 54 -3 61 36 12 63 -28
108 -64 72z m46 -47 c4 -50 -9 -71 -33 -51 -27 23 -16 104 14 98 11 -2 17 -16
19 -47z"/>
<path d="M2290 3590 c0 -5 5 -10 11 -10 5 0 7 5 4 10 -3 6 -8 10 -11 10 -2 0
-4 -4 -4 -10z"/>
<path d="M2290 3509 c0 -5 5 -7 10 -4 6 3 10 8 10 11 0 2 -4 4 -10 4 -5 0 -10
-5 -10 -11z"/>
<path d="M2349 3103 c0 -10 -1 -35 -2 -56 -1 -20 1 -37 6 -37 4 0 7 25 7 55 0
30 -2 55 -5 55 -3 0 -5 -8 -6 -17z"/>
<path d="M1767 3103 c18 -4 23 -12 26 -51 l3 -47 2 47 c2 35 6 48 20 51 9 3
-3 5 -28 4 -25 0 -35 -2 -23 -4z"/>
<path d="M3390 3062 c0 -22 3 -43 8 -45 9 -6 7 71 -2 80 -3 3 -6 -12 -6 -35z"/>
<path d="M3971 3058 c-1 -27 3 -48 7 -48 4 0 6 17 4 38 -5 58 -10 62 -11 10z"/>
<path d="M3841 3073 c7 -12 15 -20 18 -17 3 2 -3 12 -13 22 -17 16 -18 16 -5
-5z"/>
<path d="M1853 3045 c0 -22 2 -30 4 -17 2 12 2 30 0 40 -3 9 -5 -1 -4 -23z"/>
<path d="M1885 3069 c-10 -14 3 -59 16 -59 8 0 8 4 2 13 -6 6 -9 22 -8 35 2
24 -1 27 -10 11z"/>
<path d="M1924 3061 c0 -11 4 -17 8 -15 4 3 8 12 8 20 0 8 -4 14 -8 14 -4 0
-8 -9 -8 -19z"/>
<path d="M1960 3045 c0 -19 2 -35 4 -35 2 0 6 16 8 35 2 19 0 35 -4 35 -4 0
-8 -16 -8 -35z"/>
<path d="M2008 3045 c2 -19 5 -35 7 -35 2 0 5 16 7 35 2 21 0 35 -7 35 -7 0
-9 -14 -7 -35z"/>
<path d="M2058 3045 c2 -19 6 -35 8 -35 2 0 4 16 4 35 0 19 -4 35 -8 35 -4 0
-6 -16 -4 -35z"/>
<path d="M2090 3069 c0 -5 5 -7 10 -4 6 3 10 8 10 11 0 2 -4 4 -10 4 -5 0 -10
-5 -10 -11z"/>
<path d="M2145 3062 c4 -13 1 -29 -5 -37 -8 -10 -9 -15 -2 -15 17 0 24 38 12
57 -9 16 -10 15 -5 -5z"/>
<path d="M2180 3069 c0 -5 5 -7 10 -4 6 3 10 8 10 11 0 2 -4 4 -10 4 -5 0 -10
-5 -10 -11z"/>
<path d="M2225 3045 c0 -18 3 -31 8 -28 4 2 7 15 7 28 0 13 -3 26 -7 28 -5 3
-8 -10 -8 -28z"/>
<path d="M2307 3073 c-9 -9 -9 -51 1 -56 4 -3 7 10 7 29 0 19 0 34 -1 34 0 0
-4 -3 -7 -7z"/>
<path d="M2431 3064 c0 -11 3 -14 6 -6 3 7 2 16 -1 19 -3 4 -6 -2 -5 -13z"/>
<path d="M2500 3028 c0 -28 3 -49 6 -46 8 9 10 98 2 98 -5 0 -8 -23 -8 -52z"/>
<path d="M2546 3065 c4 -8 8 -15 10 -15 2 0 4 7 4 15 0 8 -4 15 -10 15 -5 0
-7 -7 -4 -15z"/>
<path d="M2628 3054 c3 -16 -1 -30 -9 -35 -11 -7 -10 -9 4 -9 13 0 17 8 17 35
0 19 -4 35 -9 35 -4 0 -6 -12 -3 -26z"/>
<path d="M2670 3069 c0 -5 5 -7 10 -4 6 3 10 8 10 11 0 2 -4 4 -10 4 -5 0 -10
-5 -10 -11z"/>
<path d="M2765 3062 c4 -13 1 -29 -5 -37 -8 -10 -9 -15 -2 -15 17 0 24 38 12
57 -9 16 -10 15 -5 -5z"/>
<path d="M2840 3030 c0 -29 3 -50 7 -47 7 8 6 88 -2 95 -3 3 -5 -19 -5 -48z"/>
<path d="M2884 3045 c0 -19 3 -32 8 -29 10 6 11 51 1 57 -5 3 -8 -10 -9 -28z"/>
<path d="M2927 3073 c-9 -9 -9 -51 1 -56 4 -3 7 10 7 29 0 19 0 34 -1 34 0 0
-4 -3 -7 -7z"/>
<path d="M2966 3065 c4 -8 8 -15 10 -15 2 0 4 7 4 15 0 8 -4 15 -10 15 -5 0
-7 -7 -4 -15z"/>
<path d="M3010 3069 c0 -5 5 -7 10 -4 6 3 10 8 10 11 0 2 -4 4 -10 4 -5 0 -10
-5 -10 -11z"/>
<path d="M3090 3045 c0 -19 2 -35 4 -35 2 0 6 16 8 35 2 19 0 35 -4 35 -4 0
-8 -16 -8 -35z"/>
<path d="M3138 3045 c2 -19 5 -35 7 -35 2 0 5 16 7 35 2 21 0 35 -7 35 -7 0
-9 -14 -7 -35z"/>
<path d="M3188 3045 c2 -19 6 -35 8 -35 2 0 4 16 4 35 0 19 -4 35 -8 35 -4 0
-6 -16 -4 -35z"/>
<path d="M3268 3050 c4 -26 1 -30 -18 -30 -17 0 -21 4 -15 18 5 13 3 14 -6 5
-16 -16 -2 -33 27 -33 21 0 24 5 24 35 0 19 -4 35 -8 35 -5 0 -7 -13 -4 -30z"/>
<path d="M3310 3069 c0 -5 5 -7 10 -4 6 3 10 8 10 11 0 2 -4 4 -10 4 -5 0 -10
-5 -10 -11z"/>
<path d="M3436 3064 c-9 -23 -8 -24 12 -23 9 0 12 3 5 5 -7 3 -9 12 -6 20 3 8
3 14 0 14 -3 0 -8 -7 -11 -16z"/>
<path d="M3480 3071 c0 -6 4 -13 10 -16 6 -3 7 1 4 9 -7 18 -14 21 -14 7z"/>
<path d="M3520 3055 c0 -14 2 -25 4 -25 2 0 6 11 8 25 3 14 1 25 -3 25 -5 0
-9 -11 -9 -25z"/>
<path d="M3603 3045 c0 -22 2 -30 4 -17 2 12 2 30 0 40 -3 9 -5 -1 -4 -23z"/>
<path d="M3680 3045 c0 -19 2 -35 4 -35 2 0 6 16 8 35 2 19 0 35 -4 35 -4 0
-8 -16 -8 -35z"/>
<path d="M3728 3045 c2 -19 6 -35 8 -35 2 0 4 16 4 35 0 19 -4 35 -8 35 -4 0
-6 -16 -4 -35z"/>
<path d="M3773 3045 c0 -22 2 -30 4 -17 2 12 2 30 0 40 -3 9 -5 -1 -4 -23z"/>
<path d="M3804 3066 c-9 -23 -1 -49 16 -53 12 -4 13 -3 1 5 -8 6 -12 20 -9 36
6 28 1 35 -8 12z"/>
<path d="M3880 3045 c0 -19 2 -35 4 -35 2 0 6 16 8 35 2 19 0 35 -4 35 -4 0
-8 -16 -8 -35z"/>
<path d="M3928 3045 c2 -19 6 -35 8 -35 2 0 4 16 4 35 0 19 -4 35 -8 35 -4 0
-6 -16 -4 -35z"/>
<path d="M2380 3051 c0 -18 12 -41 22 -41 7 0 6 5 -1 13 -6 8 -8 16 -5 19 3 3
1 9 -5 13 -6 3 -11 2 -11 -4z"/>
<path d="M2710 3050 c0 -17 17 -47 23 -40 2 3 -2 16 -10 30 -7 14 -13 18 -13
10z"/>
<path d="M2584 3039 c-3 -6 -2 -15 3 -20 5 -5 9 -1 9 11 0 23 -2 24 -12 9z"/>
<path d="M2546 3023 c-6 -14 -5 -15 5 -6 7 7 10 15 7 18 -3 3 -9 -2 -12 -12z"/>
<path d="M2966 3023 c-6 -14 -5 -15 5 -6 7 7 10 15 7 18 -3 3 -9 -2 -12 -12z"/>
<path d="M2098 3013 c7 -3 16 -2 19 1 4 3 -2 6 -13 5 -11 0 -14 -3 -6 -6z"/>
<path d="M1803 2880 c-38 -23 -53 -48 -53 -90 0 -94 107 -145 179 -84 57 47
50 137 -13 175 -40 24 -73 24 -113 -1z m116 -26 c57 -48 32 -141 -42 -159 -61
-16 -124 55 -106 118 19 68 92 89 148 41z"/>
<path d="M1850 2822 c0 -32 5 -43 26 -57 32 -20 47 -11 16 11 -14 10 -22 26
-22 44 0 16 -4 32 -10 35 -6 4 -10 -10 -10 -33z"/>
<path d="M2102 2838 c-7 -7 -12 -30 -12 -53 0 -23 5 -46 12 -53 21 -21 48 -14
59 15 24 63 -20 130 -59 91z m46 -47 c4 -50 -9 -71 -33 -51 -27 23 -16 104 14
98 11 -2 17 -16 19 -47z"/>
<path d="M2202 2838 c-17 -17 -15 -93 3 -108 24 -20 49 -7 58 30 16 64 -24
115 -61 78z m46 -47 c4 -50 -9 -71 -33 -51 -27 23 -16 104 14 98 11 -2 17 -16
19 -47z"/>
<path d="M2340 2831 c-22 -43 -5 -111 28 -111 29 0 42 21 42 65 0 23 -5 46
-12 53 -18 18 -46 14 -58 -7z m52 -16 c14 -31 0 -80 -22 -80 -10 0 -16 13 -18
39 -6 66 18 90 40 41z"/>
<path d="M2440 2835 c-7 -9 -10 -18 -6 -22 3 -4 12 2 20 12 7 10 18 15 24 11
19 -11 14 -41 -9 -62 -11 -10 -25 -27 -30 -36 -9 -16 -5 -18 33 -17 30 2 35 3
16 6 -34 5 -34 8 -3 45 28 33 31 48 13 66 -17 17 -43 15 -58 -3z"/>
<path d="M2603 2808 c-18 -26 -33 -49 -33 -52 0 -3 13 -6 29 -6 20 0 31 -6 34
-17 4 -17 5 -17 6 0 0 9 6 17 12 17 8 0 8 4 1 13 -6 7 -12 30 -14 52 l-3 40
-32 -47z m27 -18 c0 -23 -4 -30 -20 -30 -20 0 -20 1 -5 30 9 17 18 30 20 30 3
0 5 -13 5 -30z"/>
<path d="M2692 2838 c-17 -17 -15 -93 3 -108 24 -20 49 -7 58 30 16 64 -24
115 -61 78z m46 -48 c4 -49 -9 -70 -33 -50 -29 24 -12 107 20 97 5 -2 11 -23
13 -47z"/>
<path d="M2290 2730 c0 -5 5 -10 10 -10 6 0 10 5 10 10 0 6 -4 10 -10 10 -5 0
-10 -4 -10 -10z"/>
</g>
</svg>
