<?xml version="1.0" encoding="UTF-8" standalone="no"?>
<!DOCTYPE svg PUBLIC "-//W3C//DTD SVG 1.1//EN"
 "http://www.w3.org/Graphics/SVG/1.1/DTD/svg11.dtd">
<!-- Generated by graphviz version 2.47.0 (20210316.0004)
 -->
<!-- Title: dependencies Pages: 1 -->
<svg width="2090pt" height="284pt"
 viewBox="0.00 0.00 2090.00 284.00" xmlns="http://www.w3.org/2000/svg" xmlns:xlink="http://www.w3.org/1999/xlink">
<g id="graph0" class="graph" transform="scale(1 1) rotate(0) translate(4 280)">
<title>dependencies</title>
<polygon fill="white" stroke="transparent" points="-4,4 -4,-280 2086,-280 2086,4 -4,4"/>
<text text-anchor="start" x="1020.01" y="-42.4" font-family="Times-12" font-weight="bold" font-size="14.00">Legend</text>
<polygon fill="#ffffb3" stroke="transparent" points="807,-10 807,-30 827,-30 827,-10 807,-10"/>
<text text-anchor="start" x="830.63" y="-15.4" font-family="Times-12" font-size="14.00"> &#160;Declarations</text>
<polygon fill="#8dd3c7" stroke="transparent" points="920,-10 920,-30 940,-30 940,-10 920,-10"/>
<text text-anchor="start" x="943.73" y="-15.4" font-family="Times-12" font-size="14.00"> &#160;Module</text>
<polygon fill="#80b1d3" stroke="transparent" points="1006,-10 1006,-30 1026,-30 1026,-10 1006,-10"/>
<text text-anchor="start" x="1029.78" y="-15.4" font-family="Times-12" font-size="14.00"> &#160;Bootstrap</text>
<polygon fill="#fdb462" stroke="transparent" points="1103,-10 1103,-30 1123,-30 1123,-10 1103,-10"/>
<text text-anchor="start" x="1126.67" y="-15.4" font-family="Times-12" font-size="14.00"> &#160;Providers</text>
<polygon fill="#fb8072" stroke="transparent" points="1199,-10 1199,-30 1219,-30 1219,-10 1199,-10"/>
<text text-anchor="start" x="1222.73" y="-15.4" font-family="Times-12" font-size="14.00"> &#160;Exports</text>
<g id="clust1" class="cluster">
<title>cluster_AppModule</title>
<polygon fill="none" stroke="black" stroke-dasharray="1,5" points="8,-70 8,-268 2074,-268 2074,-70 8,-70"/>
</g>
<g id="clust2" class="cluster">
<title>cluster_AppModule_declarations</title>
<polygon fill="none" stroke="black" points="986,-78 986,-130 2066,-130 2066,-78 986,-78"/>
</g>
<g id="clust10" class="cluster">
<title>cluster_AppModule_imports</title>
<polygon fill="none" stroke="black" points="16,-78 16,-130 978,-130 978,-78 16,-78"/>
</g>
<g id="clust12" class="cluster">
<title>cluster_AppModule_bootstrap</title>
<polygon fill="none" stroke="black" points="928,-208 928,-260 1052,-260 1052,-208 928,-208"/>
</g>
<!-- AppComponent -->
<g id="node1" class="node">
<title>AppComponent</title>
<polygon fill="#ffffb3" stroke="black" points="2057.94,-122 1952.06,-122 1952.06,-86 2057.94,-86 2057.94,-122"/>
<text text-anchor="middle" x="2005" y="-99.8" font-family="Times,serif" font-size="14.00">AppComponent</text>
</g>
<!-- AppModule -->
<g id="node8" class="node">
<title>AppModule</title>
<polygon fill="#8dd3c7" stroke="black" points="1031.66,-187 1028.66,-191 1007.66,-191 1004.66,-187 948.34,-187 948.34,-151 1031.66,-151 1031.66,-187"/>
<text text-anchor="middle" x="990" y="-164.8" font-family="Times,serif" font-size="14.00">AppModule</text>
</g>
<!-- AppComponent&#45;&gt;AppModule -->
<g id="edge1" class="edge">
<title>AppComponent&#45;&gt;AppModule</title>
<path fill="none" stroke="black" d="M2005,-122.09C2005,-145.13 2005,-182 2005,-182 2005,-182 1041.68,-182 1041.68,-182"/>
<polygon fill="black" stroke="black" points="1041.68,-178.5 1031.68,-182 1041.68,-185.5 1041.68,-178.5"/>
</g>
<!-- LandingPageComponent -->
<g id="node2" class="node">
<title>LandingPageComponent</title>
<polygon fill="#ffffb3" stroke="black" points="1934.7,-122 1779.3,-122 1779.3,-86 1934.7,-86 1934.7,-122"/>
<text text-anchor="middle" x="1857" y="-99.8" font-family="Times,serif" font-size="14.00">LandingPageComponent</text>
</g>
<!-- LandingPageComponent&#45;&gt;AppModule -->
<g id="edge2" class="edge">
<title>LandingPageComponent&#45;&gt;AppModule</title>
<path fill="none" stroke="black" d="M1857,-122.04C1857,-143.66 1857,-177 1857,-177 1857,-177 1041.82,-177 1041.82,-177"/>
<polygon fill="black" stroke="black" points="1041.82,-173.5 1031.82,-177 1041.82,-180.5 1041.82,-173.5"/>
</g>
<!-- LoginComponent -->
<g id="node3" class="node">
<title>LoginComponent</title>
<polygon fill="#ffffb3" stroke="black" points="1761.28,-122 1646.72,-122 1646.72,-86 1761.28,-86 1761.28,-122"/>
<text text-anchor="middle" x="1704" y="-99.8" font-family="Times,serif" font-size="14.00">LoginComponent</text>
</g>
<!-- LoginComponent&#45;&gt;AppModule -->
<g id="edge3" class="edge">
<title>LoginComponent&#45;&gt;AppModule</title>
<path fill="none" stroke="black" d="M1704,-122.22C1704,-142.37 1704,-172 1704,-172 1704,-172 1041.74,-172 1041.74,-172"/>
<polygon fill="black" stroke="black" points="1041.74,-168.5 1031.74,-172 1041.74,-175.5 1041.74,-168.5"/>
</g>
<!-- NotFoundComponent -->
<g id="node4" class="node">
<title>NotFoundComponent</title>
<polygon fill="#ffffb3" stroke="black" points="1629.11,-122 1490.89,-122 1490.89,-86 1629.11,-86 1629.11,-122"/>
<text text-anchor="middle" x="1560" y="-99.8" font-family="Times,serif" font-size="14.00">NotFoundComponent</text>
</g>
<!-- NotFoundComponent&#45;&gt;AppModule -->
<g id="edge4" class="edge">
<title>NotFoundComponent&#45;&gt;AppModule</title>
<path fill="none" stroke="black" d="M1560,-122.22C1560,-140.83 1560,-167 1560,-167 1560,-167 1041.91,-167 1041.91,-167"/>
<polygon fill="black" stroke="black" points="1041.91,-163.5 1031.91,-167 1041.91,-170.5 1041.91,-163.5"/>
</g>
<!-- RegistroComponent -->
<g id="node5" class="node">
<title>RegistroComponent</title>
<polygon fill="#ffffb3" stroke="black" points="1473.27,-122 1344.73,-122 1344.73,-86 1473.27,-86 1473.27,-122"/>
<text text-anchor="middle" x="1409" y="-99.8" font-family="Times,serif" font-size="14.00">RegistroComponent</text>
</g>
<!-- RegistroComponent&#45;&gt;AppModule -->
<g id="edge5" class="edge">
<title>RegistroComponent&#45;&gt;AppModule</title>
<path fill="none" stroke="black" d="M1409,-122.03C1409,-139.06 1409,-162 1409,-162 1409,-162 1041.71,-162 1041.71,-162"/>
<polygon fill="black" stroke="black" points="1041.71,-158.5 1031.71,-162 1041.71,-165.5 1041.71,-158.5"/>
</g>
<!-- inicioAdminComponent -->
<g id="node6" class="node">
<title>inicioAdminComponent</title>
<polygon fill="#ffffb3" stroke="black" points="1327.11,-122 1174.89,-122 1174.89,-86 1327.11,-86 1327.11,-122"/>
<text text-anchor="middle" x="1251" y="-99.8" font-family="Times,serif" font-size="14.00">inicioAdminComponent</text>
</g>
<!-- inicioAdminComponent&#45;&gt;AppModule -->
<g id="edge6" class="edge">
<title>inicioAdminComponent&#45;&gt;AppModule</title>
<path fill="none" stroke="black" d="M1251,-122.24C1251,-137.57 1251,-157 1251,-157 1251,-157 1041.93,-157 1041.93,-157"/>
<polygon fill="black" stroke="black" points="1041.93,-153.5 1031.93,-157 1041.93,-160.5 1041.93,-153.5"/>
</g>
<!-- inicioOperarioComponent -->
<g id="node7" class="node">
<title>inicioOperarioComponent</title>
<polygon fill="#ffffb3" stroke="black" points="1156.47,-122 993.53,-122 993.53,-86 1156.47,-86 1156.47,-122"/>
<text text-anchor="middle" x="1075" y="-99.8" font-family="Times,serif" font-size="14.00">inicioOperarioComponent</text>
</g>
<!-- inicioOperarioComponent&#45;&gt;AppModule -->
<g id="edge7" class="edge">
<title>inicioOperarioComponent&#45;&gt;AppModule</title>
<path fill="none" stroke="black" d="M1012.67,-122.11C1012.67,-122.11 1012.67,-140.99 1012.67,-140.99"/>
<polygon fill="black" stroke="black" points="1009.17,-140.99 1012.67,-150.99 1016.17,-140.99 1009.17,-140.99"/>
</g>
<!-- AppComponent  -->
<g id="node16" class="node">
<title>AppComponent </title>
<polygon fill="#80b1d3" stroke="black" points="1044.44,-252 935.56,-252 935.56,-216 1044.44,-216 1044.44,-252"/>
<text text-anchor="middle" x="990" y="-229.8" font-family="Times,serif" font-size="14.00">AppComponent </text>
</g>
<!-- AppModule&#45;&gt;AppComponent  -->
<g id="edge15" class="edge">
<title>AppModule&#45;&gt;AppComponent </title>
<path fill="none" stroke="black" stroke-dasharray="1,5" d="M990,-187.11C990,-187.11 990,-205.99 990,-205.99"/>
<polygon fill="black" stroke="black" points="986.5,-205.99 990,-215.99 993.5,-205.99 986.5,-205.99"/>
</g>
<!-- AppRoutingModule -->
<g id="node9" class="node">
<title>AppRoutingModule</title>
<polygon fill="#8dd3c7" stroke="black" points="970.27,-122 967.27,-126 946.27,-126 943.27,-122 841.73,-122 841.73,-86 970.27,-86 970.27,-122"/>
<text text-anchor="middle" x="906" y="-99.8" font-family="Times,serif" font-size="14.00">AppRoutingModule</text>
</g>
<!-- AppRoutingModule&#45;&gt;AppModule -->
<g id="edge8" class="edge">
<title>AppRoutingModule&#45;&gt;AppModule</title>
<path fill="none" stroke="black" d="M959.28,-122.11C959.28,-122.11 959.28,-140.99 959.28,-140.99"/>
<polygon fill="black" stroke="black" points="955.78,-140.99 959.28,-150.99 962.78,-140.99 955.78,-140.99"/>
</g>
<!-- FooterModule -->
<g id="node10" class="node">
<title>FooterModule</title>
<polygon fill="#8dd3c7" stroke="black" points="824.1,-122 821.1,-126 800.1,-126 797.1,-122 727.9,-122 727.9,-86 824.1,-86 824.1,-122"/>
<text text-anchor="middle" x="776" y="-99.8" font-family="Times,serif" font-size="14.00">FooterModule</text>
</g>
<!-- FooterModule&#45;&gt;AppModule -->
<g id="edge9" class="edge">
<title>FooterModule&#45;&gt;AppModule</title>
<path fill="none" stroke="black" d="M776,-122.24C776,-137.57 776,-157 776,-157 776,-157 938.23,-157 938.23,-157"/>
<polygon fill="black" stroke="black" points="938.23,-160.5 948.23,-157 938.23,-153.5 938.23,-160.5"/>
</g>
<!-- FormulariosModule -->
<g id="node11" class="node">
<title>FormulariosModule</title>
<polygon fill="#8dd3c7" stroke="black" points="709.98,-122 706.98,-126 685.98,-126 682.98,-122 582.02,-122 582.02,-86 709.98,-86 709.98,-122"/>
<text text-anchor="middle" x="646" y="-99.8" font-family="Times,serif" font-size="14.00">FormulariosModule</text>
</g>
<!-- FormulariosModule&#45;&gt;AppModule -->
<g id="edge10" class="edge">
<title>FormulariosModule&#45;&gt;AppModule</title>
<path fill="none" stroke="black" d="M646,-122.03C646,-139.06 646,-162 646,-162 646,-162 938.16,-162 938.16,-162"/>
<polygon fill="black" stroke="black" points="938.16,-165.5 948.16,-162 938.16,-158.5 938.16,-165.5"/>
</g>
<!-- HeaderLoggedModule -->
<g id="node12" class="node">
<title>HeaderLoggedModule</title>
<polygon fill="#8dd3c7" stroke="black" points="564.23,-122 561.23,-126 540.23,-126 537.23,-122 421.77,-122 421.77,-86 564.23,-86 564.23,-122"/>
<text text-anchor="middle" x="493" y="-99.8" font-family="Times,serif" font-size="14.00">HeaderLoggedModule</text>
</g>
<!-- HeaderLoggedModule&#45;&gt;AppModule -->
<g id="edge11" class="edge">
<title>HeaderLoggedModule&#45;&gt;AppModule</title>
<path fill="none" stroke="black" d="M493,-122.22C493,-140.83 493,-167 493,-167 493,-167 938.05,-167 938.05,-167"/>
<polygon fill="black" stroke="black" points="938.05,-170.5 948.05,-167 938.05,-163.5 938.05,-170.5"/>
</g>
<!-- HeaderModule -->
<g id="node13" class="node">
<title>HeaderModule</title>
<polygon fill="#8dd3c7" stroke="black" points="403.96,-122 400.96,-126 379.96,-126 376.96,-122 304.04,-122 304.04,-86 403.96,-86 403.96,-122"/>
<text text-anchor="middle" x="354" y="-99.8" font-family="Times,serif" font-size="14.00">HeaderModule</text>
</g>
<!-- HeaderModule&#45;&gt;AppModule -->
<g id="edge12" class="edge">
<title>HeaderModule&#45;&gt;AppModule</title>
<path fill="none" stroke="black" d="M354,-122.22C354,-142.37 354,-172 354,-172 354,-172 938.27,-172 938.27,-172"/>
<polygon fill="black" stroke="black" points="938.27,-175.5 948.27,-172 938.27,-168.5 938.27,-175.5"/>
</g>
<!-- LandingModule -->
<g id="node14" class="node">
<title>LandingModule</title>
<polygon fill="#8dd3c7" stroke="black" points="286.21,-122 283.21,-126 262.21,-126 259.21,-122 179.79,-122 179.79,-86 286.21,-86 286.21,-122"/>
<text text-anchor="middle" x="233" y="-99.8" font-family="Times,serif" font-size="14.00">LandingModule</text>
</g>
<!-- LandingModule&#45;&gt;AppModule -->
<g id="edge13" class="edge">
<title>LandingModule&#45;&gt;AppModule</title>
<path fill="none" stroke="black" d="M233,-122.04C233,-143.66 233,-177 233,-177 233,-177 938.22,-177 938.22,-177"/>
<polygon fill="black" stroke="black" points="938.22,-180.5 948.22,-177 938.22,-173.5 938.22,-180.5"/>
</g>
<!-- OrdenTrabajoModule -->
<g id="node15" class="node">
<title>OrdenTrabajoModule</title>
<polygon fill="#8dd3c7" stroke="black" points="162.06,-122 159.06,-126 138.06,-126 135.06,-122 23.94,-122 23.94,-86 162.06,-86 162.06,-122"/>
<text text-anchor="middle" x="93" y="-99.8" font-family="Times,serif" font-size="14.00">OrdenTrabajoModule</text>
</g>
<!-- OrdenTrabajoModule&#45;&gt;AppModule -->
<g id="edge14" class="edge">
<title>OrdenTrabajoModule&#45;&gt;AppModule</title>
<path fill="none" stroke="black" d="M93,-122.09C93,-145.13 93,-182 93,-182 93,-182 938.24,-182 938.24,-182"/>
<polygon fill="black" stroke="black" points="938.24,-185.5 948.24,-182 938.24,-178.5 938.24,-185.5"/>
</g>
</g>
</svg>
