<?xml version="1.0" encoding="UTF-8" standalone="no"?>
<!DOCTYPE svg PUBLIC "-//W3C//DTD SVG 1.1//EN"
 "http://www.w3.org/Graphics/SVG/1.1/DTD/svg11.dtd">
<!-- Generated by graphviz version 2.47.0 (20210316.0004)
 -->
<!-- Title: dependencies Pages: 1 -->
<svg width="504pt" height="284pt"
 viewBox="0.00 0.00 504.00 284.00" xmlns="http://www.w3.org/2000/svg" xmlns:xlink="http://www.w3.org/1999/xlink">
<g id="graph0" class="graph" transform="scale(1 1) rotate(0) translate(4 280)">
<title>dependencies</title>
<polygon fill="white" stroke="transparent" points="-4,4 -4,-280 500,-280 500,4 -4,4"/>
<text text-anchor="start" x="227.01" y="-42.4" font-family="Times-12" font-weight="bold" font-size="14.00">Legend</text>
<polygon fill="#ffffb3" stroke="transparent" points="14,-10 14,-30 34,-30 34,-10 14,-10"/>
<text text-anchor="start" x="37.63" y="-15.4" font-family="Times-12" font-size="14.00"> &#160;Declarations</text>
<polygon fill="#8dd3c7" stroke="transparent" points="127,-10 127,-30 147,-30 147,-10 127,-10"/>
<text text-anchor="start" x="150.73" y="-15.4" font-family="Times-12" font-size="14.00"> &#160;Module</text>
<polygon fill="#80b1d3" stroke="transparent" points="213,-10 213,-30 233,-30 233,-10 213,-10"/>
<text text-anchor="start" x="236.78" y="-15.4" font-family="Times-12" font-size="14.00"> &#160;Bootstrap</text>
<polygon fill="#fdb462" stroke="transparent" points="310,-10 310,-30 330,-30 330,-10 310,-10"/>
<text text-anchor="start" x="333.67" y="-15.4" font-family="Times-12" font-size="14.00"> &#160;Providers</text>
<polygon fill="#fb8072" stroke="transparent" points="406,-10 406,-30 426,-30 426,-10 406,-10"/>
<text text-anchor="start" x="429.73" y="-15.4" font-family="Times-12" font-size="14.00"> &#160;Exports</text>
<g id="clust1" class="cluster">
<title>cluster_FooterModule</title>
<polygon fill="none" stroke="black" stroke-dasharray="1,5" points="9,-70 9,-268 487,-268 487,-70 9,-70"/>
</g>
<g id="clust2" class="cluster">
<title>cluster_FooterModule_declarations</title>
<polygon fill="none" stroke="black" points="17,-78 17,-130 479,-130 479,-78 17,-78"/>
</g>
<g id="clust7" class="cluster">
<title>cluster_FooterModule_exports</title>
<polygon fill="none" stroke="black" points="194,-208 194,-260 332,-260 332,-208 194,-208"/>
</g>
<!-- FooterComponent -->
<g id="node1" class="node">
<title>FooterComponent</title>
<polygon fill="#ffffb3" stroke="black" points="470.88,-122 353.12,-122 353.12,-86 470.88,-86 470.88,-122"/>
<text text-anchor="middle" x="412" y="-99.8" font-family="Times,serif" font-size="14.00">FooterComponent</text>
</g>
<!-- FooterModule -->
<g id="node4" class="node">
<title>FooterModule</title>
<polygon fill="#8dd3c7" stroke="black" points="311.1,-187 308.1,-191 287.1,-191 284.1,-187 214.9,-187 214.9,-151 311.1,-151 311.1,-187"/>
<text text-anchor="middle" x="263" y="-164.8" font-family="Times,serif" font-size="14.00">FooterModule</text>
</g>
<!-- FooterComponent&#45;&gt;FooterModule -->
<g id="edge1" class="edge">
<title>FooterComponent&#45;&gt;FooterModule</title>
<path fill="none" stroke="black" d="M412,-122.11C412,-141.34 412,-169 412,-169 412,-169 321.38,-169 321.38,-169"/>
<polygon fill="black" stroke="black" points="321.38,-165.5 311.38,-169 321.38,-172.5 321.38,-165.5"/>
</g>
<!-- FooterDataComponent -->
<g id="node2" class="node">
<title>FooterDataComponent</title>
<polygon fill="#ffffb3" stroke="black" points="335.31,-122 190.69,-122 190.69,-86 335.31,-86 335.31,-122"/>
<text text-anchor="middle" x="263" y="-99.8" font-family="Times,serif" font-size="14.00">FooterDataComponent</text>
</g>
<!-- FooterDataComponent&#45;&gt;FooterModule -->
<g id="edge2" class="edge">
<title>FooterDataComponent&#45;&gt;FooterModule</title>
<path fill="none" stroke="black" d="M263,-122.11C263,-122.11 263,-140.99 263,-140.99"/>
<polygon fill="black" stroke="black" points="259.5,-140.99 263,-150.99 266.5,-140.99 259.5,-140.99"/>
</g>
<!-- FooterLogoComponent -->
<g id="node3" class="node">
<title>FooterLogoComponent</title>
<polygon fill="#ffffb3" stroke="black" points="172.93,-122 25.07,-122 25.07,-86 172.93,-86 172.93,-122"/>
<text text-anchor="middle" x="99" y="-99.8" font-family="Times,serif" font-size="14.00">FooterLogoComponent</text>
</g>
<!-- FooterLogoComponent&#45;&gt;FooterModule -->
<g id="edge3" class="edge">
<title>FooterLogoComponent&#45;&gt;FooterModule</title>
<path fill="none" stroke="black" d="M99,-122.11C99,-141.34 99,-169 99,-169 99,-169 204.68,-169 204.68,-169"/>
<polygon fill="black" stroke="black" points="204.68,-172.5 214.68,-169 204.68,-165.5 204.68,-172.5"/>
</g>
<!-- FooterComponent  -->
<g id="node5" class="node">
<title>FooterComponent </title>
<polygon fill="#fb8072" stroke="black" points="323.88,-252 202.12,-252 202.12,-216 323.88,-216 323.88,-252"/>
<text text-anchor="middle" x="263" y="-229.8" font-family="Times,serif" font-size="14.00">FooterComponent </text>
</g>
<!-- FooterModule&#45;&gt;FooterComponent  -->
<g id="edge4" class="edge">
<title>FooterModule&#45;&gt;FooterComponent </title>
<path fill="none" stroke="black" stroke-dasharray="5,2" d="M263,-187.11C263,-187.11 263,-205.99 263,-205.99"/>
<polygon fill="black" stroke="black" points="259.5,-205.99 263,-215.99 266.5,-205.99 259.5,-205.99"/>
</g>
</g>
</svg>
